<?xml version="1.0" encoding="utf-8"?>
<!-- Generator: Adobe Illustrator 23.0.1, SVG Export Plug-In . SVG Version: 6.00 Build 0)  -->
<svg version="1.1" id="Layer_1" xmlns="http://www.w3.org/2000/svg" xmlns:xlink="http://www.w3.org/1999/xlink" x="0px" y="0px"
	 viewBox="0 0 280.47 471.94" style="enable-background:new 0 0 280.47 471.94;" xml:space="preserve">
<style type="text/css">
	.st0{fill:#C18CAA;}
	.st1{fill:#702A77;}
	.st2{fill:#29316F;}
	.st3{fill:#2F52A4;}
	.st4{fill:#B7CAE9;}
	.st5{fill:#6B8FC9;}
	.st6{fill:#B3C6E6;}
	.st7{fill:#698BC7;}
	.st8{fill:#262C6A;}
	.st9{fill:#B2C6E6;}
	.st10{fill:#B2C7E7;}
	.st11{fill:#B0C4E5;}
	.st12{fill:#6389C6;}
	.st13{fill:#1F2458;}
	.st14{fill:#1D2054;}
	.st15{fill:#1F2258;}
	.st16{fill:#22265F;}
	.st17{fill:#631B41;}
	.st18{fill:#9F4A7A;}
	.st19{fill:#A04C7B;}
	.st20{fill:#E1C2D5;}
	.st21{fill:#DFBED2;}
	.st22{fill:#DEBCD1;}
	.st23{fill:#B9759C;}
	.st24{fill:#DEBDD1;}
	.st25{fill:#A2507E;}
	.st26{fill:#E0BFD4;}
	.st27{fill:#A35380;}
	.st28{fill:#B7719A;}
	.st29{fill:#E0C0D4;}
	.st30{fill:#C38BAB;}
	.st31{fill:#CB99B6;}
	.st32{fill:#BA9BAB;}
	.st33{fill:#EFD8E5;}
	.st34{fill:#BC7FA2;}
	.st35{fill:#CB9AB6;}
	.st36{fill:#F598AF;}
	.st37{fill:#7B2731;}
	.st38{fill:#AC2330;}
	.st39{fill:#F05A77;}
	.st40{fill:#F8B9C8;}
	.st41{fill:#F7BBCA;}
	.st42{fill:#F492A6;}
	.st43{fill:#F8B9C9;}
	.st44{fill:#EA2531;}
	.st45{fill:#F5B9C8;}
	.st46{fill:#EB2D36;}
	.st47{fill:#F8B8C2;}
	.st48{fill:#F4888A;}
	.st49{fill:#F6A6B5;}
	.st50{fill:#F15E74;}
	.st51{fill:#F16B87;}
	.st52{fill:#EF5E57;}
	.st53{fill:#F1686E;}
	.st54{fill:#EF475A;}
	.st55{fill:#E12F3B;}
	.st56{fill:#EF4663;}
	.st57{fill:#EE3451;}
	.st58{fill:#EC2E45;}
	.st59{fill:#F04E64;}
	.st60{fill:#EC233A;}
	.st61{fill:#41171B;}
	.st62{fill:#C9A1CB;}
	.st63{fill:#904A9A;}
	.st64{fill:#F7F3F8;}
	.st65{fill:#96539F;}
	.st66{fill:#9A59A3;}
	.st67{fill:#924C9C;}
	.st68{fill:none;stroke:#924C9C;stroke-width:2;stroke-linecap:round;stroke-miterlimit:10;}
</style>
<g>
	<path class="st1" d="M258.48,361.27c-0.3,3.85-3.17,5.99-10.83,4.36c0.05,0.01,0.09,0.02,0.14,0.02c-0.13-0.02-0.26-0.05-0.4-0.08
		c-0.05-0.01-0.09-0.02-0.14-0.03c-0.25-0.05-0.5-0.1-0.76-0.17c-1.81-0.45-3.78-0.5-5.64-0.36c-2.77,0.21-5.52,0.74-8.27,1.14
		c-10.13-3.3-20.04-6.92-28.07-14.43c-4.22-3.94-8.71-7.67-13.46-10.93c-6.88-4.73-12.1-10.71-13.72-18.86
		c-1.57-7.91-1.99-16.05-2.92-24.08c0.29-1.62,0.84-3.23,0.82-4.84c-0.17-11.27,1.88-22.1,5.72-32.67
		c2.6-7.16,4.92-14.43,7.36-21.64c3.39-9.55,6.64-19.15,10.28-28.6c0.78-2.03,2.94-3.54,4.49-5.27c2.27-2.55,5.6-4.71,6.64-7.68
		c2.31-6.53,4.38-13.41,4.88-20.26c0.64-8.81,0.22-18.44-8.66-23.45c-4.47-2.53-5.5-5.47-5.85-9.69c-0.22-2.65-0.41-5.33-0.96-7.92
		c-3.09-14.58-6.8-28.8-19.27-38.82c-10.35-8.33-21.36-14.84-35.19-14.22c-2.42,0.11-5.51,0.97-7,2.64
		c-3.26,3.64-6.44,3.89-10.67,2.22c-7.69-3.02-15.35-3.16-22.23,2.13c-6.05,4.65-11.85,9.64-17.77,14.48
		c-8.97-4.43-9.25-4.26-17.12,10.44c-0.05-2.57-0.13-5.28,0.79-7.59c1.67-4.21-0.46-7.26-3.32-8.89c-2.35-1.36-6.13-1.6-8.76-0.75
		c-3.47,1.13-4.73,4.85-3.73,8.32c1.44,5.03,3.55,9.86,5.45,14.98c-4.84,1.93-5.4-4.25-8.96-6.32c-1.42,1.14-3.18,2.15-4.41,3.61
		c-3.47,4.09-3.38,9.78-0.02,13.19c3.2,3.24,7.28,3.12,12.01-0.23c1.45-1.03,3.09-1.78,4.64-2.66c0.3,0.44,0.61,0.89,0.91,1.33
		c-2.13,1.97-4.11,4.16-6.44,5.86c-2.75,2-4.82,4-3.73,7.78c1.13,3.93,3.43,6.38,7.7,6.61c-1,1.21-1.82,3.19-3.03,3.48
		c-6.78,1.6-10.39,4.38-10.57,11.19c-0.21,7.7,0.62,15.5,1.77,23.15c0.74,4.99,4.33,8.38,9.1,10.45c1.27,0.55,2.67,1.93,3.04,3.21
		c5.36,18.42,13.65,35.18,26.97,49.21c0.39,0.34,0.77,0.67,1.16,1.01l0.04-0.08c1.14,5.91,3.2,11.82,3.24,17.74
		c0.09,13.52-0.81,27.05-1.31,40.58c-3.05,14.75-12.67,24.62-25.17,31.5c-9.54,5.25-20.03,8.76-29.96,13.35
		c-3.7,1.71-7.31,2.59-11.04,2.03c-0.57-0.08-1.15-0.2-1.72-0.36c-0.2-0.05-0.39-0.11-0.58-0.17c-0.26-0.07-0.52-0.16-0.78-0.26
		c-0.26-0.1-0.51-0.2-0.77-0.31c-0.26-0.18-0.5-0.38-0.74-0.58c-2.92-2.45-4.32-5.58-4.71-9.09c-1.37-12.23,9.63-29.14,12.19-38.57
		c7.47-27.53-2.69-54.36-6.48-81.54c-0.08-0.55-0.15-1.1-0.22-1.64c-0.15-1.1-0.28-2.2-0.4-3.3c-2.61-24.25-2.96-48.76-4.07-73.17
		c-0.24-5.13-0.17-10.4,0.76-15.43c5.64-30.47,11.82-59.81,33.84-82.05c5.96-4.27,11.93-8.53,17.76-12.96
		c4.86-3.69,9.96-6.67,15.3-8.98c0.08-0.04,0.16-0.08,0.24-0.1c3.38-1.37,6.83-2.55,10.32-3.55c5.38-1.41,10.97-2.24,16.76-2.53
		c1.31-0.06,2.57-0.73,3.86-1.22c0.19-0.02,0.37-0.04,0.56-0.05c5.18-0.4,10.38-0.44,15.57-0.12h-0.65c1.12,0.45,2.23,1.2,3.38,1.29
		c5.93,0.45,11.87,0.95,17.7,1.85c10.07,1.56,19.81,4.31,28.58,10.1c11.43,7.55,21.88,16.58,32.68,25.06c1.26,0.98,2,2.64,2.9,4.04
		c9.76,15.17,16.35,31.55,18.93,49.46c0.94,6.59,1.74,13.2,2.56,19.81c3.3,26.68,4.41,53.22-0.22,80.04
		c-4.15,24.08-7.93,48.31-7.71,72.85c0.25,1.71,0.53,3.42,0.84,5.13c2.8,15.47,7.98,30.33,15.17,44.31
		c1.22,2.37,4.38,7.36,7.07,12.67c0.77,0.91,1.57,1.8,2.38,2.68C259.61,353.39,260.69,357.31,258.48,361.27z"/>
	<path class="st1" d="M247.79,365.65c-0.05,0-0.09-0.01-0.14-0.02c-0.08-0.02-0.17-0.04-0.26-0.06
		C247.53,365.6,247.66,365.63,247.79,365.65z"/>
	<path class="st1" d="M85.63,28.35c-5.34,2.31-10.44,5.29-15.3,8.98c-5.83,4.43-11.8,8.69-17.76,12.96c1.59-1.62,3.27-3.2,5.05-4.74
		C66.16,38.14,75.63,32.42,85.63,28.35z"/>
	<path class="st1" d="M247.79,365.65c-0.05,0-0.09-0.01-0.14-0.02c-0.08-0.02-0.17-0.04-0.26-0.06
		C247.53,365.6,247.66,365.63,247.79,365.65z"/>
	<path class="st62" d="M204.51,351.72c-4.22-3.94-8.71-7.67-13.46-10.93c-6.88-4.73-12.1-10.71-13.72-18.86
		c-1.57-7.91-1.99-16.05-2.92-24.08c-0.21-1.93-0.41-3.85-0.72-6.74c-2.1,1.24-3.57,2.06-4.99,2.96c-8.96,5.65-17.61,11.88-27,16.7
		c-3.49,1.8-9.1,1.47-13,0.04c-6.62-2.43-12.84-6.18-18.86-9.95c-5.41-3.39-10.34-7.55-16.01-11.77c-0.5,7.38-0.96,14.08-1.41,20.79
		c-3.05,14.75-12.67,24.62-25.17,31.5c-9.54,5.25-20.03,8.76-29.96,13.35c-3.7,1.71-7.31,2.59-11.04,2.03
		c-0.57-0.08-1.15-0.2-1.72-0.36c-0.2-0.05-0.39-0.11-0.58-0.17c-0.26-0.07-0.52-0.16-0.78-0.26c-0.25-0.09-0.5-0.18-0.75-0.29
		c-0.36,3.64-0.7,7.28-1.07,10.92c-0.82,8.12,0.56,15.43,6.64,21.58c2.24,2.27,3.38,5.64,4.98,8.53c1.51,2.72,2.4,6.04,4.52,8.12
		c10.34,10.11,20.57,20.4,31.64,29.68c16.29,13.67,35.9,18.64,56.77,17.98c18.39-0.58,36.05-4.34,52.26-13.99
		c11.62-6.92,23.37-13.45,32.04-24.16c10.82-13.38,21.56-26.81,21.46-45.38c0-0.94,0.6-1.88,0.92-2.81
		C222.45,362.85,212.54,359.23,204.51,351.72z M114.61,388.46c-6.09-3.14-12.06-6.49-18.07-9.78c0.24-0.62,0.47-1.24,0.71-1.85
		c1.99,0.37,4.15,0.35,5.93,1.18c4.49,2.09,8.85,4.47,13.14,6.94c0.73,0.43,0.88,1.87,1.3,2.85
		C116.6,388.05,115.31,388.83,114.61,388.46z M149.92,392.06c-0.4-0.59-0.81-1.17-1.21-1.76c4.06-5.15,9.7-7.88,15.62-10.16
		l0.99,1.47C160.19,385.09,155.05,388.58,149.92,392.06z"/>
	<path class="st63" d="M188.31,238.7c-2.44,7.21-4.76,14.48-7.36,21.64c-3.84,10.57-5.89,21.4-5.72,32.67
		c0.02,1.61-0.53,3.22-0.82,4.84c-0.21-1.93-0.41-3.85-0.72-6.74c-2.1,1.24-3.57,2.06-4.99,2.96c-8.96,5.65-17.61,11.88-27,16.7
		c-3.49,1.8-9.1,1.47-13,0.04c-6.62-2.43-12.84-6.18-18.86-9.95c-5.41-3.39-10.34-7.55-16.01-11.77c-0.5,7.38-0.96,14.08-1.41,20.79
		c0.5-13.53,1.4-27.06,1.31-40.58c-0.04-5.92-2.1-11.83-3.24-17.74c8.19,3.51,16.3,7.25,24.61,10.46
		c5.23,2.01,10.68,3.75,16.19,4.66c9.47,1.57,18-0.97,26.52-5.8C168.89,254.59,178.55,246.64,188.31,238.7z"/>
	<path class="st64" d="M87.95,138.63c-0.23,0.69-0.54,1.36-0.95,1.99c-2.09,0.79-4.3,1.92-6.54,2.12c-1.37,0.12-2.85-0.22-3.81-1.21
		c-1.28-1.33-1.3-3.38-1.51-5.22c-0.15-1.35-0.37-2.75-1.02-3.9c-1.54,3.09-1,7.27-2.61,10.59c-1.9,3.9-5.29,6.11-9.5,6.94
		c-4.27-0.23-6.57-2.68-7.7-6.61c-1.09-3.78,0.98-5.78,3.73-7.78c2.33-1.7,4.31-3.89,6.44-5.86c-0.3-0.44-0.61-0.89-0.91-1.33
		c-1.55,0.88-3.19,1.63-4.64,2.66c-4.73,3.35-8.81,3.47-12.01,0.23c-3.36-3.41-3.45-9.1,0.02-13.19c1.23-1.46,2.99-2.47,4.41-3.61
		c3.56,2.07,4.12,8.25,8.96,6.32c-1.9-5.12-4.01-9.95-5.45-14.98c-1-3.47,0.26-7.19,3.73-8.32c2.63-0.85,6.41-0.61,8.76,0.75
		c2.86,1.63,4.99,4.68,3.32,8.89c-0.92,2.31-0.84,5.02-0.79,7.59C77.75,100,78.03,99.83,87,104.26c2.77,4.92,3.07,10.7,0.67,15.83
		c-2.57-0.33-5.32-1.47-7.87-2.25c-0.82-0.25-1.52-0.46-2.25-0.11c-0.52,0.25,6.51,6.58,6.87,7.02
		C87.42,128.41,89.5,133.94,87.95,138.63z"/>
	<path class="st65" d="M97.25,376.82c1.99,0.37,4.15,0.36,5.93,1.18c4.49,2.09,8.85,4.47,13.14,6.94c0.74,0.42,0.88,1.87,1.3,2.85
		c-1.02,0.25-2.31,1.03-3.01,0.67c-6.08-3.15-12.06-6.5-18.07-9.79C96.78,378.06,97.02,377.44,97.25,376.82z"/>
	<path class="st66" d="M148.71,390.29c4.06-5.15,9.7-7.88,15.63-10.16c0.33,0.49,0.66,0.98,0.98,1.47
		c-5.13,3.48-10.27,6.97-15.4,10.45C149.52,391.47,149.11,390.88,148.71,390.29z"/>
	<path class="st62" d="M214.6,176.89c-0.5,6.85-2.57,13.73-4.88,20.26c-1.04,2.97-4.37,5.13-6.64,7.68
		c-1.55,1.73-3.71,3.24-4.49,5.27c-3.64,9.45-6.89,19.05-10.28,28.6c-9.76,7.94-19.42,15.89-30.5,22.18
		c-8.52,4.83-17.05,7.37-26.52,5.8c-5.51-0.91-10.96-2.65-16.19-4.66c-8.31-3.21-16.42-6.95-24.61-10.46l-0.04,0.08
		c-0.39-0.34-0.77-0.67-1.16-1.01c-13.32-14.03-21.61-30.79-26.97-49.21c-0.37-1.28-1.77-2.66-3.04-3.21
		c-4.77-2.07-8.36-5.46-9.1-10.45c-1.15-7.65-1.98-15.45-1.77-23.15c0.18-6.81,3.79-9.59,10.57-11.19c1.21-0.29,2.03-2.27,3.03-3.48
		c10.56-2.07,10.97-10.48,11.89-18.84c0.76,2.04,1.17,4.05,1.31,6.07c0.32,4.79,2.51,6.44,7.15,5.15c1.58-0.44,3.1-1.12,4.64-1.7
		c0,0.01,0,0.03,0.01,0.04c0.47-0.68,0.99-1.41,1.5-2.14c-0.09,0.08-0.19,0.14-0.28,0.21c0.81-9.24-1.99-16.46-11.61-19.9
		c0.25-0.51,0.5-1.03,0.75-1.55c3.32,0.95,6.64,1.89,10.26,2.92c2.39-5.31,2.35-10.65-0.63-15.94c5.92-4.84,11.72-9.83,17.77-14.48
		c6.88-5.29,14.54-5.15,22.23-2.13c4.23,1.67,7.41,1.42,10.67-2.22c1.49-1.67,4.58-2.53,7-2.64c13.83-0.62,24.84,5.89,35.19,14.22
		c12.47,10.02,16.18,24.24,19.27,38.82c0.55,2.59,0.74,5.27,0.96,7.92c0.35,4.22,1.38,7.16,5.85,9.69
		C214.82,158.45,215.24,168.08,214.6,176.89z"/>
	<path class="st67" d="M177.51,165.89c-0.24,0.14-0.5,0.21-0.76,0.21c-0.51,0-1.01-0.27-1.29-0.74c-0.81-1.38-1.77-2.53-2.85-3.44
		c0.65,1.32,1.03,2.96,1.03,4.74c0,4.34-2.25,7.85-5.02,7.85c-2.77,0-5.01-3.51-5.01-7.85c0-3.14,1.17-5.84,2.87-7.09
		c-1.89-0.05-3.62,0.41-4.93,0.91c-0.78,0.29-1.64-0.09-1.94-0.87c-0.29-0.77,0.1-1.64,0.87-1.93c3.6-1.37,7.14-1.48,10.24-0.32
		c2.94,1.1,5.47,3.34,7.32,6.47C178.46,164.55,178.23,165.47,177.51,165.89z"/>
	<path class="st67" d="M104.72,159.25c-0.25,0.79-1.08,1.24-1.88,1c-1.4-0.43-2.77-0.64-4.08-0.63c1.66,1.28,2.8,3.95,2.8,7.04
		c0,4.34-2.25,7.85-5.02,7.85s-5.02-3.51-5.02-7.85c0-1.97,0.47-3.77,1.25-5.15c-1.85,1.32-3.08,3.12-3.84,4.56
		c-0.27,0.52-0.79,0.81-1.33,0.81c-0.23,0-0.47-0.06-0.7-0.17c-0.73-0.39-1.01-1.3-0.63-2.03c1.81-3.43,4.41-5.9,7.54-7.14
		c2.97-1.17,6.39-1.23,9.91-0.16C104.51,157.62,104.96,158.46,104.72,159.25z"/>
	<path class="st68" d="M126.86,185.44c0.31-0.66,2.74-5.67,7.09-6c4.89-0.37,7.78,5.54,8,6"/>
	<path class="st67" d="M132.67,214.61c-5.41,0-10.93-1.11-16.25-3.31c-0.77-0.32-1.13-1.19-0.82-1.96s1.19-1.13,1.96-0.82
		c6.94,2.86,14.23,3.75,21.08,2.57c7.23-1.24,14.07-4.79,19.79-10.26c0.6-0.57,1.55-0.55,2.12,0.05c0.57,0.6,0.55,1.55-0.05,2.12
		c-6.16,5.88-13.54,9.7-21.36,11.04C137.03,214.43,134.86,214.61,132.67,214.61z"/>
	<path class="st67" d="M84.69,152.85c-0.19,0-0.39-0.06-0.56-0.17c-0.46-0.31-0.58-0.93-0.26-1.39c2.42-3.56,5.68-6.23,9.4-7.73
		c3.54-1.42,7.53-1.78,11.54-1.04c0.54,0.1,0.9,0.62,0.8,1.16c-0.1,0.54-0.62,0.91-1.16,0.8c-3.64-0.66-7.25-0.34-10.44,0.93
		c-4.24,1.7-6.96,4.74-8.49,6.99C85.32,152.7,85.01,152.85,84.69,152.85z"/>
	<path class="st67" d="M180.54,151.92c-0.3,0-0.6-0.13-0.79-0.39c-2.26-2.94-5.16-5.11-8.38-6.3c-3.39-1.25-7.19-1.42-10.99-0.49
		c-0.54,0.13-1.08-0.2-1.21-0.73c-0.13-0.54,0.2-1.08,0.73-1.21c4.19-1.02,8.39-0.83,12.16,0.56c3.57,1.32,6.78,3.72,9.27,6.96
		c0.34,0.44,0.26,1.07-0.18,1.4C180.96,151.85,180.75,151.92,180.54,151.92z"/>
</g>
</svg>
