<svg id="Layer_1" data-name="Layer 1" xmlns="http://www.w3.org/2000/svg" viewBox="0 0 718.19 583.98"><defs><style>.cls-1{fill:#facdd3;}.cls-2,.cls-3{fill:#010101;}.cls-2{opacity:0.05;}.cls-11,.cls-13,.cls-14,.cls-2,.cls-3{isolation:isolate;}.cls-3{opacity:0.1;}.cls-4{fill:#dce5f1;}.cls-10,.cls-12,.cls-5,.cls-7{fill:none;stroke-miterlimit:10;}.cls-5{stroke:#f16681;}.cls-10,.cls-5,.cls-7{stroke-width:2px;}.cls-6{fill:#f16681;}.cls-7{stroke:#ffd139;}.cls-8{fill:#ffd139;}.cls-9{fill:#2d51a3;}.cls-10,.cls-12{stroke:#545562;}.cls-11,.cls-14{fill:#fff;}.cls-11{opacity:0.4;}.cls-13{fill:#f5f6f6;}.cls-13,.cls-14{opacity:0.2;}</style></defs><title>Artboard 1 copy</title><path class="cls-1" d="M158.73,195.39l14,52.47,13.16,61.47s7.09,13.1,0,40.31l23.29,75.58s13.16,48.37,21.26,49.38-8.1,38.3-8.1,38.3l-22.28-13.1s-6.08-30.23-14.18-37.29-34.43-77.6-34.43-77.6l-8.1-49.38S118,268,95.76,251.88s-29.37-42.33-29.37-42.33Z"/><path class="cls-2" d="M66.42,209.57s7.09,26.2,29.37,42.33,47.59,83.65,47.59,83.65l8.1,49.38s26.33,70.54,34.43,77.6c5.94,5.18,10.8,22.85,13,31.88.79,3.28,1.22,5.41,1.22,5.41l22.28,13.1s16.2-37.29,8.1-38.3c-1.26-.15-2.63-1.45-4.07-3.53-7.8-11.31-17.19-45.85-17.19-45.85L186,349.66c7.09-27.21,0-40.31,0-40.31L172.8,247.88l-14-52.46Z"/><path class="cls-3" d="M198.86,494.39c.79,3.28,1.22,5.41,1.22,5.41l22.28,13.1s16.2-37.29,8.1-38.3c-1.26-.15-2.63-1.45-4.07-3.53a5.68,5.68,0,0,0-2.59,6.28,15.7,15.7,0,0,0,1.6,4.3c3,5-10.13,13.1-10.13,13.1C210.83,500.44,203.63,497.45,198.86,494.39Z"/><path class="cls-4" d="M224.81,479.38a5.88,5.88,0,0,1,10-5.35,19.45,19.45,0,0,1,2.72,3.6c4.05,7.05,34.43,13.1,40.5,11.09s27.34-4,22.28,11.09-96.18,37.29-96.18,37.29S194,523,195,512.91a115,115,0,0,0,0-20.16s14.18,13.1,21.26,4c0,0,13.16-8.06,10.13-13.1A15.55,15.55,0,0,1,224.81,479.38Z"/><path class="cls-5" d="M285.44,159.79s55.48,108.91,10.27,168.5,4.11,221.93,4.11,221.93"/><path class="cls-6" d="M301.88,125.88c0,21-15.41,38-15.41,38s-15.41-17-15.41-38,15.41-38,15.41-38S301.88,104.89,301.88,125.88Z"/><path class="cls-7" d="M314.21,159.79s-55.48,108.91-10.27,168.5-4.11,221.93-4.11,221.93"/><path class="cls-8" d="M297.77,125.88c0,21,15.41,38,15.41,38s15.41-17,15.41-38-15.41-38-15.41-38S297.77,104.89,297.77,125.88Z"/><path class="cls-5" d="M336.81,159.79s55.48,108.91,10.28,168.5,4.11,221.93,4.11,221.93"/><path class="cls-6" d="M353.25,125.88c0,21-15.41,38-15.41,38s-15.41-17-15.41-38,15.41-38,15.41-38S353.25,104.89,353.25,125.88Z"/><path class="cls-6" d="M344.61,213.1c-14.56,15.13-37.46,16.71-37.46,16.71s.69-23,15.25-38.08,37.46-16.63,37.46-16.63S359.17,198,344.61,213.1Z"/><path class="cls-6" d="M346.06,288.27C331.5,303.4,308.6,305,308.6,305s.69-23,15.25-38.08,37.46-16.71,37.46-16.71S360.61,273.1,346.06,288.27Z"/><path class="cls-6" d="M267.12,329.61c13.76,15.85,13.28,38.81,13.28,38.81s-22.8-2.75-36.56-18.6S230.56,311,230.56,311,253.36,313.76,267.12,329.61Z"/><path class="cls-6" d="M279.89,169.38c17.5,11.6,23.17,33.85,23.17,33.85s-22.7,3.44-40.2-8.15-23.17-33.85-23.17-33.85S262.39,157.79,279.89,169.38Z"/><path class="cls-7" d="M365.58,159.79S310.1,268.7,355.31,328.29s-4.11,221.93-4.11,221.93"/><path class="cls-8" d="M349.14,125.88c0,21,15.41,38,15.41,38s15.41-17,15.41-38-15.41-38-15.41-38S349.14,104.89,349.14,125.88Z"/><path class="cls-8" d="M353.57,214.76c-14.74,15-15.71,37.89-15.71,37.89s22.92-1.31,37.66-16.26,15.71-37.89,15.71-37.89S368.31,199.8,353.57,214.76Z"/><path class="cls-9" d="M441.57,183.76c-14.74,15-15.71,37.89-15.71,37.89s22.92-1.31,37.66-16.26,15.71-37.89,15.71-37.89S456.31,168.8,441.57,183.76Z"/><path class="cls-8" d="M382.47,318.79c-14.74,15-15.71,37.89-15.71,37.89s22.92-1.31,37.66-16.26,15.71-37.89,15.71-37.89S397.21,303.83,382.47,318.79Z"/><path class="cls-7" d="M340,295.92s33.4-52.64,80.27-53.77"/><path class="cls-5" d="M314,264.1s-33.4-52.64-80.27-53.77"/><path class="cls-7" d="M309.62,339.27s33.4-52.64,80.27-53.77"/><circle class="cls-8" cx="418.7" cy="241.74" r="8.67"/><circle class="cls-6" cx="234.48" cy="210.68" r="8.67"/><path class="cls-5" d="M334.18,356.61s-33.4-52.64-80.27-53.77"/><circle class="cls-6" cx="254.71" cy="303.15" r="8.67"/><circle class="cls-8" cx="390.52" cy="285.81" r="8.67"/><path class="cls-9" d="M555.85,79.87s-23,187,0,302-116.24,164.5-116.24,164.5H643.85S671.85,173.87,555.85,79.87Z"/><path class="cls-10" d="M555.85,79.87s58.15,161.07,49.57,243-20.57,225-20.57,225"/><path class="cls-9" d="M410.79,545.49s-147.14-32.9,40.08-225.39c0,0,80.7,76.49,51.1,171.57-11.9,38.23-50.2,61.83-89,54.27Z"/><path class="cls-11" d="M410.79,545.49c-3.23-.72-144-36.15,40.08-225.39,0,0,80.7,76.49,51.1,171.57-11.9,38.23-50.2,61.83-89,54.27Z"/><path class="cls-12" d="M412.72,546.58s77.72-117.09,38.15-226.48"/><path class="cls-9" d="M526.44,42.87S451.33,118,493.73,229.43,421,526.24,421,526.24s1.23-.18,3.52-.58C578.82,498.43,655.48,322,569.69,190.92,537.81,142.19,511.63,85,526.44,42.87Z"/><path class="cls-3" d="M526.44,42.87S451.33,118,493.73,229.43,421,526.24,421,526.24s1.23-.18,3.52-.58C578.82,498.43,655.48,322,569.69,190.92,537.81,142.19,511.63,85,526.44,42.87Z"/><path class="cls-12" d="M526.44,42.87s-42.4,92.07,0,167.18S533.71,496,421,526.24"/><path class="cls-9" d="M660.22,346.66S574.51,333,566.7,409.82s-164.81,87.46-164.81,87.46,1,.7,2.94,2c129.63,85.1,253.55,54.21,234.87-58.79C632.76,398.44,633.33,356.25,660.22,346.66Z"/><path class="cls-13" d="M660.22,346.66S574.51,333,566.7,409.82s-164.81,87.46-164.81,87.46,1,.7,2.94,2c129.63,85.1,253.55,54.21,234.87-58.79C632.76,398.44,633.33,356.25,660.22,346.66Z"/><path class="cls-12" d="M660.22,346.66s-66.53,14.6-61.07,75.09-98.79,133-197.27,75.53"/><path class="cls-10" d="M599.34,548.22s-36.47-123.83,6.84-215C624.36,295,630.4,252,622,210.52a328.78,328.78,0,0,0-17.37-57.59"/><path class="cls-9" d="M631.58,95.35c0,15.18-27.48,59.19-27.48,59.19s-27.48-44-27.48-59.19a27.5,27.5,0,0,1,55,0Z"/><path class="cls-9" d="M677,179.41c-8.25,12.74-55.23,34.75-55.23,34.75s.85-51.88,9.1-64.62a27.48,27.48,0,1,1,46.48,29.34Z"/><path class="cls-9" d="M675,323.1c-13.55,6.83-65.22,2.11-65.22,2.11s26.92-44.35,40.47-51.18A27.48,27.48,0,0,1,675,323.1Z"/><path class="cls-9" d="M649,431.42c-12.2,9-63.92,13.1-63.92,13.1s19-48.26,31.24-57.29A27.48,27.48,0,1,1,649,431.42Z"/><path class="cls-9" d="M564.07,217.1c10.89,10.57,61.6,21.53,61.6,21.53s-12.42-50.38-23.31-60.95a27.48,27.48,0,0,0-38.29,39.42Z"/><path class="cls-9" d="M535.29,344.2c13.55,6.83,65.22,2.11,65.22,2.11S573.59,302,560,295.1a27.48,27.48,0,0,0-24.74,49.07Z"/><path class="cls-9" d="M524.28,471.58c12.2,9,63.92,13.1,63.92,13.1s-19-48.26-31.24-57.29a27.48,27.48,0,1,0-33.37,43.67l.69.51Z"/><path class="cls-6" d="M631.58,95.35c0,15.18-27.48,59.19-27.48,59.19s-27.48-44-27.48-59.19a27.5,27.5,0,0,1,55,0Z"/><path class="cls-6" d="M677,179.41c-8.25,12.74-55.23,34.75-55.23,34.75s.85-51.88,9.1-64.62a27.48,27.48,0,1,1,46.48,29.34Z"/><path class="cls-6" d="M675,323.1c-13.55,6.83-65.22,2.11-65.22,2.11s26.92-44.35,40.47-51.18A27.48,27.48,0,0,1,675,323.1Z"/><path class="cls-6" d="M649,431.42c-12.2,9-63.92,13.1-63.92,13.1s19-48.26,31.24-57.29A27.48,27.48,0,1,1,649,431.42Z"/><path class="cls-6" d="M564.07,217.1c10.89,10.57,61.6,21.53,61.6,21.53s-12.42-50.38-23.31-60.95a27.48,27.48,0,0,0-38.29,39.42Z"/><path class="cls-6" d="M535.29,344.2c13.55,6.83,65.22,2.11,65.22,2.11S573.59,302,560,295.1a27.48,27.48,0,0,0-24.74,49.07Z"/><path class="cls-6" d="M524.28,471.58c12.2,9,63.92,13.1,63.92,13.1s-19-48.26-31.24-57.29a27.48,27.48,0,1,0-33.37,43.67l.69.51Z"/><path class="cls-9" d="M598.69,527.1c5.72-5.32,11.09-11.59,12.74-19.23s-1.61-16.8-8.9-19.59c-8.18-3.13-16.92,2.54-23.54,8.26s-14.22,12.26-22.89,11a34.84,34.84,0,0,0,10.78-32.61,13.63,13.63,0,0,0-3-6.62c-4.54-4.85-12.77-2.77-18.2,1.05-17.29,12.16-22.11,35.64-22.2,56.77-1.74-7.62-.27-15.57-.32-23.39s-2.17-16.47-8.79-20.64c-3.92-2.49-8.75-3-13.39-3.15-7.77-.29-16.42.49-21.73,6.18-6.59,7.06-4.88,18.91.85,26.68s14.46,12.64,22.49,18c6.12,4.09,12.31,8.87,16.07,15.33a14.47,14.47,0,0,1,1.19,2.74h48.71A135.34,135.34,0,0,0,598.69,527.1Z"/><path class="cls-9" d="M415.87,534c4.34-3.29,8.42-7.18,9.67-11.91A10.07,10.07,0,0,0,418.78,510c-6.21-1.94-12.84,1.57-17.86,5.12s-10.79,7.59-17.37,6.84c6.82-4.92,10.06-12.92,8.18-20.19a7.79,7.79,0,0,0-2.27-4.1c-3.44-3-9.69-1.71-13.81.65-13.12,7.53-16.78,22.06-16.85,35.15-1.32-4.72-.21-9.64-.24-14.48s-1.66-10.21-6.66-12.81c-3-1.54-6.64-1.84-10.16-1.95-5.9-.18-12.46.31-16.49,3.82-5,4.37-3.71,11.71.65,16.52s11,7.83,17.07,11.15c4.64,2.53,9.34,5.49,12.2,9.49a8.38,8.38,0,0,1,.9,1.7h37A106.27,106.27,0,0,0,415.87,534Z"/><path class="cls-9" d="M33.74,212.46C26,219.35,18.25,230.1,22,245.1c7.39,29.52,44.63,31.2,55.23,60.18,3.17,8.68,2.86,17.62,1.23,25.07-3.19,14.57-10.84,25-16.59,37.23s-9.65,28.09-4.81,45.36c4.66,16.62,16.49,30.62,28.43,39.05s24.31,12.46,36.53,17.83a236.29,236.29,0,0,1,42.44,24.49c5.87,4.21,11.77,8.83,16.87,15.13,5.81,7.18,10.22,16.11,14.52,24.86,2.13,4.34,1.56,13,6.4,13,123.61-.42,37-.48,97.68-.19,10.79,0,26.23.12,48.34.19,23.53.08,19.29-42.38,16.19-70-4.4-39.12-37.28-71.36-53.66-109.46-11.74-27.3-14.5-56.76-24.32-84.75-14.15-40.33-42.26-74.47-71.66-94.82s-60-28.33-89.12-31c-12.32-1.14-24.73-1.34-35.07,3.88-11,5.55-13.54,19.52-22,28.13C58.86,199.33,44.27,203.1,33.74,212.46Z"/><path class="cls-14" d="M33.74,212.46C26,219.35,18.25,230.1,22,245.1c7.39,29.52,44.63,31.2,55.23,60.18,3.17,8.68,2.86,17.62,1.23,25.07-3.19,14.57-10.84,25-16.59,37.23s-9.65,28.09-4.81,45.36c4.66,16.62,16.49,30.62,28.43,39.05s24.31,12.46,36.53,17.83a236.29,236.29,0,0,1,42.44,24.49c5.87,4.21,11.77,8.83,16.87,15.13,5.81,7.18,10.22,16.11,14.52,24.86,2.13,4.34,1.56,13,6.4,13,123.61-.42,37-.48,97.68-.19,10.79,0,26.23.12,48.34.19,23.53.08,19.29-42.38,16.19-70-4.4-39.12-37.28-71.36-53.66-109.46-11.74-27.3-14.5-56.76-24.32-84.75-14.15-40.33-42.26-74.47-71.66-94.82s-60-28.33-89.12-31c-12.32-1.14-24.73-1.34-35.07,3.88-11,5.55-13.54,19.52-22,28.13C58.86,199.33,44.27,203.1,33.74,212.46Z"/><path class="cls-10" d="M82.43,168.38S214.09,359.1,299.87,547.21"/><path class="cls-10" d="M22.67,246.85s117.51,1.41,172.55,101"/><path class="cls-10" d="M60.07,421.34s145.7-58.68,175.69-1.62"/><path class="cls-10" d="M214.53,187.58s-30,61.21-10.88,174.84"/><path class="cls-10" d="M364,478.34s-22,39.66-101.82-8.7"/><path class="cls-9" d="M490.21,366.18S512.32,395.1,480,438.75s-59,80.51-48.19,107.72c0,0,48.76-81.08,88.45-82.21S533.86,414.94,490.21,366.18Z"/><path class="cls-3" d="M490.21,366.18a36,36,0,0,1,4.52,9.07c38.72,45.5,59.35,88,22.13,89-34.67,1-76.26,63-86.22,78.65a33.73,33.73,0,0,0,1.18,3.56s48.76-81.08,88.45-82.21S533.86,414.94,490.21,366.18Z"/><path class="cls-8" d="M531.31,403c0,10.18-1.14,18.43-2.55,18.43s-2.55-8.25-2.55-18.43,1.43-5.39,2.83-5.39S531.31,392.85,531.31,403Z"/><path class="cls-8" d="M545.42,415.18c-8.94,4.87-16.73,7.82-17.4,6.58s6-6.19,15-11.06,5.41-1.33,6.09-.09S554.35,410.31,545.42,415.18Z"/><path class="cls-9" d="M373.41,366.18s-22.11,28.92,10.21,72.57,59,80.51,48.19,107.72c0,0-48.76-81.08-88.45-82.21S329.76,414.94,373.41,366.18Z"/><path class="cls-3" d="M373.41,366.18a36,36,0,0,0-4.52,9.07c-38.72,45.5-59.35,88-22.13,89,34.67,1,76.26,63,86.22,78.65a33.73,33.73,0,0,1-1.18,3.56S383,465.38,343.35,464.25,329.76,414.94,373.41,366.18Z"/><path class="cls-8" d="M332.31,403c0,10.18,1.14,18.43,2.55,18.43s2.55-8.25,2.55-18.43-1.43-5.39-2.83-5.39S332.31,392.85,332.31,403Z"/><path class="cls-8" d="M318.2,415.18c8.94,4.87,16.73,7.82,17.4,6.58s-6-6.19-15-11.06-5.41-1.33-6.09-.09S309.27,410.31,318.2,415.18Z"/></svg>