<svg id="Layer_1" data-name="Layer 1" xmlns="http://www.w3.org/2000/svg" viewBox="0 0 695.9 515.12"><defs><style>.cls-1{fill:#2d51a3;}.cls-2,.cls-8{fill:#fff;}.cls-2{opacity:0.2;}.cls-2,.cls-7,.cls-8{isolation:isolate;}.cls-3,.cls-4{fill:none;stroke:#545562;stroke-miterlimit:10;}.cls-4{stroke-width:2px;}.cls-5{fill:#f16681;}.cls-6{fill:#ffd139;}.cls-7{fill:#010101;opacity:0.1;}.cls-8{opacity:0.4;}</style></defs><title>Artboard 1</title><path class="cls-1" d="M32.18,472.34s-33-59,8-106,89-21,89-21,60,28,46,95c0,0-8,34-32,32Z"/><path class="cls-2" d="M32.18,472.34s-33-59,8-106,89-21,89-21,60,28,46,95c0,0-8,34-32,32Z"/><line class="cls-3" x1="84.01" y1="472.42" x2="120.18" y2="362.34"/><path class="cls-3" d="M153.18,379.34s-18.62-8.76-37.31-3.88c0,0-9.69-24.12-31.69-28.12"/><path class="cls-3" d="M162.18,417.34s-31.66-22.88-54.83-15.94c0,0-26.17-31.06-44.17-29.06"/><path class="cls-3" d="M155.18,458.34s-27.06-19.58-60.53-18.27c0,0-25.47-30.71-49.47-32.71"/><path class="cls-3" d="M98.46,472.42a72.17,72.17,0,0,0-12.93-4.63S64.67,440.67,22.92,449.5"/><path class="cls-4" d="M348.4,471.56s-55-89.68-40.32-170.59c6.17-34,1.79-69-13.64-99.91a268.11,268.11,0,0,0-25.91-41.62"/><path class="cls-1" d="M277.49,108.4c3.23,11.94-9,52.41-9,52.41s-31-28.78-34.2-40.72a22.4,22.4,0,0,1,43-12.6c.09.3.18.61.25.92Z"/><path class="cls-1" d="M331.1,164.88C327.32,176.66,295,204,295,204s-10.36-41-6.58-52.77a22.4,22.4,0,0,1,42.65,13.69Z"/><path class="cls-1" d="M360.08,278.33c-9.21,8.26-50.86,15.53-50.86,15.53s11.75-40.62,21-48.88a22.4,22.4,0,1,1,30.57,32.75c-.22.21-.44.41-.67.6Z"/><path class="cls-1" d="M362.67,369.07C355,378.76,315.16,393,315.16,393s4.72-42,12.4-51.72a22.4,22.4,0,0,1,35.11,27.82Z"/><path class="cls-1" d="M250.26,218.54c10.81,6,53,3.84,53,3.84s-20.48-37-31.29-43a22.4,22.4,0,0,0-22.35,38.83l.6.33Z"/><path class="cls-1" d="M254.64,324.66c12.11,2.5,51.76-12.2,51.76-12.2s-30.58-29.17-42.72-31.67a22.4,22.4,0,0,0-9,43.87Z"/><path class="cls-1" d="M273.05,427.22c11.52,4.51,53.08-3.28,53.08-3.28S300.89,390,289.37,385.51a22.4,22.4,0,0,0-16.32,41.71Z"/><path class="cls-5" d="M277.49,108.4c3.23,11.94-9,52.41-9,52.41s-31-28.78-34.2-40.72a22.4,22.4,0,0,1,43-12.6c.09.3.18.61.25.92Z"/><path class="cls-5" d="M331.1,164.88C327.32,176.66,295,204,295,204s-10.36-41-6.58-52.77a22.4,22.4,0,0,1,42.65,13.69Z"/><path class="cls-5" d="M360.08,278.33c-9.21,8.26-50.86,15.53-50.86,15.53s11.75-40.62,21-48.88a22.4,22.4,0,1,1,30.57,32.75c-.22.21-.44.41-.67.6Z"/><path class="cls-5" d="M362.67,369.07C355,378.76,315.16,393,315.16,393s4.72-42,12.4-51.72a22.4,22.4,0,0,1,35.11,27.82Z"/><path class="cls-5" d="M250.26,218.54c10.81,6,53,3.84,53,3.84s-20.48-37-31.29-43a22.4,22.4,0,0,0-22.35,38.83l.6.33Z"/><path class="cls-5" d="M254.64,324.66c12.11,2.5,51.76-12.2,51.76-12.2s-30.58-29.17-42.72-31.67a22.4,22.4,0,0,0-9,43.87Z"/><path class="cls-5" d="M273.05,427.22c11.52,4.51,53.08-3.28,53.08-3.28S300.89,390,289.37,385.51a22.4,22.4,0,0,0-16.32,41.71Z"/><path class="cls-4" d="M60.7,472.42s74.48-117.08,83.48-167.08,26-96,26-96"/><path class="cls-1" d="M187.18,309.34l-47,4S165.18,356.34,187.18,309.34Z"/><path class="cls-1" d="M105.18,283.34l37.22,29.81S94.18,332.34,105.18,283.34Z"/><path class="cls-1" d="M193.18,268.34,150.82,274S188.18,304.34,193.18,268.34Z"/><path class="cls-1" d="M123.18,253.34,151.12,273S117.18,287.34,123.18,253.34Z"/><path class="cls-1" d="M161.49,235.53s34.69-9.19,39.69-7.19,2,24-12,25S161.49,235.53,161.49,235.53Z"/><path class="cls-1" d="M138.18,209.34s22,21,23,26-18,17-28,0S138.18,209.34,138.18,209.34Z"/><circle class="cls-6" cx="179.18" cy="211.34" r="10"/><circle class="cls-6" cx="161.18" cy="206.34" r="10"/><path class="cls-1" d="M389.18,472.34s33-54-49-134-77-95-70-107c0,0-66,8-52,107s74,134,74,134Z"/><path class="cls-4" d="M342.68,472.34s-24.5-71-61.5-114-30-114-11-127"/><path class="cls-5" d="M52.4,60.73c-14.74,15-15.71,37.89-15.71,37.89s22.92-1.31,37.66-16.26S90.06,44.47,90.06,44.47,67.14,45.77,52.4,60.73Z"/><path class="cls-1" d="M151.24,93.29c-19.42-8-41-.2-41-.2s9.88,20.73,29.3,28.71,41,.2,41,.2S170.66,101.27,151.24,93.29Z"/><path class="cls-6" d="M395.41,63.31c-11.22-17.74-33.35-23.89-33.35-23.89s-3.93,22.62,7.3,40.37,33.35,23.89,33.35,23.89S406.63,81.07,395.41,63.31Z"/><path class="cls-1" d="M513.15,250.63s-33-37-45,9-19,52-43,40-49,45,10,86,26,81.5,26,81.5h211s28-81.5-33-109.5-59-49-57-77S513.15,250.63,513.15,250.63Z"/><path class="cls-4" d="M488.19,244s137,180.57,90,230.57"/><path class="cls-4" d="M449.73,302.53s32.42,27.59,85.42,13.59,39.93-49.92,39.93-49.92"/><path class="cls-4" d="M671.6,389.82s-70.53-34.21-106-21.45c-92.32,33.22-161-56.24-161-56.24"/><path class="cls-1" d="M482.51,469.47s43-32-11-144c0,0-72-89,0-173,0,0-157,4-154,150s78.5,167,78.5,167Z"/><path class="cls-4" d="M430.66,473.08s-10.83-77-39.83-124a100.64,100.64,0,0,1-12.18-30.71c-9.69-42.63,4.13-87.21,35.44-117.72l45.75-44.57"/><path class="cls-7" d="M483.65,468.78s42.71-32.39-12.32-143.89c0,0-72.81-88.33-1.59-173,0,0-156.95,5.44-152.61,151.41s80,166.27,80,166.27Z"/><path class="cls-1" d="M233.62,471.46S86.48,438.56,273.7,246.07c0,0,80.7,76.49,51.1,171.57-11.9,38.23-50.2,61.83-89,54.27Z"/><path class="cls-8" d="M233.62,471.46c-3.23-.72-144-36.15,40.08-225.39,0,0,80.7,76.49,51.1,171.57-11.9,38.23-50.2,61.83-89,54.27Z"/><path class="cls-3" d="M235.55,472.55s77.72-117.09,38.15-226.48"/><path class="cls-1" d="M228.7,460c4.34-3.29,8.42-7.18,9.67-11.91a10.07,10.07,0,0,0-6.76-12.13c-6.21-1.94-12.84,1.57-17.86,5.12s-10.79,7.59-17.37,6.84c6.82-4.92,10.06-12.92,8.18-20.19a7.86,7.86,0,0,0-2.27-4.1c-3.44-3-9.69-1.71-13.81.65-13.12,7.53-16.78,22.06-16.85,35.15-1.32-4.72-.21-9.64-.24-14.48s-1.66-10.21-6.66-12.81c-3-1.54-6.64-1.84-10.16-2-5.9-.18-12.46.31-16.49,3.82-5,4.37-3.71,11.71.65,16.52s11,7.83,17.07,11.15c4.64,2.53,9.34,5.49,12.2,9.49a8.41,8.41,0,0,1,.9,1.7h37A105.61,105.61,0,0,0,228.7,460Z"/><path class="cls-5" d="M199.07,365.07s13.35,17.45-6.16,43.81-35.59,48.6-29.09,65c0,0,29.43-48.94,53.39-49.62S225.42,394.53,199.07,365.07Z"/><path class="cls-7" d="M199.07,365.07a21.62,21.62,0,0,1,2.75,5.5c23.37,27.46,35.83,53.09,13.36,53.73-20.93.6-46,38-52,47.47a22.54,22.54,0,0,0,.71,2.15S193.32,425,217.28,424.3,225.42,394.53,199.07,365.07Z"/><path class="cls-6" d="M223.88,387.34c0,6.14-.69,11.12-1.54,11.12s-1.54-5-1.54-11.12.86-3.25,1.71-3.25S223.88,381.2,223.88,387.34Z"/><path class="cls-6" d="M232.39,394.67c-5.39,2.94-10.1,4.72-10.5,4s3.64-3.74,9-6.68,3.27-.8,3.67-.05S237.82,391.73,232.39,394.67Z"/><path class="cls-5" d="M128.57,365.07s-13.35,17.45,6.16,43.81,35.59,48.6,29.09,65c0,0-29.43-48.94-53.39-49.62S102.22,394.53,128.57,365.07Z"/><path class="cls-7" d="M128.57,365.07a22,22,0,0,0-2.75,5.5C102.45,398,90,423.66,112.46,424.3c20.93.6,46,38,52,47.47a18,18,0,0,1-.71,2.15S134.32,425,110.36,424.3,102.22,394.53,128.57,365.07Z"/><path class="cls-6" d="M103.76,387.34c0,6.14.69,11.12,1.54,11.12s1.54-5,1.54-11.12-.86-3.25-1.71-3.25S103.76,381.2,103.76,387.34Z"/><path class="cls-6" d="M95.24,394.67c5.39,2.94,10.1,4.72,10.5,4s-3.64-3.74-9-6.68-3.27-.8-3.67-.05S89.82,391.73,95.24,394.67Z"/></svg>