<?xml version="1.0" encoding="utf-8"?>
<!-- Generator: Adobe Illustrator 23.0.1, SVG Export Plug-In . SVG Version: 6.00 Build 0)  -->
<svg version="1.1" id="Layer_1" xmlns="http://www.w3.org/2000/svg" xmlns:xlink="http://www.w3.org/1999/xlink" x="0px" y="0px"
	 viewBox="0 0 285.06 100.04" style="enable-background:new 0 0 285.06 100.04;" xml:space="preserve">
<style type="text/css">
	.st0{fill:#21265F;}
</style>
<g>
	<g>
		<path class="st0" d="M85.82,40.02c0.01,0.09,0.01,0.16,0.01,0.22c-0.01,0.06-0.05,0.09-0.12,0.1l-3.79,0.8
			c-0.07,0.02-0.12,0-0.16-0.05c-0.03-0.05-0.06-0.12-0.08-0.2l-0.12,0.02l0.37,1.79l0.12-0.03c-0.01-0.09-0.01-0.16-0.01-0.22
			c0.01-0.06,0.05-0.09,0.12-0.11l3.79-0.8c0.07-0.01,0.12,0,0.15,0.05c0.03,0.05,0.06,0.11,0.09,0.2l0.12-0.02L85.94,40
			L85.82,40.02z M34.77,51.23c-0.03,0.36-0.11,1.56-0.12,1.77c-0.21-0.34-1.23-2.04-1.46-2.4l-0.02-0.01
			c0.01,0.53,0.13,2.65,0.14,2.98l0.62,0.55c-0.03-0.35-0.14-1.8-0.15-1.92c0.12,0.19,1,1.59,1.33,2.11l0.02,0.01
			c0.05-0.47,0.1-1.33,0.1-1.51l0,0c0.13,0.25,1,2.04,1.12,2.28l0.4-0.08c-0.12-0.23-1.7-3.31-1.96-3.78L34.77,51.23z M38.17,52.01
			l-1.45-0.6l0.14,0.62l1.46,0.61L38.17,52.01z M49.59,57.91l1.17-0.07c0.04,0.07,0.23,0.58,0.32,0.79l0.56-0.43
			c-0.19-0.36-1.05-2.24-1.44-3h-0.03c-0.24,0.49-1.28,2.84-1.42,3.16l0.53,0.39C49.36,58.55,49.56,58,49.59,57.91z M50.17,56.36
			c0.05,0.14,0.32,0.77,0.4,0.96l-0.79,0.05C49.85,57.19,50.1,56.54,50.17,56.36z M54.56,56.42l1.08-0.49
			c0.03,0.05,0.15,0.59,0.2,0.76l0.59-0.63c-0.11-0.29-0.59-1.95-0.81-2.57L55.6,53.5c-0.31,0.58-1.69,3.3-1.89,3.68l0.41,0.2
			C54.24,57.15,54.52,56.53,54.56,56.42z M55.39,54.67c0.02,0.12,0.15,0.65,0.18,0.82l-0.73,0.33
			C54.94,55.61,55.28,54.87,55.39,54.67z M53.41,57.07c-0.29,0.13-0.67,0.29-0.75,0.32l0.15-1.04c0.09-0.58,0.23-1.52,0.26-1.62
			l-0.59,0.24c0,0.09-0.16,1.22-0.17,1.3l-0.09,0.61c-0.02,0.11-0.16,1.1-0.21,1.35c0.19-0.08,1.26-0.46,1.32-0.49L53.41,57.07z
			 M71.91,78.52c-0.04,0.01-0.07-0.01-0.11-0.05l-1.84-2.33c-0.04-0.04-0.05-0.09-0.03-0.12c0.02-0.04,0.05-0.07,0.1-0.12
			l-0.06-0.07L69,76.59l0.05,0.07c0.06-0.03,0.1-0.06,0.14-0.07c0.04-0.01,0.07,0.01,0.11,0.05l1.84,2.33
			c0.03,0.04,0.04,0.08,0.02,0.12c-0.02,0.04-0.05,0.07-0.1,0.12l0.06,0.07l0.97-0.76l-0.06-0.07C72,78.49,71.95,78.51,71.91,78.52z
			 M69.08,80.6c-0.03,0-0.05-0.01-0.07-0.03c-0.11-0.09-2.28-1.81-2.38-1.89c-0.1-0.08-0.16-0.14-0.17-0.15
			c-0.02-0.04-0.01-0.08,0.03-0.11l-0.05-0.08l-1.12,0.67l0.05,0.08c0.05-0.02,0.08-0.01,0.11,0.03c0.01,0.02,0.04,0.14,0.09,0.34
			c0.04,0.2,0.49,2.46,0.57,2.84c0.01,0.03,0,0.05-0.02,0.08c-0.01,0.03-0.03,0.04-0.05,0.06l0.05,0.08l0.82-0.45l-0.05-0.08
			c-0.01,0-0.03,0.01-0.05,0.02c-0.02,0-0.04-0.01-0.06-0.04c-0.01-0.02-0.02-0.05-0.03-0.1c-0.01-0.05-0.07-0.39-0.08-0.44
			l1.25-0.75c0.03,0.02,0.31,0.25,0.35,0.28c0.04,0.03,0.06,0.05,0.07,0.07c0.02,0.03,0.02,0.05,0,0.07
			c-0.01,0.02-0.03,0.03-0.04,0.03l0.04,0.08l0.87-0.56l-0.05-0.08C69.13,80.59,69.11,80.6,69.08,80.6z M66.54,80.84l-0.26-1.44
			l1.15,0.91L66.54,80.84z M42.52,54.36c-0.22,0.62-0.72,2.3-0.83,2.59l0.57,0.64c0.05-0.17,0.18-0.71,0.21-0.77l1.06,0.52
			c0.04,0.11,0.31,0.74,0.42,0.97l0.41-0.19c-0.19-0.38-1.51-3.16-1.81-3.75L42.52,54.36z M42.74,55.56
			c0.1,0.21,0.43,0.97,0.52,1.18l-0.71-0.35C42.58,56.22,42.72,55.68,42.74,55.56z M35.15,81.23c0.05,0.02,0.06,0.06,0.04,0.1
			c-0.01,0.02-0.07,0.12-0.2,0.27c-0.13,0.16-1.62,1.92-1.87,2.22c-0.02,0.02-0.04,0.03-0.06,0.04c-0.03,0-0.05,0-0.08-0.01
			l-0.03,0.09l0.86,0.35l0.03-0.09c-0.01,0-0.02-0.01-0.04-0.02c-0.02-0.01-0.02-0.04-0.01-0.07c0.01-0.02,0.03-0.05,0.06-0.08
			c0.03-0.04,0.26-0.31,0.29-0.35l1.36,0.51c0,0.04,0,0.41,0,0.46c0,0.05-0.01,0.08-0.01,0.1c-0.01,0.03-0.03,0.05-0.05,0.05
			c-0.02,0-0.04-0.01-0.05-0.01l-0.03,0.09l0.97,0.32l0.03-0.09c-0.03-0.01-0.05-0.02-0.06-0.04c-0.02-0.02-0.03-0.05-0.03-0.08
			c0-0.14-0.01-2.92-0.01-3.05c0-0.13,0.01-0.2,0.01-0.22c0.02-0.04,0.05-0.06,0.1-0.04l0.04-0.09l-1.23-0.46L35.15,81.23z
			 M35.49,83.59l-0.98-0.36l0.96-1.1L35.49,83.59z M84.52,37.89c-0.24,0.07-0.43,0.19-0.58,0.35c-0.15,0.16-0.18,0.36-0.12,0.61
			c0.05,0.18,0.16,0.32,0.32,0.43c0.16,0.1,0.34,0.12,0.55,0.06c0.26-0.07,0.41-0.2,0.48-0.38c0.06-0.19,0.07-0.38,0.01-0.6
			c0.22-0.02,0.42,0.02,0.59,0.13c0.17,0.11,0.32,0.24,0.44,0.39l0.29-0.08c-0.11-0.15-0.23-0.29-0.37-0.43
			c-0.14-0.14-0.3-0.25-0.46-0.34c-0.17-0.09-0.34-0.15-0.54-0.18C84.94,37.81,84.73,37.83,84.52,37.89z M37.6,52.66
			c-0.17,0.59-0.54,2.16-0.63,2.43l0.6,0.57c0.03-0.17,0.13-0.67,0.14-0.72l1.07,0.44c0.05,0.1,0.36,0.67,0.48,0.88l0.39-0.19
			c-0.21-0.35-1.7-2.87-2.04-3.41L37.6,52.66z M37.9,53.75c0.11,0.19,0.49,0.88,0.59,1.07l-0.72-0.29
			C37.8,54.37,37.89,53.87,37.9,53.75z M40.67,56.2l-0.2-1.08c-0.11-0.58-0.27-1.49-0.28-1.59l-0.68-0.29
			c0.02,0.09,0.24,1.22,0.25,1.29l0.12,0.61c0.02,0.11,0.22,1.14,0.24,1.38c0.22,0.09,1.23,0.58,1.31,0.61l-0.13-0.66
			C40.98,56.35,40.76,56.24,40.67,56.2z M47.32,55.34c-0.14,0.29-0.76,1.62-0.89,1.88c-0.11-0.23-0.71-1.54-0.89-1.93H45.5
			c-0.13,0.39-0.84,2.77-0.91,2.96l0.51,0.35c0.06-0.2,0.44-1.6,0.5-1.82h0.01c0.07,0.19,0.48,1.12,0.73,1.64h0.03
			c0.22-0.41,0.77-1.52,0.85-1.67c0.04,0.12,0.48,1.61,0.59,1.96l0.57-0.31c-0.12-0.35-0.82-2.5-1.03-3.06H47.32z M82.9,62.42
			c-0.17-0.18-0.39-0.33-0.68-0.46c-0.28-0.12-0.55-0.18-0.79-0.18c-0.24,0-0.47,0.05-0.66,0.14c-0.2,0.09-0.36,0.21-0.5,0.37
			c-0.14,0.15-0.25,0.32-0.33,0.5c-0.08,0.18-0.12,0.38-0.14,0.58c-0.02,0.21,0.01,0.42,0.08,0.62c0.07,0.21,0.19,0.4,0.35,0.58
			c0.17,0.18,0.39,0.33,0.67,0.46c0.29,0.13,0.55,0.19,0.8,0.18c0.24,0,0.46-0.05,0.65-0.14c0.19-0.09,0.36-0.21,0.49-0.37
			c0.13-0.16,0.24-0.33,0.32-0.51c0.08-0.18,0.13-0.37,0.15-0.58c0.02-0.21,0-0.41-0.07-0.62C83.17,62.79,83.06,62.6,82.9,62.42z
			 M82.42,63.87c-0.05,0.11-0.11,0.2-0.2,0.28c-0.08,0.08-0.18,0.14-0.28,0.18c-0.11,0.04-0.22,0.06-0.34,0.05
			c-0.12-0.01-0.25-0.04-0.39-0.1c-0.13-0.06-0.25-0.13-0.33-0.22c-0.09-0.09-0.15-0.18-0.2-0.28c-0.04-0.11-0.06-0.22-0.06-0.33
			c0-0.11,0.03-0.22,0.07-0.33c0.05-0.11,0.12-0.2,0.2-0.28c0.08-0.08,0.18-0.13,0.28-0.18c0.11-0.04,0.22-0.06,0.35-0.05
			c0.12,0.01,0.25,0.04,0.38,0.1c0.13,0.06,0.25,0.13,0.33,0.22c0.09,0.09,0.15,0.18,0.2,0.29c0.04,0.11,0.06,0.21,0.06,0.32
			C82.49,63.65,82.46,63.76,82.42,63.87z M65.39,82.74c-0.04,0-0.07-0.03-0.09-0.08l-1.24-2.7c-0.02-0.05-0.02-0.09,0-0.12
			c0.02-0.03,0.06-0.05,0.1-0.08l-0.04-0.09l-0.99,0.49l0.04,0.09c0.05-0.02,0.09-0.02,0.12-0.02c0.04,0,0.07,0.03,0.09,0.08
			l0.65,1.4c-0.2-0.11-1.41-0.77-1.52-0.83c-0.1-0.06-0.14-0.08-0.16-0.1c-0.03-0.05-0.03-0.09-0.01-0.12
			c0.02-0.02,0.04-0.05,0.07-0.06l-0.04-0.09L61,81.1l0.04,0.09c0.04-0.01,0.08-0.02,0.12-0.02c0.03,0,0.06,0.03,0.09,0.08l1.24,2.7
			c0.03,0.05,0.03,0.09,0,0.12c-0.02,0.03-0.05,0.05-0.09,0.07l0.04,0.09l0.99-0.42l-0.04-0.09c-0.04,0.02-0.08,0.02-0.12,0.02
			c-0.04,0-0.06-0.03-0.09-0.08l-0.86-1.86l0.01-0.02c0.27,0.16,1.28,0.7,1.49,0.81c0.21,0.11,0.38,0.21,0.52,0.29
			c0.13,0.08,0.21,0.14,0.23,0.18c0.02,0.04,0.02,0.08-0.02,0.11c-0.04,0.03-0.07,0.05-0.1,0.06l0.04,0.09l1.04-0.52l-0.04-0.09
			C65.46,82.73,65.42,82.74,65.39,82.74z M76.61,74.06c-0.03,0-0.06,0-0.11-0.01l-2.07-0.58c0-0.11-0.08-0.8-0.09-0.97
			c-0.01-0.17-0.02-0.33-0.02-0.47c0-0.14,0.02-0.24,0.05-0.29l-0.07-0.07l-0.84,0.92l0.07,0.06c0.02-0.02,0.06-0.04,0.09-0.05
			c0.04-0.01,0.07,0,0.12,0.04c0.01,0.01,0.02,0.05,0.04,0.13c0.01,0.07,0.02,0.16,0.04,0.28c0.01,0.11,0.09,1.42,0.1,1.51l-1.04-1
			c-0.04-0.04-0.06-0.08-0.04-0.12c0.01-0.04,0.04-0.07,0.06-0.11l-0.07-0.07l-0.83,0.82l0.07,0.07c0.02-0.03,0.05-0.05,0.09-0.06
			c0.04-0.01,0.07,0.01,0.12,0.05l2.13,2.07c0.04,0.04,0.06,0.08,0.05,0.12c0,0.04-0.02,0.07-0.05,0.09l0.07,0.06l0.84-0.82
			l-0.07-0.06c-0.03,0.03-0.07,0.05-0.11,0.06c-0.04,0.02-0.07,0-0.12-0.04l-0.46-0.45l-0.1-0.85c0.04,0.01,1.24,0.35,1.3,0.37
			c0.07,0.02,0.1,0.04,0.11,0.05c0.04,0.04,0.05,0.08,0.03,0.12c-0.02,0.04-0.04,0.07-0.06,0.09l0.07,0.07l0.85-0.94l-0.07-0.07
			C76.66,74.04,76.64,74.05,76.61,74.06z M84.87,58.89c-0.03,0.03-0.06,0.03-0.12,0.02l-2.83-0.91c-0.05-0.02-0.08-0.05-0.09-0.08
			c0-0.04,0-0.08,0.01-0.13l-0.09-0.03l-0.31,1.05l0.09,0.03c0.02-0.05,0.04-0.08,0.07-0.11c0.03-0.03,0.07-0.03,0.12-0.01
			l1.47,0.48c-0.21,0.07-1.52,0.52-1.64,0.56c-0.11,0.04-0.16,0.05-0.18,0.05c-0.06-0.01-0.08-0.04-0.09-0.07
			c0-0.03-0.01-0.06,0-0.09l-0.09-0.03l-0.5,1.41l0.09,0.03c0.02-0.04,0.04-0.08,0.07-0.1c0.03-0.03,0.06-0.03,0.12-0.01l2.83,0.91
			c0.06,0.02,0.09,0.04,0.09,0.08c0,0.04,0,0.07,0,0.12l0.09,0.03l0.36-1.01l-0.09-0.03c-0.02,0.04-0.04,0.08-0.06,0.1
			c-0.03,0.03-0.06,0.03-0.12,0.01l-1.95-0.63l-0.01-0.02c0.3-0.09,1.38-0.47,1.61-0.55c0.22-0.08,0.42-0.14,0.56-0.19
			c0.15-0.05,0.25-0.06,0.29-0.05c0.04,0.01,0.06,0.04,0.06,0.09c0,0.04-0.01,0.08-0.02,0.11l0.09,0.03l0.33-1.12l-0.09-0.03
			C84.92,58.83,84.9,58.87,84.87,58.89z M84.99,54.84c-0.2-0.14-0.45-0.24-0.76-0.3c-0.3-0.06-0.58-0.06-0.82-0.01
			c-0.24,0.05-0.44,0.15-0.62,0.28c-0.17,0.13-0.31,0.28-0.42,0.46c-0.11,0.18-0.18,0.37-0.22,0.56c-0.04,0.19-0.04,0.39-0.02,0.6
			c0.03,0.21,0.1,0.4,0.21,0.59c0.11,0.19,0.27,0.35,0.46,0.49c0.2,0.14,0.45,0.24,0.75,0.3c0.31,0.06,0.58,0.07,0.82,0.01
			c0.24-0.06,0.44-0.15,0.61-0.28c0.17-0.13,0.31-0.29,0.41-0.47c0.1-0.18,0.17-0.37,0.21-0.56c0.04-0.19,0.05-0.39,0.02-0.6
			c-0.02-0.21-0.09-0.4-0.19-0.59C85.34,55.15,85.19,54.98,84.99,54.84z M84.83,56.36c-0.02,0.12-0.07,0.22-0.13,0.31
			c-0.07,0.1-0.15,0.17-0.24,0.23c-0.09,0.06-0.2,0.1-0.33,0.12c-0.12,0.02-0.25,0.02-0.4-0.01c-0.14-0.03-0.27-0.08-0.37-0.14
			c-0.1-0.07-0.19-0.15-0.25-0.24c-0.07-0.09-0.11-0.2-0.13-0.31c-0.03-0.11-0.03-0.22,0-0.34c0.03-0.12,0.07-0.22,0.13-0.31
			c0.06-0.09,0.14-0.17,0.23-0.23c0.1-0.06,0.21-0.1,0.33-0.12c0.12-0.02,0.26-0.02,0.4,0.01c0.14,0.03,0.27,0.08,0.38,0.14
			c0.1,0.06,0.19,0.14,0.25,0.24c0.06,0.09,0.11,0.2,0.13,0.3C84.85,56.13,84.85,56.24,84.83,56.36z M48.04,5.64
			C24.31,5.64,5,24.95,5,48.68s19.3,43.03,43.03,43.03s43.03-19.3,43.03-43.03S71.76,5.64,48.04,5.64z M48.04,90.22
			c-22.91,0-41.54-18.64-41.54-41.54c0-22.91,18.64-41.55,41.54-41.55s41.54,18.64,41.54,41.55C89.58,71.59,70.94,90.22,48.04,90.22
			z M81.1,67.87c-0.03,0.02-0.07,0.01-0.12-0.02l-0.83-0.5l0.36-0.61c0.08-0.13,0.14-0.27,0.19-0.41c0.05-0.14,0.06-0.28,0.05-0.41
			c-0.02-0.14-0.07-0.27-0.17-0.41c-0.09-0.13-0.23-0.25-0.42-0.37c-0.2-0.12-0.38-0.19-0.54-0.2c-0.16-0.02-0.3,0-0.43,0.05
			c-0.12,0.05-0.24,0.13-0.34,0.24c-0.1,0.11-0.19,0.23-0.27,0.36l-0.85,1.42l0.08,0.05c0.01-0.01,0.03-0.02,0.05-0.04
			c0.03-0.01,0.07-0.01,0.12,0.02l2.55,1.53c0.05,0.03,0.08,0.06,0.08,0.09c0,0.03,0,0.05-0.01,0.07l0.08,0.05l0.56-0.93l-0.08-0.05
			C81.16,67.83,81.13,67.85,81.1,67.87z M79.89,66.51l-0.31,0.51l-0.8-0.48l0.33-0.55c0.08-0.14,0.17-0.21,0.27-0.23
			c0.09-0.02,0.21,0.01,0.36,0.1c0.14,0.08,0.23,0.18,0.25,0.28C80.01,66.23,79.98,66.36,79.89,66.51z M77.63,30.88
			c-0.03-0.03-0.05-0.06-0.07-0.09l-0.11,0.06l0.7,1.22l0.11-0.06c-0.01-0.01-0.02-0.04-0.02-0.07c-0.01-0.03,0.01-0.06,0.05-0.08
			c0.02-0.01,0.07-0.02,0.13-0.03c0.06,0,0.56-0.05,0.61-0.06l0.99,1.9c-0.03,0.04-0.37,0.45-0.41,0.49
			c-0.04,0.05-0.07,0.08-0.09,0.09c-0.05,0.02-0.07,0.02-0.09,0c-0.02-0.02-0.04-0.04-0.04-0.06l-0.11,0.06l0.63,1.43L80,35.63
			c-0.02-0.03-0.03-0.07-0.03-0.11c0-0.04,0.01-0.07,0.03-0.1c0.13-0.14,2.57-3.14,2.68-3.27c0.11-0.13,0.18-0.21,0.2-0.22
			c0.05-0.03,0.1-0.01,0.15,0.06l0.11-0.06l-0.87-1.7l-0.11,0.06c0.03,0.07,0.02,0.12-0.03,0.15c-0.03,0.02-0.18,0.04-0.44,0.06
			c-0.26,0.03-3.44,0.34-3.95,0.39C77.7,30.91,77.67,30.9,77.63,30.88z M81.72,31.56l-1.21,1.51l-0.71-1.36L81.72,31.56z
			 M61.34,53.68l1.09-0.5c0.01,0.06,0.03,0.63,0.04,0.82l0.66-0.66c-0.04-0.31-0.18-2.12-0.27-2.8l-0.02,0.01
			c-0.4,0.62-2.18,3.51-2.43,3.92l0.35,0.22C60.9,54.46,61.27,53.8,61.34,53.68z M62.42,51.81c0,0.13,0.01,0.71,0.01,0.89
			l-0.73,0.34C61.83,52.82,62.29,52.03,62.42,51.81z M58.09,54L58.09,54c0.02,0.17,0.12,1.01,0.21,1.47l0.02-0.01
			c0.32-0.51,1.11-1.89,1.23-2.07c0.01,0.11-0.02,1.52-0.02,1.86l0.6-0.54c-0.01-0.33-0.04-2.39-0.06-2.91l-0.02,0.01
			c-0.21,0.36-1.13,2.02-1.33,2.36c-0.03-0.21-0.2-1.43-0.25-1.77l-0.02,0.01c-0.23,0.46-1.65,3.52-1.75,3.75l0.42,0.07
			C57.21,55.99,57.98,54.25,58.09,54z M79.13,70.92c-0.03,0.01-0.05,0.01-0.08,0c-0.13-0.05-2.77-0.88-2.89-0.92
			c-0.12-0.04-0.19-0.07-0.21-0.08c-0.04-0.03-0.04-0.07-0.01-0.11l-0.07-0.06l-0.81,1.03l0.08,0.06c0.04-0.04,0.08-0.04,0.11-0.02
			c0.02,0.02,0.09,0.12,0.19,0.29c0.11,0.17,1.34,2.12,1.55,2.45C77,73.58,77,73.61,77,73.64c0,0.03-0.02,0.05-0.03,0.07l0.08,0.06
			l0.6-0.71L77.57,73c-0.01,0.01-0.02,0.02-0.04,0.03c-0.02,0.02-0.04,0.01-0.07-0.01c-0.01-0.01-0.03-0.04-0.06-0.08
			c-0.03-0.04-0.21-0.34-0.24-0.37l0.9-1.14c0.04,0.01,0.38,0.12,0.42,0.14c0.04,0.02,0.07,0.03,0.09,0.04
			c0.03,0.02,0.04,0.04,0.03,0.06c-0.01,0.02-0.02,0.03-0.03,0.04l0.08,0.06l0.61-0.83l-0.08-0.06
			C79.17,70.9,79.15,70.91,79.13,70.92z M76.85,72.05l-0.76-1.25l1.4,0.43L76.85,72.05z M46.72,74.15
			c-0.05-0.03-0.11-0.04-0.17-0.06c-0.06-0.01-0.11-0.02-0.15-0.02c-0.04,0-0.1,0.01-0.16,0.02c-0.06,0.01-0.12,0.03-0.17,0.06
			c-0.05,0.02-0.1,0.06-0.14,0.1c-0.04,0.04-0.05,0.1-0.05,0.17c0,0.07,0.02,0.13,0.05,0.17c0.04,0.05,0.08,0.08,0.14,0.11
			c0.05,0.02,0.11,0.04,0.17,0.05c0.06,0.01,0.11,0.02,0.16,0.02c0.04,0,0.1-0.01,0.15-0.02c0.06-0.01,0.12-0.03,0.17-0.05
			c0.05-0.03,0.1-0.06,0.14-0.11c0.04-0.04,0.05-0.1,0.05-0.17c0-0.07-0.02-0.13-0.05-0.17C46.82,74.21,46.78,74.17,46.72,74.15z
			 M80.53,36.51c-0.07,0.02-0.12,0.02-0.16-0.03c-0.04-0.04-0.08-0.11-0.11-0.19l-0.12,0.04l0.61,1.72l0.12-0.04
			c-0.03-0.09-0.04-0.16-0.04-0.22c0-0.06,0.04-0.1,0.11-0.12l3.64-1.32c0.07-0.03,0.12-0.02,0.16,0.02
			c0.04,0.04,0.08,0.11,0.11,0.19l0.12-0.04l-0.61-1.72l-0.12,0.04c0.03,0.09,0.04,0.16,0.04,0.22c0,0.06-0.04,0.1-0.11,0.12
			L80.53,36.51z M12.99,42.23c0.25-0.01,0.48-0.08,0.69-0.2c0.21-0.12,0.4-0.3,0.56-0.55c0.16-0.24,0.29-0.56,0.38-0.96
			c0.1-0.39,0.13-0.74,0.1-1.03c-0.03-0.29-0.12-0.54-0.24-0.74c-0.14-0.21-0.31-0.37-0.53-0.5c-0.22-0.13-0.45-0.22-0.72-0.29
			l-2.11-0.52c-0.07-0.02-0.11-0.05-0.12-0.11c-0.01-0.05,0-0.12,0.01-0.19l-0.12-0.03l-0.46,1.6l0.12,0.03
			c0.01-0.03,0.03-0.06,0.06-0.09c0.03-0.03,0.08-0.04,0.15-0.02l2.4,0.58c0.25,0.06,0.41,0.19,0.47,0.38
			c0.07,0.19,0.07,0.42,0,0.69c-0.07,0.27-0.17,0.47-0.32,0.61c-0.15,0.14-0.35,0.18-0.6,0.12l-2.4-0.59
			c-0.07-0.02-0.12-0.05-0.12-0.09c-0.01-0.04-0.02-0.08-0.01-0.11l-0.12-0.03l-0.32,1.62l0.12,0.03c0.03-0.07,0.05-0.13,0.08-0.17
			c0.03-0.05,0.08-0.06,0.16-0.04l2.11,0.51C12.49,42.22,12.74,42.25,12.99,42.23z M11.74,35.22c0.04-0.04,0.09-0.04,0.16-0.01
			l3.54,1.58c0.07,0.03,0.11,0.07,0.11,0.12c0,0.05-0.01,0.11-0.03,0.17l0.11,0.05l0.57-1.47l-0.11-0.05
			c-0.03,0.06-0.07,0.11-0.11,0.14c-0.04,0.03-0.09,0.04-0.16,0.01l-2.43-1.08l-0.01-0.03c0.41-0.1,0.81-0.21,1.19-0.33
			c0.38-0.12,0.73-0.22,1.04-0.32c0.3-0.09,0.56-0.17,0.77-0.23c0.21-0.05,0.34-0.07,0.39-0.05c0.05,0.02,0.08,0.07,0.06,0.13
			c-0.01,0.06-0.03,0.12-0.05,0.16l0.11,0.05l0.76-1.52l-0.11-0.05c-0.04,0.07-0.07,0.12-0.11,0.15c-0.04,0.04-0.09,0.04-0.16,0.01
			l-3.55-1.57c-0.07-0.03-0.1-0.07-0.1-0.12c0-0.05,0.01-0.12,0.04-0.19l-0.11-0.05l-0.72,1.46l0.12,0.05
			c0.03-0.06,0.07-0.12,0.11-0.15c0.04-0.04,0.09-0.04,0.16-0.01l1.84,0.82c-0.29,0.09-0.57,0.17-0.87,0.26
			c-0.29,0.09-0.55,0.16-0.79,0.23c-0.24,0.07-0.44,0.13-0.59,0.17c-0.16,0.04-0.21,0.06-0.25,0.06c-0.08-0.01-0.13-0.09-0.13-0.13
			c0-0.05,0-0.09,0.01-0.13l-0.11-0.05l-0.81,2.04l0.11,0.05C11.66,35.3,11.7,35.26,11.74,35.22z M11.68,57.82
			c0.19,0.01,0.39,0,0.6-0.05l1.73-0.37c0.05-0.01,0.09,0,0.12,0.03c0.02,0.03,0.04,0.07,0.05,0.12l0.1-0.02L14,56.44l-0.09,0.02
			c0,0.02-0.01,0.05-0.02,0.07c-0.01,0.03-0.04,0.05-0.1,0.06l-1.87,0.39c-0.2,0.04-0.35,0.02-0.45-0.08
			c-0.11-0.1-0.18-0.24-0.22-0.42c-0.04-0.18-0.03-0.34,0.04-0.47c0.06-0.13,0.19-0.22,0.38-0.26l1.87-0.39
			c0.06-0.01,0.09-0.01,0.12,0.01c0.02,0.02,0.03,0.04,0.04,0.06l0.09-0.02l-0.2-1.12l-0.09,0.02c0,0.05,0,0.1,0,0.13
			c-0.01,0.04-0.04,0.06-0.1,0.08l-1.73,0.37c-0.21,0.04-0.39,0.11-0.56,0.19c-0.17,0.09-0.31,0.2-0.43,0.34
			c-0.11,0.14-0.18,0.31-0.22,0.51c-0.03,0.2-0.02,0.43,0.03,0.7c0.06,0.27,0.14,0.49,0.26,0.66c0.11,0.17,0.25,0.29,0.41,0.38
			C11.32,57.76,11.49,57.81,11.68,57.82z M17.59,66.21c0.05-0.02,0.09-0.03,0.12-0.01c0.03,0.02,0.05,0.04,0.07,0.06l0.08-0.04
			l-0.68-1.21l-0.08,0.04c0.01,0.03,0.02,0.06,0.03,0.08c0.01,0.02,0,0.04-0.03,0.05c-0.03,0.01-0.09,0.02-0.19,0.04
			c-0.11,0.01-1.09,0.09-1.23,0.1c0.03-0.03,0.69-0.78,0.79-0.88c0.09-0.1,0.15-0.16,0.17-0.17c0.02-0.01,0.04-0.01,0.06,0.01
			c0.02,0.02,0.03,0.04,0.05,0.07l0.08-0.04l-0.59-1.25l-0.08,0.04c0.01,0.03,0.02,0.06,0.02,0.1c0,0.04-0.03,0.07-0.07,0.09
			l-2.65,1.36c-0.05,0.03-0.09,0.03-0.12,0.01c-0.03-0.02-0.05-0.05-0.07-0.07l-0.08,0.04l0.42,0.89l0.09-0.04
			c-0.02-0.05-0.03-0.09-0.03-0.13c0-0.04,0.02-0.07,0.07-0.1l2.01-1.03l0.01,0.01l-1.6,1.84l2.44-0.2l0,0.01l-2.01,1.03
			c-0.05,0.03-0.09,0.03-0.12,0.01c-0.03-0.02-0.06-0.05-0.08-0.09l-0.08,0.04l0.51,0.91l0.08-0.04c-0.01-0.03-0.01-0.06-0.01-0.09
			c0-0.03,0.03-0.07,0.08-0.09L17.59,66.21z M49.92,74.45c-0.05-0.07-0.11-0.12-0.18-0.16c-0.08-0.04-0.16-0.06-0.27-0.06
			c-0.11,0-0.2,0.02-0.27,0.06c-0.07,0.04-0.13,0.1-0.18,0.16c-0.04,0.07-0.08,0.14-0.1,0.23c-0.02,0.08-0.03,0.17-0.03,0.26
			s0.01,0.17,0.03,0.26c0.02,0.08,0.06,0.16,0.1,0.23c0.05,0.07,0.11,0.12,0.18,0.16c0.07,0.04,0.16,0.06,0.27,0.06
			c0.1,0,0.19-0.02,0.27-0.06c0.07-0.04,0.13-0.1,0.18-0.16c0.05-0.07,0.08-0.14,0.1-0.23c0.02-0.08,0.03-0.17,0.03-0.26
			s-0.01-0.17-0.03-0.26C50,74.6,49.97,74.52,49.92,74.45z M14.64,29.1c0.04-0.03,0.1-0.03,0.16,0.01l3.32,2.01
			c0.06,0.04,0.09,0.08,0.08,0.14c-0.01,0.05-0.04,0.12-0.08,0.21l0.11,0.06l0.95-1.56l-0.1-0.06c-0.05,0.08-0.1,0.13-0.15,0.16
			c-0.04,0.04-0.1,0.03-0.16,0l-3.31-2.01c-0.06-0.04-0.09-0.09-0.08-0.14c0.01-0.05,0.04-0.12,0.08-0.21l-0.1-0.06l-0.95,1.56
			l0.11,0.06C14.54,29.18,14.59,29.13,14.64,29.1z M19.8,21.96l0.08,0.09c0.06-0.04,0.11-0.07,0.16-0.09c0.05-0.02,0.11,0,0.15,0.05
			l2.62,2.82c0.05,0.05,0.06,0.1,0.04,0.15c-0.02,0.05-0.05,0.1-0.1,0.15l0.08,0.09l2.96-2.84c0.06-0.05,0.1-0.08,0.13-0.1
			c0.03-0.01,0.09,0,0.18,0.05l0.06-0.06l-0.88-0.95l-0.08,0.08c0.09,0.15,0.09,0.26,0,0.35l-1.91,1.78l-0.68-0.73l1.27-1.18
			c0.03-0.03,0.06-0.04,0.11-0.04c0.05,0,0.1,0.03,0.17,0.1l0.08-0.08l-0.9-0.96l-0.08,0.08c0.06,0.07,0.09,0.13,0.09,0.18
			c-0.01,0.05-0.02,0.08-0.05,0.11l-1.26,1.18l-0.56-0.6l1.97-1.83c0.03-0.03,0.06-0.04,0.11-0.04c0.05,0,0.11,0.03,0.17,0.11
			l0.08-0.08l-0.93-0.99l-0.08,0.08c0.06,0.07,0.09,0.12,0.08,0.17c-0.01,0.04-0.03,0.08-0.05,0.11L19.8,21.96z M16.2,26.6
			c0.02-0.01,0.04-0.03,0.09-0.04c0.03,0,0.14,0.02,0.34,0.09c0.2,0.07,3.07,1.14,3.26,1.21c0.19,0.08,0.31,0.13,0.32,0.13
			c0.04,0.03,0.06,0.08,0.06,0.13c0,0.05-0.02,0.09-0.05,0.12l0.1,0.07l1.2-1.53l-0.1-0.07c-0.02,0.04-0.06,0.06-0.11,0.08
			c-0.05,0.01-0.09,0.01-0.13-0.03c-0.01-0.01-0.09-0.11-0.19-0.27c-0.1-0.16-1.96-3.18-2-3.24c-0.01-0.02-0.05-0.08-0.04-0.12
			c0-0.04,0.02-0.08,0.05-0.12l-0.1-0.08l-0.98,1.16l0.1,0.08c0.02-0.03,0.05-0.06,0.09-0.1c0.04-0.04,0.08-0.04,0.12-0.01
			c0.02,0.01,0.08,0.11,0.18,0.29c0.11,0.18,1.14,1.87,1.26,2.07l-0.01,0.01c-0.04-0.02-2.24-0.81-2.36-0.86
			c-0.12-0.04-0.18-0.07-0.19-0.08c-0.04-0.03-0.05-0.07-0.02-0.13c0.03-0.05,0.06-0.09,0.08-0.12l-0.09-0.08l-1.01,1.4l0.1,0.08
			C16.16,26.63,16.18,26.61,16.2,26.6z M14.65,60.13c0.1-0.08,0.16-0.12,0.18-0.13c0.04-0.01,0.08,0,0.1,0.05l0.09-0.03l-0.41-1.24
			l-0.09,0.03c0.01,0.05-0.01,0.09-0.05,0.1c-0.03,0.01-0.14,0.01-0.34,0.01c-0.21-0.01-2.52-0.08-2.9-0.08
			c-0.03,0-0.05-0.01-0.07-0.03c-0.02-0.02-0.04-0.04-0.04-0.07l-0.09,0.03l0.26,0.89l0.09-0.03c-0.01-0.01-0.01-0.03-0.01-0.05
			c0-0.02,0.02-0.04,0.05-0.05c0.02-0.01,0.05-0.01,0.1-0.01c0.05,0,0.4,0.01,0.45,0.02l0.45,1.39c-0.03,0.02-0.32,0.25-0.35,0.28
			c-0.04,0.03-0.07,0.04-0.09,0.05c-0.04,0.01-0.06,0.01-0.07-0.01c-0.01-0.02-0.02-0.03-0.02-0.04l-0.09,0.03l0.35,0.97l0.09-0.03
			c-0.01-0.02-0.01-0.05-0.01-0.08c0.01-0.03,0.02-0.05,0.04-0.07C12.39,61.94,14.55,60.21,14.65,60.13z M14.04,59.62l-1.14,0.92
			l-0.32-0.99L14.04,59.62z M32.31,82.24l0.46-0.91L32.7,81.3c-0.03,0.06-0.07,0.1-0.1,0.11c-0.04,0.01-0.06,0.01-0.08,0l-1.05-0.53
			l0.29-0.56l1.63,0.83c0.02,0.01,0.04,0.03,0.05,0.07c0.01,0.03,0,0.08-0.04,0.15l0.07,0.04l0.47-0.94l-0.07-0.03
			c-0.03,0.06-0.06,0.1-0.1,0.11c-0.03,0.01-0.06,0-0.08-0.01l-2.54-1.29l-0.04,0.08c0.04,0.03,0.07,0.05,0.09,0.08
			c0.03,0.03,0.03,0.07,0,0.12l-1.35,2.66c-0.03,0.05-0.06,0.08-0.1,0.07c-0.04,0-0.08-0.01-0.12-0.03l-0.04,0.08l2.49,1.26
			c0.05,0.02,0.07,0.04,0.09,0.06c0.02,0.02,0.02,0.07,0,0.14l0.05,0.03l0.47-0.92l-0.07-0.04c-0.08,0.11-0.16,0.14-0.23,0.1
			l-1.59-0.8l0.35-0.69L32.22,82c0.02,0.01,0.04,0.03,0.05,0.07c0.01,0.03,0,0.08-0.03,0.15L32.31,82.24z M42.03,83.47
			c-0.13-0.17-0.28-0.31-0.46-0.42c-0.18-0.11-0.37-0.18-0.56-0.22c-0.19-0.04-0.39-0.04-0.6-0.02c-0.21,0.03-0.41,0.09-0.59,0.2
			c-0.19,0.11-0.35,0.26-0.49,0.46c-0.15,0.2-0.25,0.45-0.31,0.75c-0.06,0.31-0.07,0.58-0.02,0.82c0.05,0.24,0.14,0.44,0.27,0.61
			c0.13,0.17,0.29,0.31,0.47,0.41c0.18,0.1,0.37,0.17,0.56,0.21c0.19,0.04,0.39,0.05,0.6,0.03c0.21-0.02,0.4-0.08,0.59-0.19
			c0.18-0.11,0.35-0.26,0.49-0.45c0.14-0.2,0.25-0.45,0.31-0.76c0.06-0.3,0.07-0.57,0.02-0.81C42.25,83.85,42.15,83.65,42.03,83.47z
			 M41.49,84.74c-0.03,0.15-0.08,0.27-0.15,0.37c-0.06,0.11-0.14,0.19-0.24,0.25c-0.09,0.06-0.19,0.11-0.3,0.13
			c-0.11,0.02-0.22,0.02-0.34,0c-0.12-0.02-0.22-0.07-0.31-0.13c-0.09-0.07-0.17-0.15-0.23-0.24c-0.06-0.1-0.1-0.21-0.12-0.33
			c-0.02-0.12-0.01-0.25,0.02-0.4c0.03-0.14,0.08-0.27,0.14-0.37c0.07-0.11,0.15-0.19,0.24-0.25c0.1-0.06,0.2-0.1,0.31-0.13
			c0.11-0.03,0.22-0.02,0.34,0c0.12,0.02,0.22,0.07,0.31,0.13c0.09,0.07,0.17,0.14,0.23,0.24c0.06,0.1,0.1,0.2,0.12,0.32
			C41.52,84.47,41.52,84.6,41.49,84.74z M29.07,77.97c-0.04,0-0.06,0-0.08-0.02l-2.31-1.66l-0.05,0.08c0.03,0.03,0.06,0.06,0.08,0.1
			c0.02,0.03,0.02,0.07-0.02,0.12l-1.73,2.42c-0.03,0.05-0.07,0.07-0.11,0.06c-0.04-0.01-0.08-0.02-0.12-0.04l-0.05,0.08l2.27,1.63
			c0.04,0.03,0.06,0.05,0.08,0.08c0.01,0.02,0,0.07-0.02,0.14l0.05,0.04l0.6-0.84l-0.06-0.04c-0.1,0.09-0.18,0.12-0.25,0.06
			l-1.45-1.04l0.45-0.63l0.96,0.69c0.02,0.01,0.04,0.04,0.04,0.07c0.01,0.04-0.01,0.08-0.05,0.14l0.06,0.04l0.59-0.83l-0.06-0.04
			c-0.04,0.06-0.08,0.09-0.12,0.1c-0.03,0-0.06,0-0.08-0.02l-0.96-0.69l0.37-0.51l1.49,1.06c0.02,0.02,0.04,0.04,0.04,0.07
			c0.01,0.04-0.01,0.08-0.06,0.15l0.06,0.04l0.61-0.85l-0.06-0.04C29.14,77.93,29.1,77.96,29.07,77.97z M47.35,83.67
			c0.03,0,0.06,0.02,0.1,0.03c0.03,0.02,0.05,0.05,0.05,0.11c0,0.01-0.02,0.05-0.06,0.1c-0.05,0.06-0.11,0.13-0.19,0.21
			c-0.07,0.09-0.99,1.02-1.05,1.09l0.04-1.44c0-0.06,0.02-0.09,0.06-0.11c0.04-0.01,0.08-0.02,0.12-0.03l0-0.1l-1.17-0.07l0,0.09
			c0.04,0,0.07,0.01,0.11,0.03c0.03,0.02,0.05,0.06,0.05,0.12l-0.1,2.98c0,0.06-0.02,0.1-0.05,0.12c-0.03,0.02-0.07,0.03-0.11,0.02
			l0,0.09l1.17,0.07l0-0.1c-0.04,0-0.08-0.02-0.12-0.03c-0.04-0.02-0.06-0.05-0.06-0.11l0.02-0.64l0.57-0.64
			c0.02,0.04,0.57,1.15,0.6,1.21c0.03,0.06,0.04,0.1,0.04,0.12c0,0.06-0.03,0.09-0.07,0.11c-0.04,0.01-0.08,0.02-0.11,0.02l0,0.09
			l1.27,0.01l0-0.09c-0.03-0.01-0.06-0.02-0.08-0.03c-0.02-0.02-0.04-0.05-0.06-0.09l-0.97-1.93c0.08-0.08,0.54-0.6,0.66-0.72
			c0.11-0.12,0.23-0.24,0.33-0.33c0.11-0.1,0.19-0.15,0.25-0.16l0.01-0.09l-1.25-0.01V83.67z M24.64,76.32
			c0.11-0.01,0.8-0.12,0.97-0.14c0.17-0.02,0.32-0.04,0.46-0.04c0.14-0.01,0.24,0,0.29,0.04l0.06-0.07l-0.96-0.79l-0.06,0.07
			c0.02,0.03,0.04,0.06,0.06,0.09c0.01,0.03,0,0.07-0.03,0.12c-0.01,0.01-0.05,0.02-0.12,0.04c-0.07,0.01-0.16,0.03-0.27,0.05
			c-0.11,0.02-1.41,0.16-1.5,0.17l0.95-1.09c0.04-0.04,0.07-0.06,0.11-0.05c0.04,0.01,0.07,0.03,0.11,0.06l0.06-0.07l-0.86-0.79
			l-0.06,0.07c0.03,0.02,0.05,0.05,0.07,0.08c0.01,0.04,0,0.08-0.04,0.12l-1.96,2.24c-0.04,0.04-0.08,0.06-0.12,0.06
			c-0.04-0.01-0.07-0.03-0.1-0.05l-0.06,0.07l0.87,0.8l0.06-0.07c-0.03-0.03-0.05-0.06-0.07-0.1c-0.02-0.04-0.01-0.08,0.03-0.12
			l0.42-0.49l0.84-0.14c-0.01,0.04-0.29,1.25-0.31,1.32c-0.01,0.06-0.03,0.1-0.04,0.11c-0.04,0.04-0.08,0.06-0.12,0.04
			c-0.04-0.02-0.07-0.04-0.09-0.06l-0.06,0.07l0.97,0.81l0.06-0.07c-0.02-0.02-0.03-0.05-0.04-0.08c-0.01-0.03,0-0.06,0.01-0.11
			L24.64,76.32z M18.99,68.7c0.08-0.1,0.12-0.16,0.13-0.17c0.04-0.03,0.08-0.02,0.11,0.02l0.08-0.05l-0.73-1.09l-0.08,0.05
			c0.03,0.05,0.02,0.09-0.02,0.11c-0.02,0.01-0.13,0.05-0.33,0.1c-0.19,0.05-2.44,0.61-2.81,0.71c-0.03,0.01-0.05,0-0.08-0.01
			c-0.03-0.01-0.04-0.03-0.06-0.05l-0.08,0.05l0.5,0.79l0.07-0.05c-0.01-0.01-0.01-0.02-0.02-0.05c-0.01-0.02,0-0.04,0.04-0.06
			c0.02-0.01,0.05-0.02,0.09-0.03c0.05-0.01,0.39-0.1,0.44-0.11l0.8,1.21c-0.02,0.03-0.23,0.33-0.27,0.37
			c-0.03,0.04-0.05,0.06-0.07,0.07c-0.03,0.02-0.05,0.02-0.07,0.01c-0.02-0.01-0.03-0.03-0.04-0.04l-0.08,0.05l0.6,0.84l0.07-0.05
			c-0.01-0.02-0.02-0.04-0.02-0.07c0-0.03,0.01-0.05,0.02-0.07C17.29,71.07,18.91,68.81,18.99,68.7z M16.82,68.72l1.43-0.33
			l-0.85,1.2L16.82,68.72z M21.93,72.02c0.04,0.02,0.07,0.04,0.1,0.08l0.07-0.06l-0.75-0.85l-0.07,0.06
			c0.01,0.02,0.01,0.04,0.02,0.07c0,0.03-0.02,0.06-0.06,0.1l-1.48,1.21c-0.16,0.13-0.3,0.17-0.44,0.14
			c-0.13-0.03-0.27-0.12-0.39-0.27c-0.12-0.15-0.18-0.29-0.19-0.44c-0.01-0.14,0.07-0.28,0.22-0.4l1.48-1.22
			c0.04-0.04,0.08-0.05,0.11-0.04c0.03,0.01,0.05,0.02,0.07,0.03l0.07-0.06l-0.69-0.9l-0.07,0.06c0.02,0.04,0.04,0.08,0.06,0.12
			c0.01,0.04-0.01,0.07-0.05,0.11l-1.37,1.13c-0.16,0.13-0.3,0.27-0.41,0.43c-0.11,0.15-0.18,0.32-0.22,0.5
			c-0.04,0.18-0.02,0.36,0.04,0.55c0.06,0.19,0.18,0.4,0.36,0.61c0.17,0.21,0.35,0.37,0.52,0.47c0.18,0.1,0.36,0.15,0.54,0.15
			c0.18,0,0.35-0.04,0.53-0.12c0.17-0.08,0.34-0.19,0.5-0.32l1.36-1.12C21.86,72.01,21.9,72,21.93,72.02z M24.74,17.77
			c0.05-0.01,0.09,0.02,0.13,0.08l2.18,3.21c0.04,0.06,0.05,0.11,0.02,0.15c-0.02,0.04-0.05,0.08-0.08,0.1l0.07,0.1l1.28-0.93
			l-0.07-0.1c-0.06,0.03-0.11,0.05-0.16,0.06c-0.05,0.01-0.09-0.02-0.14-0.08l-0.78-1.14l0.74-0.5c0.03,0.03,1.03,0.56,1.16,0.64
			c0.13,0.08,0.2,0.13,0.22,0.16c0.03,0.04,0.03,0.09-0.01,0.13c-0.03,0.04-0.07,0.08-0.11,0.1l0.07,0.1l1.63-1.02l-0.07-0.1
			c-0.05,0.04-0.12,0.06-0.19,0.06c-0.07,0-0.14-0.02-0.2-0.04l-1.54-0.71c0.18-0.27,0.29-0.54,0.33-0.83
			c0.04-0.28-0.04-0.58-0.24-0.88c-0.26-0.39-0.57-0.6-0.93-0.64c-0.36-0.04-0.73,0.07-1.11,0.32l-2.42,1.7l0.07,0.1
			C24.65,17.79,24.69,17.77,24.74,17.77z M27.19,16.96c0.23-0.16,0.41-0.21,0.55-0.18c0.14,0.04,0.25,0.11,0.33,0.24
			c0.11,0.15,0.13,0.3,0.1,0.44c-0.04,0.14-0.15,0.26-0.31,0.37l-1.09,0.73l-0.61-0.91L27.19,16.96z M74.27,25.99
			c-0.06,0.04-0.19,0.04-0.3-0.08l-0.1,0.07l1.23,1.46l0.1-0.07c-0.03-0.06-0.05-0.12-0.07-0.16c-0.02-0.05-0.01-0.08,0.03-0.11
			c0.03-0.02,0.1-0.05,0.22-0.1c0.12-0.04,1.84-0.63,1.97-0.68c0.13-0.05,0.22-0.08,0.27-0.11l0.01,0.01
			c-0.03,0.04-0.09,0.12-0.17,0.24c-0.08,0.12-1.11,1.63-1.18,1.73c-0.07,0.1-0.12,0.17-0.15,0.19c-0.05,0.04-0.15,0-0.27-0.13
			l-0.1,0.07l1.11,1.59l0.1-0.07c-0.09-0.15-0.05-0.26,0.02-0.31c0.02-0.01,3.52-1.35,3.58-1.38c0.08-0.03,0.14-0.04,0.19-0.05
			c0.05-0.01,0.11,0.02,0.17,0.08l0.1-0.07l-0.82-1.26l-0.1,0.07c0.04,0.05,0.07,0.1,0.08,0.16c0.01,0.06-0.01,0.11-0.07,0.15
			c-0.03,0.02-2.37,0.96-2.43,0.99l-0.01-0.02c0.03-0.04,1.33-1.97,1.4-2.08c0.07-0.1,0.12-0.16,0.13-0.17
			c0.06-0.04,0.11-0.05,0.17-0.02c0.05,0.03,0.1,0.07,0.13,0.12l0.09-0.08l-1.12-1.47l-0.09,0.08c0.03,0.04,0.05,0.1,0.07,0.15
			c0.01,0.06-0.01,0.11-0.06,0.16c-0.03,0.03-0.11,0.06-0.23,0.1c-0.12,0.05-2.27,0.77-2.34,0.8l-0.01-0.01
			c0.04-0.05,1.58-2.1,1.6-2.12c0.06-0.04,0.12-0.05,0.17-0.02c0.05,0.03,0.1,0.07,0.13,0.11l0.1-0.07l-1.05-1.2l-0.1,0.07
			c0.02,0.02,0.03,0.05,0.03,0.08c0,0.03-0.01,0.07-0.05,0.11C76.62,22.78,74.3,25.97,74.27,25.99z M57.64,81.71l-0.14-0.48
			l-1.18,0.35l0.14,0.48L57.64,81.71z M52.43,86.66c-0.02-0.01-0.04-0.03-0.05-0.05c-0.06-0.13-1.21-2.66-1.27-2.77
			c-0.05-0.12-0.08-0.19-0.08-0.21c0-0.04,0.03-0.07,0.07-0.08l-0.01-0.09l-1.3,0.09l0.01,0.1c0.05,0,0.09,0.03,0.09,0.07
			c0,0.03-0.03,0.14-0.08,0.33c-0.05,0.2-0.69,2.42-0.79,2.79c-0.01,0.03-0.02,0.05-0.05,0.06c-0.02,0.02-0.05,0.02-0.07,0.03
			l0,0.09l0.93-0.03l-0.01-0.1c-0.01,0-0.03,0-0.05,0c-0.02-0.01-0.04-0.03-0.04-0.06c0-0.02,0.01-0.05,0.02-0.1
			c0.01-0.04,0.11-0.39,0.12-0.43l1.45-0.1c0.02,0.04,0.17,0.37,0.19,0.42c0.02,0.04,0.03,0.07,0.03,0.09
			c0,0.04-0.01,0.06-0.03,0.07c-0.02,0.01-0.04,0.01-0.05,0.01l0.01,0.09l1.02-0.1l-0.01-0.09C52.48,86.68,52.45,86.67,52.43,86.66z
			 M50.05,85.71l0.43-1.4l0.62,1.33L50.05,85.71z M48.06,16.85c-17.58,0-31.83,14.25-31.83,31.83c0,17.58,14.25,31.83,31.83,31.83
			c17.58,0,31.83-14.25,31.83-31.83C79.89,31.1,65.64,16.85,48.06,16.85z M49.19,25.64c0,0-0.23,2.01,0.6,1.84
			c1.05-0.2,1.75-2.35,5.32-3.2c0,0-0.8,2.26-0.11,3.89c0.68,2.11,1.78,3.4,0.68,6.56c-1.1,2.46-2.5,3.04-2.5,3.04h-1.34
			c0.74-0.75,1.75-1.94,2.08-3.15c0.38-1.42,0.05-2.27-0.28-3.09c-0.13-0.34-0.27-0.68-0.36-1.08c-0.29-1.34-0.07-2.76-0.06-2.78
			l0.19-1.16l-0.96,0.67c-0.44,0.31-1.03,0.62-1.64,0.96c-2.76,1.51-6.87,3.75-6.68,9.61l-1.86,0c0,0-1.39-1.96,0.12-5.48
			C44.14,28.22,49.19,25.64,49.19,25.64z M52.32,30.67c0.1,0.47,0.25,0.86,0.4,1.23c0.2,0.51,0.38,0.96,0.38,1.53
			c0,0.27-0.04,0.58-0.13,0.94c-0.42,1.54-2.32,3.19-2.58,3.41l-5.26,0c-0.01-0.12-0.01-0.25-0.01-0.37c0-5.01,3.54-6.93,6.17-8.37
			c0.3-0.16,0.59-0.32,0.87-0.48c0,0.12-0.01,0.24-0.01,0.38C52.14,29.44,52.18,30.06,52.32,30.67z M54.49,38.54
			c0.29,0,0.53,0.24,0.53,0.53c0,0.29-0.23,0.53-0.53,0.53H41.67c-0.29,0-0.53-0.24-0.53-0.53c0-0.29,0.24-0.53,0.53-0.53H54.49z
			 M43.64,45.61c-1.67-1.72-4.84-4.43-6.7-5.64l-1.19-3.17C36.57,37.03,39.6,38.57,43.64,45.61z M44.1,47.6l-11.39-4.88l-1.55-4.1
			C33.21,39,37.5,41.02,44.1,47.6z M42.33,40.37h11.55c-0.73,1.41-2.61,3.3-5.8,3.3C44.9,43.67,42.93,41.79,42.33,40.37z
			 M59.23,39.97c-1.87,1.21-5.04,3.92-6.71,5.64c4.04-7.04,7.08-8.59,7.9-8.81L59.23,39.97z M65.01,38.62l-1.55,4.1L52.07,47.6
			C58.67,41.02,62.96,39,65.01,38.62z M44.92,78.84c-0.5-0.05-1.13-0.14-1.13-0.14c-2-1.54-3.83-4.17-5.34-7.76
			c-0.52-1.23-0.99-2.55-1.41-3.94h-8.76c2.97,5.05,7.13,8.94,11.96,10.98c0,0-0.23-0.07-0.47-0.13c-0.62-0.15-1.69-0.53-1.69-0.53
			c-0.54-0.17-1.82-0.7-1.82-0.7c-3.5-2.32-6.51-5.63-8.8-9.63h-3.59c-0.03-0.04-0.52-0.7-0.52-0.7h3.73
			c-2.67-4.95-4.25-10.88-4.3-17.26h-5.08v-0.7h5.08c0.06-6.39,1.66-12.32,4.34-17.26h-3.79l0.53-0.7h3.64c0,0,0-0.01,0.01-0.01
			c2.35-4.09,5.46-7.46,9.08-9.77c0,0,1.71-0.71,2.82-0.99c0,0,0.82-0.23,1.12-0.31l0.21-0.04c-5.02,1.98-9.36,5.93-12.43,11.13
			h8.76c0.42-1.36,0.87-2.66,1.39-3.88c1.55-3.67,3.42-6.34,5.48-7.87c0,0,0.81-0.11,1.05-0.12c0.23-0.02,0.53-0.04,0.53-0.04
			c-3.15,1.55-5.88,5.9-7.73,11.91h4.18c0,0-0.26,0.43-0.4,0.7h-4c-0.43,1.47-0.8,3.04-1.12,4.68l-0.27-0.11
			c-0.15-0.06-0.39-0.12-0.39-0.12c0.3-1.55,0.66-3.03,1.07-4.44h-8.93c-2.74,4.91-4.37,10.85-4.43,17.26h5.25l0.27,0.7H23.5
			c0.05,6.41,1.67,12.35,4.4,17.26h8.95c-0.34-1.18-0.65-2.39-0.91-3.66l0.79,0.35c0.25,1.15,0.53,2.25,0.84,3.31h6.64l1.58,0.7
			h-8.02c1.82,5.93,4.49,10.25,7.58,11.88L44.92,78.84z M44.51,76.02c0.02,0.01,0.05,0.02,0.08,0.02v0.05h-0.94v-0.05
			c0.03,0,0.06-0.01,0.08-0.02c0.02-0.01,0.03-0.03,0.03-0.07v-1.5c-0.08,0.02-0.14,0.04-0.19,0.05c-0.05,0.01-0.09,0.03-0.11,0.04
			c-0.03,0.01-0.04,0.03-0.04,0.05c-0.01,0.02-0.01,0.04-0.01,0.07h-0.06v-0.76h0.06c0,0.02,0,0.04,0.01,0.07
			c0.01,0.03,0.02,0.04,0.04,0.04c0.01,0,0.03-0.01,0.05-0.02c0.03-0.01,0.06-0.02,0.1-0.04c0.03-0.01,0.07-0.03,0.1-0.04
			c0.03-0.01,0.05-0.02,0.06-0.02v-0.15c0-0.03-0.01-0.05-0.03-0.07c-0.02-0.01-0.04-0.02-0.06-0.02v-0.06h0.92v0.06
			c-0.03,0-0.06,0.01-0.08,0.02c-0.03,0.01-0.04,0.03-0.04,0.07v2.19C44.47,75.99,44.49,76.01,44.51,76.02z M47.58,75.37
			c-0.08,0.16-0.18,0.3-0.32,0.41c-0.13,0.11-0.28,0.19-0.46,0.25c-0.17,0.05-0.36,0.08-0.55,0.08c-0.12,0-0.23-0.01-0.34-0.02
			c-0.1-0.01-0.19-0.03-0.26-0.05c-0.08-0.02-0.14-0.04-0.18-0.05c-0.04-0.02-0.07-0.02-0.08-0.02c-0.04,0-0.07,0.02-0.11,0.05
			L45.24,76l0.37-0.63l0.05,0.02v0.04c0,0.04,0.02,0.08,0.05,0.11c0.04,0.03,0.08,0.05,0.14,0.07c0.05,0.02,0.12,0.03,0.19,0.04
			c0.07,0.01,0.15,0.01,0.22,0.01c0.1,0,0.2-0.01,0.29-0.04c0.09-0.03,0.18-0.07,0.25-0.12c0.07-0.05,0.14-0.12,0.19-0.2
			c0.04-0.08,0.07-0.18,0.08-0.29c-0.16,0.08-0.31,0.14-0.45,0.18c-0.13,0.04-0.28,0.06-0.44,0.06c-0.12,0-0.24-0.02-0.35-0.06
			c-0.11-0.04-0.21-0.09-0.29-0.16c-0.09-0.07-0.15-0.16-0.2-0.26c-0.05-0.1-0.08-0.22-0.08-0.35c0-0.15,0.04-0.28,0.11-0.38
			c0.07-0.11,0.16-0.19,0.27-0.26c0.11-0.06,0.23-0.11,0.36-0.14c0.13-0.03,0.26-0.04,0.39-0.04c0.2,0,0.38,0.03,0.54,0.08
			c0.16,0.05,0.3,0.12,0.41,0.23c0.12,0.1,0.21,0.23,0.27,0.38c0.06,0.15,0.1,0.33,0.1,0.54C47.7,75.03,47.66,75.21,47.58,75.37z
			 M47.31,70.72l-0.4-4.56h0l-0.42-4.77c0-0.04-0.04-0.08-0.08-0.08c-0.04,0-0.07,0.04-0.07,0.08l-0.26,4.4L34.8,60.8
			c-0.1-0.26-6.58-17.37-7.11-18.78l17.74,7.36l-0.49-5.57c0.72,0.32,1.56,0.54,2.5,0.61l0.5,9.23c0,0.07,0.06,0.12,0.13,0.12
			s0.13-0.05,0.13-0.12l0.5-9.23c0.95-0.07,1.79-0.29,2.51-0.62l-0.49,5.58l17.75-7.36c-0.54,1.41-7.01,18.52-7.11,18.78
			l-11.28,4.99l-0.25-4.4c0-0.04-0.04-0.08-0.08-0.08c-0.04,0-0.07,0.04-0.07,0.08l-0.42,4.77h0l-0.4,4.56
			c-0.02,0.41-0.36,0.73-0.78,0.73C47.67,71.45,47.33,71.13,47.31,70.72z M50.65,75.44c-0.07,0.15-0.16,0.29-0.28,0.4
			c-0.12,0.11-0.25,0.2-0.41,0.26c-0.16,0.06-0.32,0.09-0.49,0.09c-0.18,0-0.34-0.03-0.49-0.09c-0.15-0.06-0.29-0.15-0.41-0.26
			c-0.12-0.11-0.21-0.24-0.28-0.4s-0.1-0.32-0.1-0.5c0-0.18,0.03-0.35,0.1-0.5s0.16-0.29,0.28-0.4c0.12-0.11,0.26-0.2,0.41-0.27
			c0.15-0.06,0.32-0.1,0.49-0.1c0.17,0,0.34,0.03,0.49,0.1c0.15,0.06,0.29,0.15,0.41,0.27c0.12,0.11,0.21,0.25,0.28,0.4
			s0.1,0.32,0.1,0.5C50.75,75.12,50.72,75.29,50.65,75.44z M72.73,31.08h-3.67c2.68,4.94,4.27,10.87,4.33,17.26h4.96l0,0.7h-4.96
			c-0.05,6.38-1.63,12.32-4.3,17.26h3.61c0,0-0.4,0.55-0.52,0.7h-3.48c-2.25,3.93-5.2,7.2-8.62,9.51l-0.27,0.11
			c-0.31,0.15-1.58,0.63-1.58,0.63c-0.81,0.3-2.12,0.66-2.12,0.66c4.75-2.07,8.85-5.92,11.78-10.91h-8.76
			c-0.42,1.39-0.89,2.7-1.41,3.94c-1.51,3.58-3.33,6.2-5.32,7.75c0,0-0.35,0.06-0.57,0.08c-0.21,0.02-0.97,0.11-0.97,0.11
			c3.08-1.64,5.74-5.96,7.55-11.87h-8.04l1.58-0.7h6.67c0.31-1.07,0.59-2.17,0.84-3.33l0.78-0.34c-0.26,1.27-0.58,2.49-0.91,3.68
			h8.96c2.72-4.91,4.34-10.85,4.39-17.26h-5.55l0.26-0.7h5.29c-0.06-6.41-1.69-12.35-4.43-17.26h-8.93c0.4,1.41,0.76,2.88,1.06,4.41
			l-0.14,0.05c-0.19,0.06-0.52,0.2-0.52,0.2c-0.32-1.64-0.69-3.19-1.12-4.66h-1.34c-0.07-0.42-0.17-0.7-0.17-0.7h1.3
			c-1.85-6.01-4.58-10.36-7.72-11.91c0,0,0.87,0.08,1.07,0.11c0.21,0.03,0.54,0.08,0.54,0.08c2.04,1.53,3.9,4.19,5.45,7.84
			c0.51,1.21,0.97,2.51,1.38,3.88h8.76c-3.04-5.15-7.32-9.07-12.28-11.07c0,0,1.71,0.46,2.68,0.82c0,0,0.98,0.36,1.13,0.44
			c0.13,0.06,0.37,0.15,0.37,0.15c3.54,2.31,6.59,5.63,8.9,9.66h3.52L72.73,31.08z M52.56,76.02c0.03,0.01,0.05,0.02,0.08,0.02v0.06
			H51.6v-0.06c0.04,0,0.06-0.02,0.09-0.04c0.02-0.02,0.04-0.05,0.06-0.08l1.04-1.74h-1.52c-0.02,0-0.04,0.01-0.06,0.02
			c-0.02,0.01-0.03,0.04-0.03,0.09h-0.05v-0.78h0.05c0,0.05,0.01,0.08,0.03,0.1c0.02,0.01,0.04,0.02,0.06,0.02h2.11
			c0.02,0,0.04-0.01,0.05-0.02c0.02-0.02,0.03-0.04,0.03-0.09h0.05v0.6l-0.91,1.65c-0.02,0.03-0.04,0.07-0.06,0.11
			c-0.02,0.04-0.03,0.07-0.03,0.08C52.53,75.99,52.54,76.02,52.56,76.02z M61.37,84.51c-0.04,0-0.07-0.03-0.09-0.09l-1-2.8
			c-0.02-0.05-0.02-0.09,0.01-0.12c0.03-0.03,0.07-0.05,0.13-0.08l-0.03-0.09l-1.17,0.42l0.04,0.09c0.06-0.02,0.11-0.02,0.15-0.02
			c0.04,0,0.07,0.03,0.09,0.08l1,2.8c0.02,0.05,0.02,0.1-0.01,0.12c-0.03,0.03-0.07,0.05-0.13,0.08L60.39,85l1.16-0.42l-0.03-0.09
			C61.46,84.51,61.4,84.51,61.37,84.51z M59.74,85.08c-0.03,0-0.05-0.02-0.06-0.04c-0.08-0.12-1.71-2.36-1.79-2.47
			c-0.07-0.11-0.12-0.17-0.12-0.18c-0.01-0.05,0.01-0.08,0.06-0.1l-0.03-0.09l-1.26,0.34l0.02,0.09c0.05-0.01,0.09,0.01,0.1,0.06
			c0.01,0.03,0,0.14-0.01,0.34c-0.02,0.2-0.2,2.51-0.22,2.89c0,0.03-0.01,0.05-0.03,0.07c-0.02,0.02-0.04,0.03-0.07,0.04l0.02,0.09
			l0.9-0.21l-0.03-0.09c-0.01,0-0.03,0-0.05,0.01c-0.02,0-0.04-0.02-0.05-0.05c-0.01-0.02-0.01-0.05,0-0.1
			c0-0.05,0.03-0.41,0.03-0.45l1.41-0.38c0.02,0.03,0.24,0.33,0.26,0.37c0.03,0.04,0.04,0.07,0.04,0.09
			c0.01,0.04,0.01,0.06-0.01,0.07c-0.02,0.01-0.03,0.02-0.05,0.02l0.02,0.09l0.98-0.3l-0.02-0.09
			C59.8,85.08,59.77,85.08,59.74,85.08z M57.23,84.62l0.14-1.46l0.87,1.19L57.23,84.62z M65.79,19.07
			c-0.06-0.04-0.11-0.09-0.14-0.13c-0.03-0.04-0.02-0.1,0.01-0.16l0.82-1.3l1.73,1.08l-0.82,1.3c-0.04,0.06-0.09,0.09-0.14,0.08
			c-0.05-0.01-0.11-0.03-0.18-0.06l-0.06,0.1l1.43,1l0.06-0.1c-0.06-0.04-0.1-0.09-0.13-0.13c-0.03-0.04-0.03-0.1,0.01-0.16
			l2.06-3.29c0.04-0.06,0.09-0.09,0.14-0.08c0.05,0.01,0.11,0.03,0.18,0.06l0.06-0.1l-1.45-1l-0.06,0.1
			c0.06,0.04,0.1,0.09,0.13,0.13c0.04,0.04,0.03,0.1-0.01,0.16l-0.68,1.11l-1.73-1.08l0.69-1.11c0.04-0.06,0.09-0.09,0.14-0.08
			c0.05,0.01,0.11,0.03,0.18,0.06l0.06-0.1l-1.52-0.87l-0.06,0.1c0.06,0.04,0.1,0.09,0.13,0.13c0.03,0.04,0.03,0.1-0.01,0.16
			l-2.05,3.3c-0.04,0.06-0.08,0.09-0.14,0.08c-0.05-0.01-0.11-0.03-0.18-0.06l-0.06,0.1l1.51,0.86L65.79,19.07z M72.95,19.67
			c-0.24,0.12-3.1,1.54-3.55,1.77c-0.03,0.02-0.07,0.02-0.11,0.01c-0.04-0.01-0.07-0.03-0.1-0.05l-0.08,0.09l1.09,0.89l0.08-0.09
			c-0.01-0.01-0.03-0.03-0.05-0.06c-0.02-0.03-0.01-0.06,0.02-0.09c0.02-0.02,0.06-0.04,0.11-0.07c0.06-0.03,0.51-0.24,0.55-0.27
			l1.59,1.42c-0.02,0.05-0.18,0.55-0.2,0.61c-0.02,0.06-0.04,0.1-0.06,0.12c-0.03,0.04-0.06,0.04-0.09,0.03
			c-0.02-0.01-0.04-0.03-0.06-0.04l-0.08,0.09l1.1,1.11l0.08-0.09c-0.03-0.02-0.05-0.05-0.07-0.09c-0.02-0.04-0.02-0.07,0-0.11
			c0.07-0.18,1.29-3.85,1.34-4.01c0.06-0.16,0.1-0.25,0.11-0.27c0.04-0.04,0.09-0.04,0.16,0l0.08-0.09l-1.41-1.29l-0.08,0.09
			c0.05,0.06,0.06,0.11,0.02,0.15C73.32,19.48,73.19,19.56,72.95,19.67z M72.76,22.48l-1.14-1.02l1.74-0.82L72.76,22.48z
			 M35.38,12.08c0.05,0,0.09,0.04,0.12,0.11l1.21,3.68c0.03,0.07,0.02,0.12-0.03,0.16c-0.04,0.04-0.11,0.07-0.19,0.11l0.04,0.12
			l1.74-0.57l-0.04-0.12c-0.09,0.02-0.16,0.03-0.22,0.03c-0.06,0-0.1-0.04-0.12-0.11l-1.21-3.68c-0.02-0.07-0.01-0.12,0.03-0.16
			c0.04-0.04,0.11-0.07,0.19-0.11l-0.04-0.12L35.13,12l0.03,0.12C35.25,12.09,35.33,12.08,35.38,12.08z M30.96,16.09
			c0.2,0.08,0.42,0.12,0.66,0.1c0.24-0.02,0.49-0.06,0.74-0.14c0.25-0.08,0.48-0.15,0.7-0.22c0.21-0.06,0.4-0.1,0.56-0.11
			c0.16-0.01,0.27,0.05,0.33,0.17c0.04,0.09,0.04,0.18,0.01,0.26c-0.03,0.08-0.08,0.15-0.15,0.22c-0.07,0.07-0.15,0.12-0.23,0.17
			c-0.08,0.05-0.15,0.08-0.2,0.1c-0.17,0.08-0.36,0.15-0.56,0.21c-0.21,0.06-0.4,0.11-0.59,0.13s-0.35,0.04-0.47,0.04
			c-0.13-0.01-0.21-0.04-0.24-0.1c-0.01-0.03-0.02-0.05-0.03-0.06c-0.01-0.02-0.01-0.03-0.01-0.04l-0.13-0.01l0.22,1.39l0.11-0.01
			c0.02-0.04,0.03-0.09,0.05-0.13c0.02-0.04,0.05-0.07,0.08-0.09c0.02-0.01,0.09-0.02,0.22-0.04c0.13-0.02,0.29-0.05,0.48-0.09
			c0.19-0.04,0.4-0.09,0.62-0.16c0.22-0.07,0.43-0.15,0.63-0.24c0.32-0.15,0.58-0.3,0.78-0.47c0.2-0.17,0.35-0.35,0.44-0.54
			c0.1-0.19,0.14-0.39,0.14-0.58c0-0.2-0.04-0.38-0.13-0.56c-0.12-0.27-0.29-0.45-0.49-0.54c-0.21-0.09-0.43-0.13-0.66-0.11
			c-0.24,0.01-0.49,0.06-0.74,0.13c-0.25,0.07-0.49,0.14-0.71,0.21c-0.21,0.06-0.4,0.11-0.55,0.12c-0.16,0.02-0.26-0.03-0.31-0.14
			c-0.05-0.1-0.04-0.2,0.01-0.29c0.06-0.09,0.13-0.17,0.23-0.25c0.09-0.08,0.19-0.14,0.3-0.2c0.1-0.05,0.18-0.09,0.23-0.11
			c0.15-0.07,0.29-0.12,0.44-0.15c0.15-0.04,0.29-0.06,0.41-0.07c0.13-0.01,0.23-0.02,0.31-0.01c0.08,0.01,0.13,0.02,0.14,0.04
			c0.01,0.02,0.01,0.04,0.02,0.06c0.01,0.02,0.01,0.04,0.02,0.05l0.13,0l-0.03-1.39l-0.11,0.01c-0.01,0.03-0.03,0.06-0.04,0.1
			c-0.01,0.04-0.04,0.07-0.09,0.09c-0.04,0.02-0.12,0.04-0.24,0.07c-0.12,0.02-0.25,0.05-0.42,0.09c-0.16,0.04-0.34,0.08-0.53,0.14
			c-0.19,0.06-0.39,0.13-0.59,0.23c-0.34,0.16-0.61,0.33-0.81,0.53c-0.2,0.2-0.34,0.4-0.42,0.6c-0.09,0.2-0.12,0.4-0.11,0.59
			c0.01,0.19,0.04,0.36,0.11,0.5C30.6,15.84,30.76,16.01,30.96,16.09z M38.57,12.25c-0.02-0.09-0.02-0.16,0.02-0.19
			c0.03-0.03,0.06-0.05,0.1-0.06l1.29-0.26l0.62,3.05c0.01,0.07,0,0.12-0.04,0.15c-0.04,0.03-0.09,0.05-0.13,0.07l0.02,0.12
			l1.63-0.33l-0.03-0.12c-0.05,0-0.1,0-0.15-0.01c-0.05-0.01-0.08-0.05-0.09-0.13l-0.61-3.05l1.29-0.26c0.04-0.01,0.08,0,0.12,0.02
			c0.04,0.02,0.07,0.07,0.09,0.17l0.11-0.02L42.5,9.94l-0.11,0.02c0.02,0.09,0.01,0.16-0.02,0.19c-0.03,0.03-0.06,0.06-0.1,0.06
			l-3.79,0.76c-0.04,0.01-0.08,0-0.12-0.02c-0.04-0.02-0.07-0.08-0.09-0.17l-0.11,0.02l0.29,1.46L38.57,12.25z M55.23,83.64
			c-0.12-0.07-0.25-0.08-0.4-0.06c-0.01-0.17,0.03-0.31,0.11-0.43s0.17-0.22,0.28-0.3l-0.05-0.22c-0.1,0.07-0.2,0.15-0.3,0.24
			c-0.1,0.09-0.18,0.2-0.25,0.32c-0.07,0.12-0.11,0.25-0.14,0.39c-0.03,0.14-0.03,0.29,0,0.46c0.04,0.19,0.11,0.34,0.21,0.46
			c0.1,0.12,0.24,0.17,0.4,0.14c0.13-0.03,0.22-0.09,0.3-0.21c0.08-0.11,0.1-0.25,0.07-0.41C55.42,83.84,55.35,83.71,55.23,83.64z
			 M43.65,10.19c0.06,0.01,0.1,0.04,0.12,0.07l1.85,2.49l0.06,1.3c0,0.07-0.02,0.12-0.06,0.15c-0.04,0.02-0.08,0.04-0.13,0.04
			l0.01,0.12l1.62-0.08l0-0.12c-0.04-0.01-0.09-0.02-0.13-0.04c-0.04-0.02-0.07-0.06-0.07-0.14l-0.07-1.35l1.42-2.61
			c0.02-0.04,0.06-0.07,0.12-0.09c0.05-0.02,0.1-0.02,0.13-0.03L48.51,9.8l-1.79,0.02l0.01,0.12c0.03,0,0.07,0,0.12,0.01
			c0.05,0.01,0.07,0.04,0.08,0.09c0,0.03-0.03,0.14-0.1,0.27c-0.06,0.12-0.61,1.09-0.63,1.15c-0.1-0.13-0.79-1.03-0.85-1.12
			c-0.06-0.09-0.09-0.18-0.09-0.21c0-0.05,0.02-0.09,0.07-0.1c0.05-0.01,0.1-0.02,0.13-0.02l-0.01-0.12l-1.95,0.17l0.01,0.12
			C43.54,10.18,43.59,10.18,43.65,10.19z M59.14,15.99c-0.06-0.03-0.12-0.06-0.16-0.1c-0.04-0.03-0.05-0.09-0.02-0.16l0.45-1.3
			l1.6,0.55c0.03,0.01,0.06,0.04,0.09,0.08c0.03,0.04,0.02,0.11-0.01,0.21l0.1,0.04l0.45-1.28l-0.11-0.04
			c-0.03,0.09-0.07,0.14-0.11,0.15c-0.05,0.01-0.08,0.01-0.12,0l-1.59-0.55l0.31-0.88l2.36,0.82c0.03,0.01,0.06,0.04,0.09,0.08
			c0.02,0.04,0.02,0.11-0.02,0.2l0.11,0.04l0.45-1.3l-0.1-0.03c-0.03,0.09-0.07,0.14-0.12,0.16c-0.04,0.01-0.09,0.01-0.12,0
			l-3.78-1.32l-0.04,0.12c0.07,0.03,0.13,0.07,0.18,0.1c0.04,0.04,0.05,0.09,0.02,0.16l-1.27,3.67c-0.02,0.07-0.06,0.11-0.12,0.11
			c-0.05,0-0.12-0.01-0.19-0.02l-0.04,0.11l1.66,0.51L59.14,15.99z M52.92,14.1c0.2,0.22,0.43,0.4,0.71,0.53
			c0.27,0.13,0.55,0.23,0.83,0.28c0.29,0.05,0.57,0.07,0.88,0.04c0.3-0.03,0.59-0.11,0.85-0.24c0.27-0.13,0.5-0.33,0.7-0.58
			c0.2-0.25,0.33-0.58,0.41-0.98c0.07-0.39,0.07-0.74-0.03-1.06c-0.09-0.31-0.23-0.58-0.43-0.81c-0.2-0.23-0.43-0.41-0.7-0.55
			c-0.27-0.14-0.55-0.24-0.83-0.29c-0.28-0.05-0.57-0.06-0.88-0.03c-0.3,0.03-0.59,0.12-0.85,0.26c-0.27,0.14-0.5,0.34-0.7,0.6
			c-0.2,0.26-0.33,0.58-0.41,0.98c-0.07,0.4-0.07,0.75,0.02,1.06C52.58,13.61,52.73,13.88,52.92,14.1z M53.83,11.98
			c0.09-0.13,0.21-0.24,0.34-0.32c0.13-0.08,0.28-0.14,0.44-0.16c0.16-0.03,0.33-0.03,0.49,0.01c0.17,0.03,0.33,0.09,0.46,0.17
			c0.14,0.09,0.26,0.19,0.35,0.31c0.09,0.12,0.16,0.27,0.2,0.42c0.03,0.16,0.03,0.33,0,0.52c-0.04,0.19-0.1,0.34-0.19,0.48
			c-0.09,0.13-0.2,0.24-0.34,0.32c-0.13,0.08-0.28,0.14-0.44,0.16c-0.16,0.03-0.32,0.03-0.5-0.01c-0.17-0.03-0.32-0.09-0.46-0.17
			c-0.14-0.09-0.26-0.19-0.35-0.31c-0.1-0.12-0.16-0.27-0.2-0.42c-0.04-0.16-0.04-0.33,0-0.52C53.68,12.28,53.74,12.11,53.83,11.98z
			"/>
	</g>
</g>
<g>
	<g>
		<path class="st0" d="M124.74,23.97c0-1.68,0-1.98-0.02-2.32c-0.02-0.37-0.11-0.54-0.46-0.61c-0.09-0.02-0.27-0.03-0.37-0.03
			c-0.04,0-0.09-0.02-0.09-0.06c0-0.06,0.05-0.09,0.17-0.09c0.48,0,1.14,0.03,1.24,0.03c0.1,0,0.74-0.03,1.07-0.03
			c0.12,0,0.17,0.02,0.17,0.09c0,0.04-0.04,0.06-0.09,0.06c-0.08,0-0.14,0.01-0.27,0.03c-0.29,0.04-0.38,0.24-0.4,0.61
			c-0.02,0.34-0.02,0.65-0.02,2.32v1.51c0,1.55,0.34,2.22,0.81,2.66c0.53,0.49,1.01,0.59,1.62,0.59c0.66,0,1.3-0.31,1.69-0.77
			c0.49-0.61,0.62-1.53,0.62-2.64v-1.34c0-1.68,0-1.98-0.02-2.32c-0.02-0.37-0.11-0.54-0.46-0.61c-0.09-0.02-0.27-0.03-0.37-0.03
			c-0.04,0-0.09-0.02-0.09-0.06c0-0.06,0.05-0.09,0.17-0.09c0.48,0,1.08,0.03,1.14,0.03c0.08,0,0.58-0.03,0.9-0.03
			c0.12,0,0.17,0.02,0.17,0.09c0,0.04-0.04,0.06-0.09,0.06c-0.08,0-0.14,0.01-0.27,0.03c-0.29,0.06-0.38,0.24-0.4,0.61
			c-0.02,0.34-0.02,0.65-0.02,2.32v1.15c0,1.16-0.13,2.45-0.99,3.22c-0.78,0.69-1.58,0.8-2.22,0.8c-0.37,0-1.45-0.04-2.22-0.76
			c-0.53-0.51-0.94-1.26-0.94-2.83V23.97z"/>
		<path class="st0" d="M133.78,27.74c0.02,0.75,0.11,0.98,0.37,1.04c0.17,0.04,0.39,0.05,0.47,0.05c0.04,0,0.08,0.03,0.08,0.08
			c0,0.05-0.06,0.08-0.17,0.08c-0.54,0-0.91-0.03-1-0.03c-0.09,0-0.48,0.03-0.91,0.03c-0.1,0-0.15-0.01-0.15-0.08
			c0-0.04,0.03-0.08,0.08-0.08c0.08,0,0.25-0.01,0.39-0.05c0.24-0.06,0.27-0.31,0.27-1.14V22.4c0-0.37,0.05-0.46,0.13-0.46
			c0.11,0,0.27,0.18,0.37,0.28c0.15,0.15,1.53,1.61,2.99,3.12c0.94,0.97,1.95,2.05,2.24,2.36l-0.1-4.58
			c-0.01-0.59-0.06-0.8-0.35-0.85c-0.17-0.03-0.39-0.04-0.46-0.04c-0.06,0-0.08-0.05-0.08-0.09c0-0.05,0.08-0.06,0.18-0.06
			c0.43,0,0.88,0.02,0.99,0.02c0.11,0,0.42-0.02,0.81-0.02c0.1,0,0.17,0.01,0.17,0.06c0,0.03-0.04,0.09-0.11,0.09
			c-0.04,0-0.12,0-0.23,0.02c-0.31,0.06-0.33,0.25-0.33,0.8l-0.02,5.36c0,0.6-0.01,0.66-0.08,0.66c-0.1,0-0.19-0.08-0.72-0.56
			c-0.1-0.09-1.46-1.43-2.46-2.47c-1.1-1.15-2.16-2.27-2.45-2.59L133.78,27.74z"/>
		<path class="st0" d="M143.14,26.33c0,0.88,0,1.6,0.04,1.98c0.03,0.27,0.06,0.44,0.34,0.48c0.14,0.02,0.34,0.04,0.43,0.04
			c0.05,0,0.08,0.04,0.08,0.08c0,0.04-0.04,0.08-0.15,0.08c-0.53,0-1.14-0.03-1.18-0.03c-0.05,0-0.65,0.03-0.94,0.03
			c-0.1,0-0.15-0.02-0.15-0.08c0-0.03,0.02-0.08,0.08-0.08c0.09,0,0.21-0.02,0.29-0.04c0.18-0.04,0.21-0.21,0.25-0.48
			c0.04-0.38,0.05-1.1,0.05-1.98v-1.61c0-1.42,0-1.68-0.02-1.97c-0.02-0.31-0.1-0.45-0.3-0.5c-0.11-0.02-0.23-0.03-0.29-0.03
			c-0.04,0-0.08-0.04-0.08-0.08c0-0.05,0.04-0.08,0.15-0.08c0.31,0,0.9,0.02,0.96,0.02c0.04,0,0.66-0.02,0.95-0.02
			c0.11,0,0.15,0.02,0.15,0.08c0,0.03-0.04,0.08-0.08,0.08c-0.06,0-0.13,0-0.24,0.02c-0.26,0.05-0.31,0.18-0.33,0.51
			c-0.01,0.29-0.01,0.55-0.01,1.97V26.33z"/>
		<path class="st0" d="M148.89,27.79c0.55-1.23,1.79-4.35,1.99-5c0.04-0.14,0.09-0.27,0.09-0.34c0-0.08-0.03-0.16-0.13-0.19
			c-0.11-0.03-0.21-0.03-0.32-0.03c-0.05,0-0.11-0.03-0.11-0.08c0-0.05,0.06-0.08,0.21-0.08c0.38,0,0.81,0.02,0.93,0.02
			c0.05,0,0.46-0.02,0.74-0.02c0.1,0,0.15,0.02,0.15,0.06s-0.03,0.09-0.11,0.09c-0.06,0-0.28,0-0.45,0.11
			c-0.13,0.09-0.28,0.22-0.53,0.84c-0.11,0.26-0.57,1.36-1.05,2.47c-0.58,1.33-1,2.32-1.22,2.78c-0.26,0.55-0.31,0.69-0.41,0.69
			c-0.11,0-0.17-0.12-0.36-0.56l-2.32-5.6c-0.22-0.52-0.35-0.61-0.66-0.69c-0.15-0.03-0.31-0.03-0.37-0.03
			c-0.05,0-0.07-0.05-0.07-0.09c0-0.05,0.1-0.06,0.25-0.06c0.45,0,0.99,0.02,1.11,0.02c0.1,0,0.52-0.02,0.88-0.02
			c0.17,0,0.26,0.02,0.26,0.06s-0.03,0.09-0.1,0.09c-0.11,0-0.26,0.01-0.34,0.04c-0.1,0.04-0.11,0.1-0.11,0.16
			c0,0.12,0.12,0.4,0.26,0.76L148.89,27.79z"/>
		<path class="st0" d="M154.08,24.71c0-1.42,0-1.68-0.02-1.97c-0.02-0.31-0.07-0.46-0.39-0.51c-0.08-0.01-0.24-0.02-0.32-0.02
			c-0.03,0-0.08-0.04-0.08-0.08c0-0.05,0.04-0.08,0.15-0.08c0.43,0,1.04,0.02,1.1,0.02c0.06,0,2.04,0.01,2.26,0
			c0.18-0.01,0.35-0.04,0.43-0.05c0.04-0.01,0.09-0.04,0.13-0.04c0.03,0,0.04,0.04,0.04,0.09c0,0.06-0.05,0.17-0.08,0.43
			c-0.01,0.09-0.03,0.49-0.05,0.6c-0.01,0.04-0.04,0.1-0.09,0.1c-0.05,0-0.08-0.04-0.08-0.12c0-0.06-0.01-0.22-0.05-0.32
			c-0.06-0.15-0.16-0.22-0.68-0.28c-0.16-0.02-1.26-0.03-1.37-0.03c-0.04,0-0.05,0.03-0.05,0.1v2.48c0,0.06,0,0.1,0.05,0.1
			c0.12,0,1.37,0,1.58-0.02c0.23-0.02,0.37-0.03,0.46-0.13c0.06-0.06,0.11-0.12,0.14-0.12c0.03,0,0.05,0.02,0.05,0.08
			c0,0.05-0.05,0.2-0.08,0.51c-0.02,0.18-0.04,0.53-0.04,0.59c0,0.08-0.02,0.17-0.09,0.17c-0.04,0-0.07-0.03-0.07-0.09
			c0-0.09,0-0.18-0.04-0.3c-0.03-0.13-0.12-0.24-0.48-0.28c-0.26-0.03-1.27-0.04-1.43-0.04c-0.05,0-0.06,0.03-0.06,0.06v0.76
			c0,0.31-0.01,1.38,0,1.56c0.02,0.61,0.19,0.73,1.13,0.73c0.25,0,0.7,0,0.95-0.1c0.25-0.11,0.38-0.27,0.43-0.63
			c0.02-0.11,0.04-0.14,0.1-0.14c0.05,0,0.06,0.08,0.06,0.14c0,0.06-0.08,0.69-0.13,0.88c-0.06,0.24-0.16,0.24-0.53,0.24
			c-0.71,0-1.26-0.02-1.65-0.03c-0.4-0.02-0.64-0.02-0.79-0.02c-0.02,0-0.2,0-0.41,0.01c-0.18,0.01-0.4,0.02-0.55,0.02
			c-0.1,0-0.15-0.02-0.15-0.08c0-0.03,0.02-0.08,0.07-0.08c0.09,0,0.21-0.03,0.29-0.04c0.18-0.03,0.21-0.21,0.25-0.48
			c0.05-0.38,0.05-1.1,0.05-1.98V24.71z"/>
		<path class="st0" d="M159.64,24.71c0-1.42,0-1.68-0.02-1.97c-0.02-0.31-0.08-0.46-0.39-0.51c-0.08-0.01-0.24-0.02-0.32-0.02
			c-0.03,0-0.07-0.04-0.07-0.08c0-0.05,0.04-0.08,0.15-0.08c0.43,0,1.06,0.02,1.12,0.02c0.1,0,0.89-0.02,1.18-0.02
			c0.6,0,1.27,0.05,1.76,0.4c0.24,0.17,0.66,0.61,0.66,1.25c0,0.68-0.28,1.33-1.16,2.09c0.77,0.97,1.43,1.8,1.98,2.37
			c0.51,0.52,0.82,0.6,1.05,0.63c0.18,0.03,0.28,0.03,0.33,0.03c0.05,0,0.09,0.04,0.09,0.08c0,0.05-0.05,0.08-0.23,0.08h-0.59
			c-0.54,0-0.77-0.05-1.01-0.18c-0.41-0.22-0.75-0.66-1.29-1.34c-0.4-0.5-0.82-1.09-1.02-1.33c-0.04-0.04-0.06-0.05-0.13-0.05
			l-1.21-0.02c-0.04,0-0.06,0.02-0.06,0.08v0.21c0,0.88,0,1.59,0.04,1.97c0.03,0.27,0.09,0.44,0.38,0.48
			c0.13,0.02,0.33,0.04,0.42,0.04c0.06,0,0.08,0.04,0.08,0.08c0,0.04-0.04,0.08-0.15,0.08c-0.52,0-1.12-0.03-1.16-0.03
			c-0.01,0-0.65,0.03-0.94,0.03c-0.1,0-0.15-0.02-0.15-0.08c0-0.03,0.02-0.08,0.08-0.08c0.09,0,0.2-0.02,0.29-0.04
			c0.18-0.04,0.2-0.21,0.25-0.48c0.05-0.38,0.05-1.1,0.05-1.98V24.71z M160.46,25.49c0,0.05,0.02,0.09,0.06,0.12
			c0.14,0.08,0.62,0.14,1.04,0.14c0.22,0,0.48-0.01,0.71-0.16c0.32-0.22,0.57-0.7,0.57-1.4c0-1.14-0.62-1.8-1.63-1.8
			c-0.28,0-0.58,0.03-0.68,0.05c-0.04,0.02-0.08,0.05-0.08,0.11V25.49z"/>
		<path class="st0" d="M166.34,28.86c-0.13-0.06-0.14-0.1-0.14-0.34c0-0.45,0.04-0.82,0.05-0.97c0-0.1,0.02-0.15,0.08-0.15
			s0.09,0.03,0.09,0.11c0,0.08,0,0.2,0.03,0.33c0.15,0.67,0.86,0.9,1.5,0.9c0.94,0,1.42-0.53,1.42-1.22c0-0.66-0.35-0.97-1.19-1.59
			l-0.43-0.32c-1.02-0.76-1.36-1.32-1.36-1.96c0-1.08,0.85-1.72,2.1-1.72c0.38,0,0.75,0.05,0.98,0.11c0.18,0.04,0.26,0.04,0.33,0.04
			s0.1,0.01,0.1,0.06c0,0.04-0.04,0.34-0.04,0.97c0,0.14-0.01,0.2-0.08,0.2c-0.06,0-0.08-0.04-0.09-0.12
			c-0.01-0.11-0.09-0.35-0.14-0.45c-0.06-0.11-0.38-0.45-1.23-0.45c-0.69,0-1.26,0.34-1.26,0.99c0,0.58,0.29,0.91,1.23,1.55
			l0.27,0.18c1.15,0.79,1.55,1.42,1.55,2.21c0,0.54-0.21,1.12-0.88,1.56c-0.4,0.26-0.99,0.32-1.51,0.32
			C167.28,29.1,166.73,29.04,166.34,28.86z"/>
		<path class="st0" d="M173.13,26.33c0,0.88,0,1.6,0.04,1.98c0.03,0.27,0.06,0.44,0.34,0.48c0.14,0.02,0.34,0.04,0.43,0.04
			c0.05,0,0.08,0.04,0.08,0.08c0,0.04-0.04,0.08-0.15,0.08c-0.53,0-1.14-0.03-1.18-0.03c-0.05,0-0.65,0.03-0.94,0.03
			c-0.1,0-0.15-0.02-0.15-0.08c0-0.03,0.02-0.08,0.08-0.08c0.09,0,0.2-0.02,0.29-0.04c0.18-0.04,0.22-0.21,0.25-0.48
			c0.04-0.38,0.05-1.1,0.05-1.98v-1.61c0-1.42,0-1.68-0.02-1.97c-0.02-0.31-0.1-0.45-0.3-0.5c-0.11-0.02-0.23-0.03-0.29-0.03
			c-0.04,0-0.08-0.04-0.08-0.08c0-0.05,0.04-0.08,0.15-0.08c0.31,0,0.9,0.02,0.96,0.02c0.04,0,0.66-0.02,0.95-0.02
			c0.11,0,0.15,0.02,0.15,0.08c0,0.03-0.04,0.08-0.07,0.08c-0.06,0-0.13,0-0.24,0.02c-0.26,0.05-0.31,0.18-0.33,0.51
			c-0.01,0.29-0.01,0.55-0.01,1.97V26.33z"/>
		<path class="st0" d="M178.59,26.33c0,0.88,0,1.6,0.04,1.98c0.03,0.27,0.08,0.44,0.37,0.48c0.13,0.02,0.34,0.04,0.43,0.04
			c0.06,0,0.08,0.04,0.08,0.08c0,0.04-0.04,0.08-0.15,0.08c-0.52,0-1.12-0.03-1.17-0.03c-0.04,0-0.7,0.03-0.98,0.03
			c-0.11,0-0.15-0.02-0.15-0.08c0-0.03,0.02-0.06,0.08-0.06c0.09,0,0.19-0.02,0.28-0.04c0.19-0.04,0.25-0.23,0.28-0.5
			c0.04-0.38,0.04-1.1,0.04-1.98v-3.84l-1.37,0.02c-0.59,0.01-0.82,0.08-0.96,0.29c-0.11,0.16-0.12,0.23-0.15,0.29
			c-0.02,0.08-0.05,0.09-0.1,0.09c-0.02,0-0.06-0.02-0.06-0.08c0-0.1,0.19-0.91,0.21-0.99c0.02-0.05,0.06-0.17,0.1-0.17
			c0.06,0,0.16,0.08,0.42,0.11c0.27,0.03,0.63,0.04,0.74,0.04h3.57c0.31,0,0.53-0.02,0.68-0.04c0.14-0.02,0.23-0.04,0.27-0.04
			s0.04,0.05,0.04,0.11c0,0.28-0.03,0.94-0.03,1.04c0,0.08-0.04,0.12-0.09,0.12s-0.06-0.03-0.08-0.16l-0.01-0.1
			c-0.03-0.28-0.24-0.48-1.14-0.51l-1.18-0.02V26.33z"/>
		<path class="st0" d="M184.96,26.61c0-0.49-0.06-0.68-0.21-0.94c-0.08-0.14-1.36-2.17-1.68-2.66c-0.23-0.34-0.45-0.55-0.62-0.67
			c-0.14-0.09-0.32-0.13-0.4-0.13c-0.05,0-0.1-0.04-0.1-0.09s0.03-0.06,0.12-0.06c0.18,0,0.89,0.02,0.94,0.02
			c0.06,0,0.45-0.02,0.82-0.02c0.11,0,0.13,0.02,0.13,0.06c0,0.03-0.06,0.06-0.15,0.1c-0.08,0.03-0.12,0.08-0.12,0.15
			c0,0.13,0.06,0.24,0.13,0.35l1.72,2.85c0.19-0.39,1.38-2.35,1.55-2.65c0.12-0.2,0.16-0.35,0.16-0.47c0-0.13-0.04-0.2-0.15-0.24
			c-0.09-0.02-0.14-0.06-0.14-0.11c0-0.03,0.05-0.05,0.15-0.05c0.25,0,0.58,0.02,0.66,0.02c0.07,0,0.74-0.02,0.93-0.02
			c0.06,0,0.12,0.02,0.12,0.05c0,0.04-0.04,0.1-0.12,0.1c-0.11,0-0.29,0.03-0.44,0.12c-0.18,0.11-0.27,0.2-0.47,0.45
			c-0.31,0.37-1.65,2.52-1.84,2.9c-0.16,0.32-0.12,0.61-0.12,0.91v0.79c0,0.15,0,0.54,0.03,0.91c0.02,0.27,0.09,0.44,0.37,0.48
			c0.13,0.02,0.34,0.04,0.43,0.04c0.05,0,0.08,0.04,0.08,0.08c0,0.04-0.05,0.08-0.15,0.08c-0.53,0-1.14-0.03-1.19-0.03
			c-0.04,0-0.65,0.03-0.92,0.03c-0.11,0-0.15-0.02-0.15-0.08c0-0.03,0.02-0.08,0.07-0.08c0.09,0,0.19-0.02,0.28-0.04
			c0.19-0.04,0.26-0.21,0.28-0.48c0.02-0.38,0.02-0.76,0.02-0.91V26.61z"/>
		<path class="st0" d="M192.33,27.07c0-1.99,1.31-3.36,2.85-3.36c1.46,0,2.28,0.86,2.28,2.22c0,1.57-1.12,3.27-3,3.24
			C193.08,29.18,192.33,28.23,192.33,27.07z M193.19,27.24c0,0.91,0.4,1.61,1.39,1.6c1.44,0,2.02-2.07,2.02-3.21
			c0-0.83-0.43-1.6-1.36-1.6C193.75,24.04,193.19,26.05,193.19,27.24z"/>
		<path class="st0" d="M201.89,24.07l-0.06,0.38h-1.37l-0.47,2.59c-0.14,0.77-0.32,1.44-0.66,2.16c-0.53,1.15-1.17,1.97-1.24,1.98
			c-0.28-0.16-0.27-0.2-0.13-0.39c0.63-0.69,0.91-1.58,1.06-2.48l0.67-3.86h-1.07l0.06-0.38h1.07c0.37-2.15,1.43-3.46,2.14-3.46
			c0.2,0,0.39,0.16,0.38,0.47c-0.01,0.41-0.21,0.63-0.34,0.63c-0.21,0-0.06-0.34-0.44-0.34c-0.63,0-0.71,1.18-0.97,2.7H201.89z"/>
		<path class="st0" d="M214.11,25.87c0,1.03,0,1.88,0.05,2.33c0.03,0.31,0.1,0.55,0.42,0.59c0.15,0.02,0.39,0.04,0.48,0.04
			c0.06,0,0.09,0.03,0.09,0.06c0,0.05-0.05,0.09-0.17,0.09c-0.59,0-1.27-0.03-1.32-0.03c-0.05,0-0.73,0.03-1.05,0.03
			c-0.12,0-0.17-0.02-0.17-0.09c0-0.03,0.02-0.06,0.09-0.06c0.1,0,0.22-0.02,0.32-0.04c0.21-0.04,0.27-0.28,0.31-0.59
			c0.05-0.45,0.05-1.3,0.05-2.33v-1.13c0-0.04-0.03-0.06-0.06-0.06h-4.56c-0.03,0-0.06,0.01-0.06,0.06v1.13c0,1.03,0,1.88,0.05,2.33
			c0.03,0.31,0.1,0.55,0.42,0.59c0.15,0.02,0.39,0.04,0.48,0.04c0.06,0,0.09,0.03,0.09,0.06c0,0.05-0.05,0.09-0.17,0.09
			c-0.59,0-1.27-0.03-1.32-0.03c-0.05,0-0.73,0.03-1.05,0.03c-0.12,0-0.17-0.02-0.17-0.09c0-0.03,0.02-0.06,0.09-0.06
			c0.1,0,0.22-0.02,0.32-0.04c0.21-0.04,0.27-0.28,0.31-0.59c0.05-0.45,0.05-1.3,0.05-2.33v-1.89c0-1.68,0-1.98-0.02-2.32
			c-0.02-0.37-0.11-0.54-0.46-0.61c-0.09-0.02-0.27-0.03-0.37-0.03c-0.04,0-0.09-0.02-0.09-0.06c0-0.06,0.05-0.09,0.17-0.09
			c0.48,0,1.16,0.03,1.21,0.03c0.05,0,0.73-0.03,1.05-0.03c0.12,0,0.17,0.02,0.17,0.09c0,0.04-0.04,0.06-0.09,0.06
			c-0.07,0-0.14,0.01-0.27,0.03c-0.29,0.05-0.38,0.24-0.4,0.61c-0.02,0.34-0.02,0.65-0.02,2.32v0.23c0,0.05,0.03,0.06,0.06,0.06
			h4.56c0.03,0,0.06-0.01,0.06-0.06v-0.23c0-1.68,0-1.98-0.02-2.32c-0.02-0.37-0.11-0.54-0.46-0.61c-0.09-0.02-0.27-0.03-0.37-0.03
			c-0.04,0-0.09-0.02-0.09-0.06c0-0.06,0.05-0.09,0.17-0.09c0.48,0,1.16,0.03,1.22,0.03c0.05,0,0.73-0.03,1.05-0.03
			c0.12,0,0.17,0.02,0.17,0.09c0,0.04-0.04,0.06-0.09,0.06c-0.07,0-0.14,0.01-0.27,0.03c-0.29,0.05-0.38,0.24-0.4,0.61
			c-0.02,0.34-0.02,0.65-0.02,2.32V25.87z"/>
		<path class="st0" d="M219.26,22.25c0.12-0.3,0.16-0.35,0.22-0.35c0.1,0,0.13,0.13,0.23,0.33c0.17,0.39,1.69,4.16,2.27,5.55
			c0.34,0.82,0.6,0.94,0.81,1c0.14,0.04,0.28,0.05,0.38,0.05c0.05,0,0.12,0.02,0.12,0.08s-0.11,0.08-0.22,0.08
			c-0.14,0-0.84,0-1.49-0.02c-0.18-0.01-0.33-0.01-0.33-0.06c0-0.04,0.02-0.04,0.06-0.06c0.05-0.02,0.15-0.1,0.09-0.25l-0.85-2.1
			c-0.02-0.04-0.03-0.05-0.09-0.05h-2.18c-0.04,0-0.08,0.02-0.1,0.08l-0.54,1.46c-0.09,0.23-0.14,0.45-0.14,0.61
			c0,0.18,0.16,0.25,0.32,0.25h0.09c0.07,0,0.1,0.03,0.1,0.08c0,0.05-0.05,0.08-0.14,0.08c-0.23,0-0.74-0.03-0.85-0.03
			c-0.1,0-0.57,0.03-0.96,0.03c-0.12,0-0.18-0.02-0.18-0.08c0-0.04,0.04-0.08,0.09-0.08c0.06,0,0.2-0.01,0.28-0.02
			c0.43-0.05,0.61-0.38,0.79-0.84L219.26,22.25z M220.31,26.06c0.04,0,0.04-0.02,0.03-0.06l-0.94-2.51c-0.05-0.14-0.11-0.14-0.16,0
			l-0.88,2.51c-0.01,0.04,0,0.06,0.03,0.06H220.31z"/>
		<path class="st0" d="M230.24,27.63h0.04c0.24-0.75,1.09-3.4,1.42-4.57c0.1-0.34,0.11-0.45,0.11-0.57c0-0.16-0.08-0.27-0.51-0.27
			c-0.05,0-0.09-0.05-0.09-0.09c0-0.04,0.04-0.06,0.16-0.06c0.48,0,0.88,0.02,0.97,0.02c0.06,0,0.47-0.02,0.76-0.02
			c0.09,0,0.13,0.02,0.13,0.05c0,0.04-0.02,0.1-0.09,0.1c-0.03,0-0.21,0.01-0.32,0.04c-0.28,0.1-0.43,0.46-0.61,0.97
			c-0.42,1.16-1.36,4.07-1.73,5.09c-0.25,0.68-0.3,0.79-0.41,0.79c-0.1,0-0.18-0.12-0.31-0.47l-1.85-5c-0.32,0.8-1.6,4.14-1.95,4.99
			c-0.16,0.39-0.22,0.48-0.33,0.48c-0.1,0-0.17-0.1-0.37-0.72l-1.68-5.42c-0.15-0.48-0.25-0.6-0.49-0.69
			c-0.13-0.04-0.37-0.05-0.43-0.05c-0.04,0-0.09-0.03-0.09-0.09c0-0.04,0.06-0.06,0.15-0.06c0.5,0,1.02,0.02,1.12,0.02
			c0.09,0,0.52-0.02,0.99-0.02c0.13,0,0.17,0.02,0.17,0.06c0,0.05-0.05,0.09-0.1,0.09c-0.07,0-0.22,0-0.33,0.05
			c-0.06,0.02-0.13,0.08-0.13,0.19c0,0.12,0.07,0.44,0.18,0.85c0.15,0.58,1.12,3.94,1.24,4.31h0.02l1.98-5.11
			c0.14-0.37,0.2-0.42,0.26-0.42c0.06,0,0.14,0.12,0.26,0.43L230.24,27.63z"/>
		<path class="st0" d="M235.85,22.25c0.12-0.3,0.16-0.35,0.23-0.35c0.1,0,0.13,0.13,0.22,0.33c0.17,0.39,1.69,4.16,2.27,5.55
			c0.34,0.82,0.6,0.94,0.81,1c0.14,0.04,0.28,0.05,0.38,0.05c0.05,0,0.12,0.02,0.12,0.08s-0.11,0.08-0.21,0.08
			c-0.14,0-0.84,0-1.5-0.02c-0.18-0.01-0.33-0.01-0.33-0.06c0-0.04,0.02-0.04,0.06-0.06c0.05-0.02,0.15-0.1,0.09-0.25l-0.85-2.1
			c-0.02-0.04-0.03-0.05-0.09-0.05h-2.18c-0.04,0-0.07,0.02-0.1,0.08l-0.54,1.46c-0.09,0.23-0.14,0.45-0.14,0.61
			c0,0.18,0.16,0.25,0.32,0.25h0.09c0.08,0,0.1,0.03,0.1,0.08c0,0.05-0.05,0.08-0.14,0.08c-0.23,0-0.74-0.03-0.85-0.03
			c-0.1,0-0.57,0.03-0.96,0.03c-0.12,0-0.18-0.02-0.18-0.08c0-0.04,0.04-0.08,0.09-0.08c0.06,0,0.21-0.01,0.28-0.02
			c0.43-0.05,0.61-0.38,0.8-0.84L235.85,22.25z M236.91,26.06c0.04,0,0.04-0.02,0.03-0.06L236,23.49c-0.05-0.14-0.11-0.14-0.16,0
			l-0.88,2.51c-0.01,0.04,0,0.06,0.03,0.06H236.91z"/>
		<path class="st0" d="M242.3,26.33c0,0.88,0,1.6,0.04,1.98c0.03,0.27,0.06,0.44,0.34,0.48c0.14,0.02,0.34,0.04,0.43,0.04
			c0.05,0,0.08,0.04,0.08,0.08c0,0.04-0.04,0.08-0.15,0.08c-0.53,0-1.14-0.03-1.18-0.03c-0.05,0-0.65,0.03-0.94,0.03
			c-0.1,0-0.15-0.02-0.15-0.08c0-0.03,0.02-0.08,0.08-0.08c0.09,0,0.21-0.02,0.29-0.04c0.18-0.04,0.21-0.21,0.25-0.48
			c0.04-0.38,0.05-1.1,0.05-1.98v-1.61c0-1.42,0-1.68-0.02-1.97c-0.02-0.31-0.1-0.45-0.3-0.5c-0.11-0.02-0.23-0.03-0.29-0.03
			c-0.04,0-0.08-0.04-0.08-0.08c0-0.05,0.04-0.08,0.15-0.08c0.31,0,0.9,0.02,0.96,0.02c0.04,0,0.66-0.02,0.95-0.02
			c0.11,0,0.15,0.02,0.15,0.08c0,0.03-0.04,0.08-0.08,0.08c-0.06,0-0.13,0-0.24,0.02c-0.26,0.05-0.31,0.18-0.33,0.51
			c-0.01,0.29-0.01,0.55-0.01,1.97V26.33z"/>
		<path class="st0" d="M245.67,22.56c0.09,0.1,0.1,0.13,0.1,0.18c0,0.03-0.05,0.06-0.1,0.06c-0.17,0-0.58-0.13-0.75-0.19
			c-0.13-0.06-0.18-0.12-0.18-0.28c0-0.76,0.55-1.67,0.92-2.12c0.04-0.06,0.09-0.09,0.14-0.09c0.02,0,0.05,0.02,0.05,0.05
			c0,0.03-0.01,0.06-0.04,0.14c-0.16,0.34-0.35,0.92-0.35,1.54C245.45,22.2,245.59,22.48,245.67,22.56z"/>
		<path class="st0" d="M249.16,26.33c0,0.88,0,1.6,0.04,1.98c0.03,0.27,0.06,0.44,0.34,0.48c0.14,0.02,0.35,0.04,0.43,0.04
			c0.05,0,0.07,0.04,0.07,0.08c0,0.04-0.04,0.08-0.15,0.08c-0.53,0-1.14-0.03-1.18-0.03c-0.05,0-0.64,0.03-0.94,0.03
			c-0.1,0-0.15-0.02-0.15-0.08c0-0.03,0.02-0.08,0.08-0.08c0.09,0,0.2-0.02,0.29-0.04c0.18-0.04,0.21-0.21,0.25-0.48
			c0.04-0.38,0.05-1.1,0.05-1.98v-1.61c0-1.42,0-1.68-0.02-1.97c-0.02-0.31-0.1-0.45-0.3-0.5c-0.11-0.02-0.22-0.03-0.29-0.03
			c-0.04,0-0.08-0.04-0.08-0.08c0-0.05,0.04-0.08,0.15-0.08c0.31,0,0.9,0.02,0.96,0.02c0.04,0,0.66-0.02,0.95-0.02
			c0.11,0,0.15,0.02,0.15,0.08c0,0.03-0.04,0.08-0.07,0.08c-0.07,0-0.13,0-0.24,0.02c-0.26,0.05-0.31,0.18-0.33,0.51
			c-0.01,0.29-0.01,0.55-0.01,1.97V26.33z"/>
		<path class="st0" d="M105,50.96h0.16c1.05-1.15,5.58-5.77,6.48-6.82c0.87-1.02,1.55-1.8,1.55-2.33c0-0.34-0.12-0.56-0.43-0.62
			c-0.28-0.06-0.4-0.12-0.4-0.31c0-0.22,0.15-0.28,0.5-0.28c0.65,0,2.36,0.09,3.19,0.09c0.96,0,2.67-0.09,3.63-0.09
			c0.31,0,0.53,0.06,0.53,0.28c0,0.22-0.16,0.28-0.46,0.28c-0.43,0-1.21,0.12-1.8,0.34c-0.96,0.37-2.02,1.02-3.35,2.33
			c-0.96,0.93-5.64,5.58-6.7,6.7c1.12,1.46,7.19,8,8.4,9.15c1.36,1.3,2.76,2.7,4.43,3.35c0.93,0.37,1.55,0.47,1.92,0.47
			c0.22,0,0.4,0.06,0.4,0.25c0,0.22-0.16,0.31-0.74,0.31h-2.7c-0.93,0-1.49,0-2.14-0.06c-1.67-0.15-2.51-0.84-3.84-2.01
			c-1.37-1.21-7.47-8.37-8.12-9.27l-0.34-0.47H105v2.82c0,2.85,0,5.3,0.09,6.63c0.06,0.87,0.34,1.55,1.12,1.67
			c0.43,0.06,1.12,0.12,1.52,0.12c0.25,0,0.4,0.09,0.4,0.25c0,0.22-0.25,0.31-0.59,0.31c-1.74,0-3.69-0.09-4.46-0.09
			c-0.71,0-2.67,0.09-3.91,0.09c-0.4,0-0.62-0.09-0.62-0.31c0-0.16,0.12-0.25,0.5-0.25c0.46,0,0.84-0.06,1.12-0.12
			c0.62-0.12,0.78-0.81,0.9-1.71c0.16-1.3,0.16-3.75,0.16-6.6V49.6c0-4.71,0-5.58-0.06-6.57c-0.06-1.05-0.31-1.55-1.33-1.77
			c-0.25-0.06-0.78-0.09-1.21-0.09c-0.34,0-0.53-0.06-0.53-0.28c0-0.22,0.22-0.28,0.68-0.28c1.64,0,3.6,0.09,4.34,0.09
			c0.74,0,2.7-0.09,3.75-0.09c0.43,0,0.65,0.06,0.65,0.28c0,0.22-0.19,0.28-0.43,0.28c-0.31,0-0.5,0.03-0.87,0.09
			c-0.84,0.15-1.08,0.68-1.15,1.77C105,44.02,105,44.89,105,49.6V50.96z"/>
		<path class="st0" d="M127.6,57.41c-0.16,0-0.19,0.03-0.25,0.19l-1.46,3.53c-0.28,0.65-0.4,1.3-0.4,1.61
			c0,0.46,0.25,0.74,1.08,0.74h0.4c0.34,0,0.4,0.12,0.4,0.28c0,0.22-0.16,0.28-0.43,0.28c-0.9,0-2.17-0.09-3.04-0.09
			c-0.28,0-1.74,0.09-3.16,0.09c-0.34,0-0.5-0.06-0.5-0.28c0-0.15,0.09-0.28,0.31-0.28c0.25,0,0.56-0.03,0.81-0.03
			c1.24-0.19,1.71-0.99,2.26-2.32l7.13-16.59c0.31-0.74,0.53-1.05,0.81-1.05c0.4,0,0.53,0.25,0.81,0.84
			c0.65,1.46,5.21,12.25,6.94,16.24c1.05,2.39,1.83,2.73,2.33,2.82c0.4,0.06,0.71,0.09,1.02,0.09c0.25,0,0.37,0.09,0.37,0.28
			c0,0.22-0.15,0.28-1.18,0.28c-0.96,0-2.95,0-5.24-0.06c-0.5-0.03-0.81-0.03-0.81-0.22c0-0.15,0.06-0.25,0.34-0.28
			c0.19-0.03,0.37-0.28,0.25-0.59l-2.11-5.3c-0.06-0.16-0.15-0.19-0.28-0.19H127.6z M133.43,55.95c0.12,0,0.15-0.06,0.12-0.15
			l-2.57-6.7c-0.03-0.09-0.06-0.25-0.12-0.25c-0.09,0-0.12,0.16-0.16,0.25l-2.63,6.67c-0.06,0.12,0,0.19,0.09,0.19H133.43z"/>
		<path class="st0" d="M145.33,51.74c0-4,0-4.74-0.03-5.58c-0.06-0.9-0.31-1.18-1.18-1.43c-0.22-0.06-0.68-0.09-1.08-0.09
			c-0.28,0-0.46-0.09-0.46-0.28s0.22-0.25,0.62-0.25c1.43,0,3.16,0.06,3.94,0.06c1.12,0,3.29-0.06,4.53-0.06
			c3.41,0,4.65,1.12,5.08,1.49c0.59,0.56,1.36,1.74,1.36,3.16c0,3.72-2.98,6.39-6.85,6.39c-0.12,0-0.68,0-0.81-0.03
			c-0.15,0-0.34-0.09-0.34-0.28c0-0.22,0.31-0.34,0.9-0.34c1.52,0,3.66-1.58,3.66-4.28c0-0.87-0.09-2.6-1.61-3.91
			c-0.99-0.87-2.11-0.99-2.73-0.99c-0.4,0-0.93,0.03-1.18,0.12c-0.16,0.06-0.22,0.22-0.22,0.5v10.45c0,2.42,0,4.5,0.12,5.64
			c0.09,0.74,0.25,1.24,1.05,1.36c0.4,0.06,0.99,0.09,1.4,0.09c0.31,0,0.43,0.15,0.43,0.28c0,0.19-0.22,0.28-0.5,0.28
			c-1.83,0-3.75-0.09-4.46-0.09c-0.62,0-2.36,0.09-3.44,0.09c-0.34,0-0.53-0.09-0.53-0.28c0-0.12,0.09-0.28,0.43-0.28
			c0.4,0,0.71-0.03,0.96-0.09c0.56-0.12,0.71-0.62,0.81-1.4c0.12-1.12,0.12-3.19,0.12-5.61V51.74z"/>
		<path class="st0" d="M163.47,51.74c0-4,0-4.74-0.03-5.58c-0.06-0.9-0.34-1.21-0.93-1.4c-0.31-0.09-0.65-0.12-0.99-0.12
			c-0.28,0-0.43-0.06-0.43-0.31c0-0.16,0.22-0.22,0.65-0.22c1.02,0,2.88,0.06,3.66,0.06c0.68,0,2.45-0.06,3.5-0.06
			c0.34,0,0.56,0.06,0.56,0.22c0,0.25-0.15,0.31-0.43,0.31c-0.28,0-0.5,0.03-0.81,0.09c-0.74,0.12-0.96,0.5-1.02,1.43
			c-0.06,0.84-0.06,1.58-0.06,5.58v4.65c0,2.54,0,4.65,0.12,5.77c0.09,0.71,0.28,1.12,1.08,1.24c0.37,0.06,0.99,0.09,1.39,0.09
			c0.31,0,0.43,0.15,0.43,0.28c0,0.19-0.22,0.28-0.53,0.28c-1.8,0-3.66-0.09-4.4-0.09c-0.62,0-2.48,0.09-3.57,0.09
			c-0.34,0-0.53-0.09-0.53-0.28c0-0.12,0.09-0.28,0.43-0.28c0.4,0,0.71-0.03,0.96-0.09c0.56-0.12,0.71-0.5,0.81-1.27
			c0.12-1.08,0.12-3.19,0.12-5.73V51.74z"/>
		<path class="st0" d="M176.27,46.1c0.31,0.31,0.34,0.4,0.34,0.56c0,0.09-0.19,0.25-0.34,0.25c-0.62,0-1.98-0.4-2.57-0.59
			c-0.78-0.22-0.9-0.43-0.9-0.9c0-1.89,2.01-5.21,3.41-6.63c0.19-0.19,0.31-0.25,0.5-0.25c0.09,0,0.19,0.06,0.19,0.19
			c0,0.06-0.03,0.15-0.16,0.4c-0.56,1.08-1.21,2.91-1.21,4.84C175.53,44.98,175.99,45.82,176.27,46.1z"/>
		<path class="st0" d="M178.38,54.06c0-4.5,3.16-10.32,11.44-10.32c6.88,0,11.16,3.81,11.16,9.86c0,6.04-4.4,10.79-11.44,10.79
			C181.6,64.39,178.38,58.74,178.38,54.06z M196.91,54.56c0-5.83-3.5-9.42-7.9-9.42c-3.04,0-6.6,1.61-6.6,8.12
			c0,5.42,3.1,9.7,8.25,9.7C192.57,62.96,196.91,62.06,196.91,54.56z"/>
		<path class="st0" d="M208.94,56.39c0,3.38,0,5.05,0.59,5.55c0.46,0.4,1.52,0.56,3.63,0.56c1.46,0,2.51-0.03,3.19-0.74
			c0.34-0.34,0.62-1.08,0.68-1.58c0.03-0.25,0.09-0.4,0.31-0.4c0.19,0,0.25,0.28,0.25,0.59c0,0.31-0.19,2.26-0.4,3.04
			c-0.19,0.59-0.31,0.71-1.74,0.71c-1.95,0-3.53-0.03-4.9-0.09c-1.37-0.03-2.51-0.06-3.63-0.06c-0.31,0-0.9,0.03-1.55,0.03
			c-0.65,0.03-1.33,0.06-1.89,0.06c-0.34,0-0.53-0.09-0.53-0.28c0-0.12,0.09-0.28,0.43-0.28c0.4,0,0.71-0.03,0.96-0.09
			c0.56-0.12,0.71-0.62,0.81-1.4c0.12-1.12,0.12-3.19,0.12-5.61v-4.65c0-4,0-4.74-0.03-5.58c-0.06-0.9-0.31-1.18-1.18-1.43
			c-0.22-0.06-0.56-0.09-0.9-0.09c-0.31,0-0.46-0.09-0.46-0.28s0.19-0.25,0.59-0.25c1.27,0,3.01,0.06,3.75,0.06
			c0.65,0,2.88-0.06,3.94-0.06c0.4,0,0.59,0.06,0.59,0.25s-0.15,0.28-0.5,0.28c-0.31,0-0.74,0.03-1.05,0.09
			c-0.74,0.12-0.96,0.5-1.02,1.43c-0.06,0.84-0.06,1.58-0.06,5.58V56.39z"/>
		<path class="st0" d="M225.74,57.41c-0.15,0-0.19,0.03-0.25,0.19l-1.46,3.53c-0.28,0.65-0.4,1.3-0.4,1.61
			c0,0.46,0.25,0.74,1.09,0.74h0.4c0.34,0,0.4,0.12,0.4,0.28c0,0.22-0.15,0.28-0.43,0.28c-0.9,0-2.17-0.09-3.04-0.09
			c-0.28,0-1.74,0.09-3.16,0.09c-0.34,0-0.5-0.06-0.5-0.28c0-0.15,0.09-0.28,0.31-0.28c0.25,0,0.56-0.03,0.8-0.03
			c1.24-0.19,1.71-0.99,2.26-2.32l7.13-16.59c0.31-0.74,0.53-1.05,0.81-1.05c0.4,0,0.53,0.25,0.81,0.84
			c0.65,1.46,5.21,12.25,6.94,16.24c1.05,2.39,1.83,2.73,2.32,2.82c0.4,0.06,0.71,0.09,1.02,0.09c0.25,0,0.37,0.09,0.37,0.28
			c0,0.22-0.16,0.28-1.18,0.28c-0.96,0-2.94,0-5.24-0.06c-0.5-0.03-0.81-0.03-0.81-0.22c0-0.15,0.06-0.25,0.34-0.28
			c0.19-0.03,0.37-0.28,0.25-0.59l-2.11-5.3c-0.06-0.16-0.16-0.19-0.28-0.19H225.74z M231.57,55.95c0.12,0,0.16-0.06,0.12-0.15
			l-2.57-6.7c-0.03-0.09-0.06-0.25-0.12-0.25c-0.09,0-0.12,0.16-0.15,0.25l-2.64,6.67c-0.06,0.12,0,0.19,0.09,0.19H231.57z"/>
		<path class="st0" d="M246.42,60.45c0.06,2.05,0.4,2.67,0.93,2.85c0.46,0.15,0.99,0.19,1.43,0.19c0.31,0,0.46,0.12,0.46,0.28
			c0,0.22-0.25,0.28-0.62,0.28c-1.77,0-3.04-0.09-3.54-0.09c-0.25,0-1.55,0.09-2.95,0.09c-0.37,0-0.62-0.03-0.62-0.28
			c0-0.15,0.19-0.28,0.43-0.28c0.37,0,0.87-0.03,1.24-0.12c0.71-0.19,0.81-0.9,0.84-3.19l0.25-15.62c0-0.53,0.19-0.9,0.46-0.9
			c0.34,0,0.71,0.4,1.18,0.87c0.34,0.34,4.43,4.53,8.4,8.4c1.86,1.83,5.49,5.55,5.89,5.92h0.12l-0.28-11.72
			c-0.03-1.61-0.28-2.08-0.93-2.33c-0.4-0.15-1.05-0.15-1.43-0.15c-0.34,0-0.43-0.12-0.43-0.28c0-0.22,0.28-0.25,0.68-0.25
			c1.43,0,2.88,0.06,3.47,0.06c0.31,0,1.33-0.06,2.67-0.06c0.37,0,0.62,0.03,0.62,0.25c0,0.16-0.15,0.28-0.46,0.28
			c-0.28,0-0.5,0-0.84,0.09c-0.74,0.22-0.96,0.68-0.99,2.17l-0.31,16.62c0,0.59-0.22,0.84-0.43,0.84c-0.46,0-0.84-0.28-1.12-0.56
			c-1.71-1.58-5.12-4.84-7.97-7.6c-2.97-2.85-5.86-6.04-6.38-6.51h-0.09L246.42,60.45z"/>
		<path class="st0" d="M269.98,51.74c0-4,0-4.74-0.03-5.58c-0.06-0.9-0.34-1.21-0.93-1.4c-0.31-0.09-0.65-0.12-0.99-0.12
			c-0.28,0-0.43-0.06-0.43-0.31c0-0.16,0.22-0.22,0.65-0.22c1.02,0,2.88,0.06,3.66,0.06c0.68,0,2.45-0.06,3.5-0.06
			c0.34,0,0.56,0.06,0.56,0.22c0,0.25-0.16,0.31-0.44,0.31c-0.28,0-0.5,0.03-0.8,0.09c-0.74,0.12-0.96,0.5-1.02,1.43
			c-0.06,0.84-0.06,1.58-0.06,5.58v4.65c0,2.54,0,4.65,0.12,5.77c0.09,0.71,0.28,1.12,1.08,1.24c0.37,0.06,0.99,0.09,1.39,0.09
			c0.31,0,0.44,0.15,0.44,0.28c0,0.19-0.22,0.28-0.53,0.28c-1.8,0-3.66-0.09-4.4-0.09c-0.62,0-2.48,0.09-3.56,0.09
			c-0.34,0-0.53-0.09-0.53-0.28c0-0.12,0.09-0.28,0.43-0.28c0.4,0,0.71-0.03,0.96-0.09c0.56-0.12,0.71-0.5,0.81-1.27
			c0.12-1.08,0.12-3.19,0.12-5.73V51.74z"/>
		<path class="st0" d="M110.33,78.36c-1.27-1.12-1.61-2.57-1.61-3.84c0-0.88,0.27-2.42,1.52-3.56c0.94-0.86,2.17-1.38,4.11-1.38
			c0.8,0,1.29,0.05,1.88,0.13c0.49,0.06,0.91,0.18,1.3,0.22c0.14,0.01,0.2,0.08,0.2,0.16c0,0.1-0.04,0.26-0.06,0.71
			c-0.03,0.43-0.01,1.14-0.04,1.4c-0.01,0.2-0.04,0.3-0.16,0.3c-0.1,0-0.13-0.1-0.13-0.29c-0.01-0.4-0.18-0.86-0.51-1.2
			c-0.43-0.46-1.44-0.81-2.64-0.81c-1.13,0-1.87,0.29-2.44,0.81c-0.95,0.87-1.2,2.11-1.2,3.37c0,3.09,2.35,4.63,4.1,4.63
			c1.16,0,1.86-0.13,2.38-0.73c0.22-0.25,0.39-0.62,0.44-0.86c0.04-0.21,0.06-0.26,0.17-0.26c0.09,0,0.12,0.09,0.12,0.19
			c0,0.16-0.16,1.29-0.29,1.73c-0.06,0.22-0.12,0.29-0.34,0.38c-0.52,0.21-1.51,0.3-2.34,0.3
			C113.01,79.77,111.52,79.38,110.33,78.36z"/>
		<path class="st0" d="M119.41,75.41c0-1.89,1.33-4.33,4.8-4.33c2.89,0,4.68,1.6,4.68,4.13c0,2.53-1.85,4.52-4.8,4.52
			C120.76,79.73,119.41,77.37,119.41,75.41z M127.18,75.61c0-2.44-1.47-3.95-3.31-3.95c-1.27,0-2.77,0.68-2.77,3.41
			c0,2.27,1.3,4.07,3.46,4.07C125.36,79.14,127.18,78.76,127.18,75.61z"/>
		<path class="st0" d="M132.12,71.27c0.03-0.18,0.13-0.29,0.22-0.29c0.12,0,0.19,0.05,0.35,0.35l3.07,6.16l3.07-6.24
			c0.09-0.18,0.2-0.27,0.3-0.27c0.09,0,0.22,0.12,0.26,0.35l1.04,6.82c0.1,0.69,0.21,0.99,0.56,1.09c0.32,0.09,0.51,0.1,0.65,0.1
			c0.1,0,0.18,0.04,0.18,0.1c0,0.09-0.13,0.13-0.3,0.13c-0.29,0-1.91-0.05-2.37-0.08c-0.27-0.01-0.34-0.06-0.34-0.13
			c0-0.05,0.05-0.09,0.13-0.12c0.06-0.03,0.09-0.16,0.05-0.47l-0.64-4.78h-0.04l-2.46,4.94c-0.26,0.52-0.32,0.62-0.46,0.62
			c-0.14,0-0.27-0.22-0.46-0.56c-0.27-0.51-1.18-2.2-1.31-2.51c-0.09-0.21-0.77-1.6-1.14-2.37h-0.04l-0.55,4.32
			c-0.03,0.19-0.04,0.34-0.04,0.52c0,0.21,0.16,0.29,0.35,0.32c0.2,0.04,0.3,0.05,0.4,0.05c0.1,0,0.18,0.05,0.18,0.1
			c0,0.1-0.1,0.13-0.27,0.13c-0.48,0-1-0.04-1.21-0.04c-0.22,0-0.77,0.04-1.13,0.04c-0.12,0-0.21-0.03-0.21-0.13
			c0-0.05,0.06-0.1,0.18-0.1c0.09,0,0.17,0,0.35-0.03c0.31-0.04,0.42-0.48,0.47-0.84L132.12,71.27z"/>
		<path class="st0" d="M144.73,71.27c0.03-0.18,0.13-0.29,0.22-0.29c0.12,0,0.19,0.05,0.35,0.35l3.07,6.16l3.07-6.24
			c0.09-0.18,0.2-0.27,0.3-0.27c0.09,0,0.22,0.12,0.26,0.35l1.04,6.82c0.1,0.69,0.21,0.99,0.56,1.09c0.33,0.09,0.51,0.1,0.65,0.1
			c0.1,0,0.18,0.04,0.18,0.1c0,0.09-0.13,0.13-0.3,0.13c-0.29,0-1.91-0.05-2.37-0.08c-0.27-0.01-0.34-0.06-0.34-0.13
			c0-0.05,0.05-0.09,0.13-0.12c0.06-0.03,0.09-0.16,0.05-0.47l-0.64-4.78h-0.04l-2.46,4.94c-0.26,0.52-0.33,0.62-0.46,0.62
			c-0.14,0-0.27-0.22-0.46-0.56c-0.27-0.51-1.18-2.2-1.31-2.51c-0.09-0.21-0.77-1.6-1.14-2.37h-0.04l-0.55,4.32
			c-0.03,0.19-0.04,0.34-0.04,0.52c0,0.21,0.16,0.29,0.35,0.32s0.3,0.05,0.4,0.05c0.1,0,0.18,0.05,0.18,0.1
			c0,0.1-0.1,0.13-0.27,0.13c-0.48,0-1-0.04-1.21-0.04c-0.22,0-0.77,0.04-1.13,0.04c-0.12,0-0.21-0.03-0.21-0.13
			c0-0.05,0.06-0.1,0.18-0.1c0.09,0,0.17,0,0.35-0.03c0.31-0.04,0.42-0.48,0.47-0.84L144.73,71.27z"/>
		<path class="st0" d="M156.01,74.43c0-1.68,0.01-1.99-0.01-2.34c-0.03-0.39-0.13-0.49-0.49-0.6c-0.09-0.03-0.29-0.04-0.44-0.04
			c-0.13,0-0.2-0.04-0.2-0.12c0-0.08,0.08-0.1,0.25-0.1c0.61,0,1.38,0.03,1.71,0.03c0.29,0,1.05-0.03,1.47-0.03
			c0.17,0,0.25,0.03,0.25,0.1c0,0.08-0.06,0.12-0.18,0.12c-0.13,0-0.2,0.01-0.34,0.04c-0.3,0.05-0.39,0.21-0.42,0.6
			c-0.03,0.35-0.03,0.66-0.03,2.34v1.55c0,1.61,0.31,2.24,0.87,2.68c0.51,0.4,1.05,0.44,1.44,0.44c0.49,0,1.08-0.14,1.53-0.58
			c0.64-0.6,0.66-1.56,0.66-2.69v-1.39c0-1.68-0.01-1.99-0.03-2.34c-0.03-0.38-0.12-0.49-0.48-0.6c-0.09-0.03-0.29-0.04-0.42-0.04
			s-0.19-0.04-0.19-0.12c0-0.08,0.08-0.1,0.23-0.1c0.58,0,1.35,0.03,1.36,0.03c0.13,0,0.9-0.03,1.34-0.03c0.16,0,0.23,0.03,0.23,0.1
			c0,0.08-0.07,0.12-0.2,0.12c-0.13,0-0.2,0.01-0.34,0.04c-0.31,0.05-0.39,0.21-0.42,0.6c-0.01,0.35-0.03,0.66-0.03,2.34v1.18
			c0,1.23-0.13,2.54-1.09,3.33c-0.81,0.68-1.68,0.79-2.42,0.79c-0.6,0-1.78-0.03-2.61-0.75c-0.58-0.51-1.04-1.33-1.04-2.93V74.43z"
			/>
		<path class="st0" d="M167.45,78.08c0.03,0.86,0.17,1.12,0.39,1.2c0.2,0.06,0.42,0.08,0.6,0.08c0.13,0,0.2,0.05,0.2,0.12
			c0,0.09-0.1,0.12-0.26,0.12c-0.74,0-1.27-0.04-1.48-0.04c-0.1,0-0.65,0.04-1.23,0.04c-0.16,0-0.26-0.01-0.26-0.12
			c0-0.06,0.08-0.12,0.18-0.12c0.16,0,0.36-0.01,0.52-0.05c0.3-0.08,0.34-0.38,0.35-1.34l0.1-6.55c0-0.22,0.08-0.38,0.2-0.38
			c0.14,0,0.3,0.17,0.49,0.36c0.14,0.14,1.86,1.9,3.52,3.52c0.78,0.77,2.3,2.33,2.47,2.48h0.05l-0.12-4.91
			c-0.01-0.68-0.12-0.87-0.39-0.98c-0.17-0.06-0.44-0.06-0.6-0.06c-0.14,0-0.18-0.05-0.18-0.12c0-0.09,0.12-0.1,0.29-0.1
			c0.6,0,1.21,0.03,1.46,0.03c0.13,0,0.56-0.03,1.12-0.03c0.16,0,0.26,0.01,0.26,0.1c0,0.06-0.06,0.12-0.19,0.12
			c-0.12,0-0.21,0-0.35,0.04c-0.31,0.09-0.4,0.29-0.42,0.91l-0.13,6.97c0,0.25-0.09,0.35-0.18,0.35c-0.2,0-0.35-0.12-0.47-0.23
			c-0.72-0.66-2.15-2.03-3.34-3.18c-1.25-1.2-2.46-2.54-2.68-2.73h-0.04L167.45,78.08z"/>
		<path class="st0" d="M178.01,74.43c0-1.68,0-1.99-0.01-2.34c-0.03-0.38-0.14-0.51-0.39-0.58c-0.13-0.04-0.27-0.05-0.42-0.05
			c-0.12,0-0.18-0.03-0.18-0.13c0-0.07,0.09-0.09,0.27-0.09c0.43,0,1.21,0.03,1.54,0.03c0.29,0,1.03-0.03,1.47-0.03
			c0.14,0,0.23,0.03,0.23,0.09c0,0.1-0.07,0.13-0.18,0.13c-0.12,0-0.21,0.01-0.34,0.04c-0.31,0.05-0.4,0.21-0.43,0.6
			c-0.03,0.35-0.03,0.66-0.03,2.34v1.95c0,1.07,0,1.95,0.05,2.42c0.04,0.3,0.12,0.47,0.46,0.52c0.16,0.03,0.42,0.04,0.58,0.04
			c0.13,0,0.18,0.07,0.18,0.12c0,0.08-0.09,0.12-0.22,0.12c-0.75,0-1.53-0.04-1.85-0.04c-0.26,0-1.04,0.04-1.49,0.04
			c-0.14,0-0.22-0.04-0.22-0.12c0-0.05,0.04-0.12,0.18-0.12c0.17,0,0.3-0.01,0.4-0.04c0.23-0.05,0.3-0.21,0.34-0.53
			c0.05-0.46,0.05-1.34,0.05-2.4V74.43z"/>
		<path class="st0" d="M185.21,71.91l-1.7,0.04c-0.66,0.01-0.94,0.09-1.1,0.34c-0.12,0.16-0.17,0.3-0.19,0.38
			c-0.03,0.09-0.05,0.14-0.13,0.14s-0.1-0.06-0.1-0.18c0-0.18,0.22-1.25,0.25-1.34c0.03-0.14,0.07-0.21,0.13-0.21
			c0.09,0,0.21,0.09,0.49,0.13c0.34,0.04,0.77,0.05,1.14,0.05h4.64c0.36,0,0.61-0.03,0.78-0.05c0.18-0.03,0.27-0.05,0.31-0.05
			c0.08,0,0.09,0.06,0.09,0.23c0,0.23-0.03,1.05-0.03,1.34c-0.01,0.12-0.04,0.18-0.1,0.18c-0.09,0-0.12-0.05-0.13-0.22l-0.01-0.12
			c-0.03-0.29-0.33-0.62-1.35-0.64l-1.44-0.03v4.47c0,1.01,0.01,1.88,0.06,2.37c0.04,0.31,0.1,0.52,0.44,0.57
			c0.16,0.03,0.42,0.04,0.59,0.04c0.13,0,0.18,0.07,0.18,0.12c0,0.08-0.09,0.12-0.22,0.12c-0.75,0-1.52-0.04-1.85-0.04
			c-0.26,0-1.04,0.04-1.5,0.04c-0.14,0-0.22-0.04-0.22-0.12c0-0.05,0.04-0.12,0.18-0.12c0.17,0,0.31-0.01,0.4-0.04
			c0.23-0.05,0.3-0.26,0.34-0.58c0.05-0.47,0.05-1.34,0.05-2.35V71.91z"/>
		<path class="st0" d="M193.83,76.72c0-0.6-0.1-0.83-0.26-1.16c-0.08-0.17-1.64-2.6-2.04-3.18c-0.29-0.4-0.52-0.66-0.74-0.78
			c-0.14-0.08-0.34-0.14-0.48-0.14c-0.09,0-0.17-0.04-0.17-0.12c0-0.08,0.08-0.1,0.22-0.1c0.2,0,1.05,0.03,1.43,0.03
			c0.25,0,0.78-0.03,1.3-0.03c0.1,0,0.17,0.03,0.17,0.1c0,0.09-0.08,0.09-0.26,0.14c-0.09,0.03-0.16,0.08-0.16,0.17
			c0,0.09,0.05,0.22,0.14,0.38c0.21,0.34,1.7,2.92,1.9,3.24c0.14-0.26,1.54-2.63,1.7-2.96c0.12-0.25,0.17-0.44,0.17-0.58
			c0-0.1-0.05-0.21-0.25-0.25c-0.1-0.03-0.21-0.04-0.21-0.13c0-0.08,0.06-0.1,0.2-0.1c0.38,0,0.78,0.03,1.12,0.03
			c0.25,0,1-0.03,1.22-0.03c0.13,0,0.21,0.03,0.21,0.09c0,0.08-0.09,0.13-0.22,0.13c-0.12,0-0.32,0.05-0.49,0.13
			c-0.25,0.12-0.35,0.22-0.6,0.52c-0.38,0.44-2.02,3.07-2.22,3.54c-0.17,0.4-0.14,0.74-0.14,1.11v0.88c0,0.18,0,0.64,0.03,1.1
			c0.03,0.32,0.13,0.53,0.47,0.58c0.17,0.03,0.42,0.04,0.57,0.04c0.13,0,0.2,0.07,0.2,0.12c0,0.08-0.09,0.12-0.25,0.12
			c-0.71,0-1.48-0.04-1.79-0.04c-0.29,0-1.05,0.04-1.48,0.04c-0.16,0-0.25-0.03-0.25-0.12c0-0.05,0.05-0.12,0.18-0.12
			c0.16,0,0.3-0.01,0.4-0.04c0.23-0.05,0.33-0.26,0.35-0.58c0.04-0.47,0.04-0.92,0.04-1.1V76.72z"/>
		<path class="st0" d="M205.84,78.36c-1.27-1.12-1.61-2.57-1.61-3.84c0-0.88,0.27-2.42,1.52-3.56c0.94-0.86,2.17-1.38,4.11-1.38
			c0.81,0,1.29,0.05,1.88,0.13c0.49,0.06,0.91,0.18,1.3,0.22c0.14,0.01,0.19,0.08,0.19,0.16c0,0.1-0.04,0.26-0.06,0.71
			c-0.03,0.43-0.01,1.14-0.04,1.4c-0.01,0.2-0.04,0.3-0.16,0.3c-0.1,0-0.13-0.1-0.13-0.29c-0.01-0.4-0.18-0.86-0.51-1.2
			c-0.43-0.46-1.44-0.81-2.64-0.81c-1.13,0-1.87,0.29-2.44,0.81c-0.95,0.87-1.2,2.11-1.2,3.37c0,3.09,2.35,4.63,4.1,4.63
			c1.16,0,1.86-0.13,2.38-0.73c0.22-0.25,0.39-0.62,0.44-0.86c0.04-0.21,0.07-0.26,0.17-0.26c0.09,0,0.12,0.09,0.12,0.19
			c0,0.16-0.16,1.29-0.29,1.73c-0.06,0.22-0.12,0.29-0.34,0.38c-0.52,0.21-1.51,0.3-2.34,0.3
			C208.52,79.77,207.03,79.38,205.84,78.36z"/>
		<path class="st0" d="M214.92,75.41c0-1.89,1.33-4.33,4.8-4.33c2.88,0,4.68,1.6,4.68,4.13c0,2.53-1.85,4.52-4.8,4.52
			C216.27,79.73,214.92,77.37,214.92,75.41z M222.69,75.61c0-2.44-1.47-3.95-3.31-3.95c-1.28,0-2.77,0.68-2.77,3.41
			c0,2.27,1.3,4.07,3.46,4.07C220.87,79.14,222.69,78.76,222.69,75.61z"/>
		<path class="st0" d="M228.5,76.38c0,1.42,0,2.12,0.25,2.33c0.19,0.17,0.64,0.23,1.52,0.23c0.61,0,1.05-0.01,1.34-0.31
			c0.14-0.14,0.26-0.46,0.29-0.66c0.01-0.1,0.04-0.17,0.13-0.17c0.08,0,0.1,0.12,0.1,0.25c0,0.13-0.08,0.95-0.17,1.27
			c-0.08,0.25-0.13,0.3-0.73,0.3c-0.82,0-1.48-0.01-2.05-0.04c-0.57-0.01-1.05-0.03-1.52-0.03c-0.13,0-0.38,0.01-0.65,0.01
			c-0.27,0.01-0.56,0.03-0.79,0.03c-0.14,0-0.22-0.04-0.22-0.12c0-0.05,0.04-0.12,0.18-0.12c0.17,0,0.3-0.01,0.4-0.04
			c0.23-0.05,0.3-0.26,0.34-0.58c0.05-0.47,0.05-1.34,0.05-2.35v-1.95c0-1.68,0-1.99-0.01-2.34c-0.03-0.38-0.13-0.49-0.49-0.6
			c-0.09-0.03-0.23-0.04-0.38-0.04c-0.13,0-0.2-0.04-0.2-0.12c0-0.08,0.08-0.1,0.25-0.1c0.53,0,1.26,0.03,1.57,0.03
			c0.27,0,1.21-0.03,1.65-0.03c0.17,0,0.25,0.03,0.25,0.1c0,0.08-0.06,0.12-0.21,0.12c-0.13,0-0.31,0.01-0.44,0.04
			c-0.31,0.05-0.4,0.21-0.43,0.6c-0.03,0.35-0.03,0.66-0.03,2.34V76.38z"/>
		<path class="st0" d="M236.29,76.38c0,1.42,0,2.12,0.25,2.33c0.19,0.17,0.64,0.23,1.52,0.23c0.61,0,1.05-0.01,1.34-0.31
			c0.14-0.14,0.26-0.46,0.29-0.66c0.01-0.1,0.04-0.17,0.13-0.17c0.08,0,0.1,0.12,0.1,0.25c0,0.13-0.08,0.95-0.17,1.27
			c-0.08,0.25-0.13,0.3-0.73,0.3c-0.82,0-1.48-0.01-2.05-0.04c-0.57-0.01-1.05-0.03-1.52-0.03c-0.13,0-0.38,0.01-0.65,0.01
			c-0.27,0.01-0.56,0.03-0.79,0.03c-0.14,0-0.22-0.04-0.22-0.12c0-0.05,0.04-0.12,0.18-0.12c0.17,0,0.3-0.01,0.4-0.04
			c0.23-0.05,0.3-0.26,0.34-0.58c0.05-0.47,0.05-1.34,0.05-2.35v-1.95c0-1.68,0-1.99-0.01-2.34c-0.03-0.38-0.13-0.49-0.49-0.6
			c-0.09-0.03-0.23-0.04-0.38-0.04c-0.13,0-0.2-0.04-0.2-0.12c0-0.08,0.08-0.1,0.25-0.1c0.53,0,1.26,0.03,1.57,0.03
			c0.27,0,1.21-0.03,1.65-0.03c0.17,0,0.25,0.03,0.25,0.1c0,0.08-0.06,0.12-0.21,0.12c-0.13,0-0.31,0.01-0.44,0.04
			c-0.31,0.05-0.4,0.21-0.43,0.6c-0.03,0.35-0.03,0.66-0.03,2.34V76.38z"/>
		<path class="st0" d="M242.33,74.43c0-1.68,0-1.99-0.01-2.34c-0.03-0.38-0.13-0.49-0.49-0.6c-0.09-0.03-0.29-0.04-0.46-0.04
			c-0.12,0-0.2-0.04-0.2-0.12c0-0.08,0.09-0.1,0.26-0.1c0.6,0,1.33,0.03,1.65,0.03c0.36,0,2.9,0.01,3.12,0
			c0.21-0.01,0.39-0.05,0.48-0.06c0.07-0.01,0.13-0.05,0.18-0.05c0.06,0,0.08,0.05,0.08,0.1c0,0.08-0.07,0.21-0.09,0.72
			c-0.01,0.12-0.04,0.6-0.06,0.73c-0.01,0.05-0.04,0.18-0.13,0.18c-0.08,0-0.09-0.05-0.09-0.14c0-0.08-0.01-0.27-0.08-0.4
			c-0.09-0.19-0.18-0.35-0.75-0.4c-0.2-0.03-1.56-0.05-1.79-0.05c-0.05,0-0.08,0.04-0.08,0.1v2.73c0,0.06,0.01,0.12,0.08,0.12
			c0.26,0,1.74,0,2-0.03c0.27-0.03,0.44-0.05,0.55-0.17c0.09-0.08,0.13-0.14,0.18-0.14c0.05,0,0.09,0.05,0.09,0.12
			c0,0.07-0.03,0.25-0.09,0.81c-0.03,0.22-0.05,0.66-0.05,0.74c0,0.09-0.01,0.25-0.12,0.25c-0.08,0-0.1-0.04-0.1-0.09
			c-0.01-0.12-0.01-0.26-0.04-0.4c-0.06-0.22-0.21-0.39-0.64-0.43c-0.21-0.03-1.51-0.05-1.79-0.05c-0.05,0-0.06,0.05-0.06,0.12v0.88
			c0,0.38-0.01,1.31,0,1.64c0.03,0.75,0.38,0.92,1.55,0.92c0.3,0,0.78-0.01,1.08-0.14c0.29-0.13,0.42-0.36,0.49-0.82
			c0.03-0.12,0.05-0.17,0.13-0.17c0.09,0,0.1,0.14,0.1,0.26c0,0.25-0.09,1-0.15,1.22c-0.08,0.29-0.18,0.29-0.61,0.29
			c-0.86,0-1.55-0.01-2.11-0.04c-0.56-0.01-0.99-0.03-1.33-0.03c-0.13,0-0.38,0.01-0.65,0.01c-0.27,0.01-0.56,0.03-0.79,0.03
			c-0.14,0-0.22-0.04-0.22-0.12c0-0.05,0.04-0.12,0.18-0.12c0.17,0,0.3-0.01,0.4-0.04c0.23-0.05,0.3-0.26,0.34-0.58
			c0.05-0.47,0.05-1.34,0.05-2.35V74.43z"/>
		<path class="st0" d="M257.27,78.85c0,0.3,0,0.31-0.14,0.39c-0.77,0.38-1.9,0.49-2.79,0.49c-2.81,0-5.29-1.27-5.29-4.33
			c0-1.77,0.95-3,2-3.61c1.09-0.64,2.12-0.71,3.08-0.71c0.79,0,1.79,0.13,2.03,0.18c0.23,0.04,0.64,0.1,0.91,0.12
			c0.13,0.01,0.16,0.05,0.16,0.13c0,0.13-0.08,0.43-0.08,1.82c0,0.17-0.06,0.25-0.15,0.25c-0.08,0-0.11-0.05-0.12-0.14
			c-0.03-0.25-0.09-0.6-0.39-0.91c-0.34-0.35-1.2-0.84-2.48-0.84c-0.62,0-1.42,0.01-2.21,0.65c-0.64,0.52-1.05,1.34-1.05,2.69
			c0,2.38,1.53,4.11,3.98,4.11c0.3,0,0.53,0,0.8-0.12c0.17-0.08,0.22-0.2,0.22-0.39V77.6c0-0.55,0-0.96-0.01-1.3
			c-0.01-0.38-0.13-0.49-0.49-0.6c-0.09-0.03-0.29-0.04-0.44-0.04c-0.11,0-0.18-0.05-0.18-0.12c0-0.09,0.09-0.1,0.25-0.1
			c0.6,0,1.42,0.03,1.76,0.03c0.36,0,0.96-0.03,1.34-0.03c0.16,0,0.23,0.01,0.23,0.1c0,0.06-0.06,0.12-0.14,0.12
			c-0.09,0-0.18,0.01-0.31,0.04c-0.31,0.05-0.43,0.21-0.44,0.6c-0.01,0.34-0.01,0.78-0.01,1.33V78.85z"/>
		<path class="st0" d="M260.65,74.43c0-1.68,0-1.99-0.01-2.34c-0.03-0.38-0.13-0.49-0.49-0.6c-0.09-0.03-0.29-0.04-0.46-0.04
			c-0.12,0-0.2-0.04-0.2-0.12c0-0.08,0.09-0.1,0.26-0.1c0.6,0,1.33,0.03,1.65,0.03c0.37,0,2.9,0.01,3.12,0
			c0.21-0.01,0.39-0.05,0.48-0.06c0.06-0.01,0.13-0.05,0.18-0.05c0.06,0,0.08,0.05,0.08,0.1c0,0.08-0.06,0.21-0.09,0.72
			c-0.01,0.12-0.04,0.6-0.07,0.73c-0.01,0.05-0.04,0.18-0.13,0.18c-0.08,0-0.09-0.05-0.09-0.14c0-0.08-0.01-0.27-0.08-0.4
			c-0.09-0.19-0.18-0.35-0.75-0.4c-0.2-0.03-1.56-0.05-1.79-0.05c-0.05,0-0.08,0.04-0.08,0.1v2.73c0,0.06,0.01,0.12,0.08,0.12
			c0.26,0,1.74,0,2-0.03c0.27-0.03,0.44-0.05,0.54-0.17c0.09-0.08,0.13-0.14,0.18-0.14c0.05,0,0.09,0.05,0.09,0.12
			c0,0.07-0.03,0.25-0.09,0.81c-0.03,0.22-0.05,0.66-0.05,0.74c0,0.09-0.01,0.25-0.12,0.25c-0.08,0-0.1-0.04-0.1-0.09
			c-0.01-0.12-0.01-0.26-0.04-0.4c-0.07-0.22-0.21-0.39-0.64-0.43c-0.21-0.03-1.51-0.05-1.79-0.05c-0.05,0-0.06,0.05-0.06,0.12v0.88
			c0,0.38-0.01,1.31,0,1.64c0.03,0.75,0.38,0.92,1.55,0.92c0.3,0,0.78-0.01,1.08-0.14c0.29-0.13,0.42-0.36,0.49-0.82
			c0.03-0.12,0.05-0.17,0.13-0.17c0.09,0,0.1,0.14,0.1,0.26c0,0.25-0.09,1-0.16,1.22c-0.08,0.29-0.18,0.29-0.61,0.29
			c-0.86,0-1.55-0.01-2.11-0.04c-0.56-0.01-0.99-0.03-1.33-0.03c-0.13,0-0.38,0.01-0.65,0.01c-0.27,0.01-0.56,0.03-0.79,0.03
			c-0.14,0-0.22-0.04-0.22-0.12c0-0.05,0.04-0.12,0.18-0.12c0.17,0,0.3-0.01,0.4-0.04c0.23-0.05,0.3-0.26,0.34-0.58
			c0.05-0.47,0.05-1.34,0.05-2.35V74.43z"/>
	</g>
	<g>
		<rect x="139.8" y="33.87" class="st0" width="95.17" height="0.88"/>
	</g>
	<g>
		<path class="st0" d="M253.1,21.97c0.83,0,1.48,0.66,1.48,1.52c0,0.87-0.66,1.53-1.49,1.53c-0.83,0-1.5-0.66-1.5-1.53
			C251.6,22.63,252.27,21.97,253.1,21.97L253.1,21.97z M253.1,22.16c-0.69,0-1.25,0.6-1.25,1.33c0,0.75,0.56,1.34,1.26,1.34
			c0.69,0.01,1.24-0.6,1.24-1.33C254.35,22.75,253.8,22.16,253.1,22.16L253.1,22.16z M252.8,24.37h-0.22v-1.7
			c0.15-0.02,0.27-0.04,0.44-0.04c0.24,0,0.4,0.05,0.5,0.13c0.1,0.07,0.16,0.19,0.16,0.35c0,0.23-0.16,0.37-0.33,0.42v0.01
			c0.15,0.03,0.25,0.16,0.29,0.41c0.04,0.26,0.08,0.37,0.12,0.42h-0.23c-0.04-0.05-0.09-0.21-0.13-0.43
			c-0.05-0.23-0.16-0.32-0.39-0.32h-0.2V24.37z M252.8,23.46h0.21c0.23,0,0.44-0.09,0.44-0.32c0-0.16-0.11-0.33-0.45-0.33
			c-0.09,0-0.15,0.01-0.2,0.01V23.46z"/>
	</g>
</g>
</svg>
