<?xml version="1.0" encoding="utf-8"?>
<!-- Generator: Adobe Illustrator 23.0.1, SVG Export Plug-In . SVG Version: 6.00 Build 0)  -->
<svg version="1.1" id="Layer_1" xmlns="http://www.w3.org/2000/svg" xmlns:xlink="http://www.w3.org/1999/xlink" x="0px" y="0px"
	 viewBox="0 0 487.33 487.91" style="enable-background:new 0 0 487.33 487.91;" xml:space="preserve">
<style type="text/css">
	.st0{fill:#C18CAA;}
	.st1{fill:#29316F;}
	.st2{fill:#2F52A4;}
	.st3{fill:#B7CAE9;}
	.st4{fill:#6B8FC9;}
	.st5{fill:#B3C6E6;}
	.st6{fill:#698BC7;}
	.st7{fill:#262C6A;}
	.st8{fill:#B2C6E6;}
	.st9{fill:#B2C7E7;}
	.st10{fill:#B0C4E5;}
	.st11{fill:#6389C6;}
	.st12{fill:#1F2458;}
	.st13{fill:#1D2054;}
	.st14{fill:#1F2258;}
	.st15{fill:#22265F;}
	.st16{fill:#631B41;}
	.st17{fill:#9F4A7A;}
	.st18{fill:#A04C7B;}
	.st19{fill:#E1C2D5;}
	.st20{fill:#DFBED2;}
	.st21{fill:#DEBCD1;}
	.st22{fill:#B9759C;}
	.st23{fill:#DEBDD1;}
	.st24{fill:#A2507E;}
	.st25{fill:#E0BFD4;}
	.st26{fill:#A35380;}
	.st27{fill:#B7719A;}
	.st28{fill:#E0C0D4;}
	.st29{fill:#C38BAB;}
	.st30{fill:#CB99B6;}
	.st31{fill:#BA9BAB;}
	.st32{fill:#EFD8E5;}
	.st33{fill:#BC7FA2;}
	.st34{fill:#CB9AB6;}
	.st35{fill:#F598AF;}
	.st36{fill:#7B2731;}
	.st37{fill:#AC2330;}
	.st38{fill:#F05A77;}
	.st39{fill:#F8B9C8;}
	.st40{fill:#F7BBCA;}
	.st41{fill:#F492A6;}
	.st42{fill:#F8B9C9;}
	.st43{fill:#EA2531;}
	.st44{fill:#F5B9C8;}
	.st45{fill:#EB2D36;}
	.st46{fill:#F8B8C2;}
	.st47{fill:#F4888A;}
	.st48{fill:#F6A6B5;}
	.st49{fill:#F15E74;}
	.st50{fill:#F16B87;}
	.st51{fill:#EF5E57;}
	.st52{fill:#F1686E;}
	.st53{fill:#EF475A;}
	.st54{fill:#E12F3B;}
	.st55{fill:#EF4663;}
	.st56{fill:#EE3451;}
	.st57{fill:#EC2E45;}
	.st58{fill:#F04E64;}
	.st59{fill:#EC233A;}
	.st60{fill:#41171B;}
	.st61{fill:#702A77;}
	.st62{fill:#C9A1CB;}
	.st63{fill:#904A9A;}
	.st64{fill:#F7F3F8;}
	.st65{fill:#96539F;}
	.st66{fill:#9A59A3;}
	.st67{fill:#924C9C;}
	.st68{fill:none;stroke:#924C9C;stroke-width:2;stroke-linecap:round;stroke-miterlimit:10;}
</style>
<path class="st2" d="M288.53,218h-2.56c0.18-10.94-3.86-21.68-11.31-29.89c-8.03-8.84-19.27-13.94-30.83-13.98h-0.15
	c-11.63,0-22.92,5.09-31,13.99c-7.46,8.21-11.48,18.93-11.32,29.88h-2.55c-6.6,0-12,5.4-12,12v71.77c0,6.6,5.4,12,12,12h89.72
	c6.6,0,12-5.4,12-12V230C300.53,223.4,295.13,218,288.53,218z M256.97,284.37h-26.6l7.37-13.35c-4.37-2.17-7.37-6.69-7.37-11.9
	c0-7.35,5.95-13.31,13.3-13.31c7.34,0,13.3,5.96,13.3,13.31c0,5.21-3,9.72-7.37,11.9L256.97,284.37z M221.37,218
	c-0.18-6,2-11.91,6.11-16.44c4.3-4.72,10.2-7.43,16.2-7.43h0.07c5.97,0.02,11.84,2.73,16.1,7.43c4.17,4.58,6.32,10.37,6.13,16.44
	H221.37z"/>
</svg>
