<?xml version="1.0" encoding="utf-8"?>
<!-- Generator: Adobe Illustrator 23.0.1, SVG Export Plug-In . SVG Version: 6.00 Build 0)  -->
<svg version="1.1" id="Layer_1" xmlns="http://www.w3.org/2000/svg" xmlns:xlink="http://www.w3.org/1999/xlink" x="0px" y="0px"
	 viewBox="0 0 915 682" style="enable-background:new 0 0 915 682;" xml:space="preserve">
<style type="text/css">
	.st0{fill:url(#SVGID_1_);}
	.st1{fill:#F5F5F5;}
	.st2{opacity:0.3;fill:#0255A4;enable-background:new    ;}
	.st3{fill:url(#SVGID_2_);}
	.st4{fill:#FFFFFF;}
	.st5{fill:url(#SVGID_3_);}
	.st6{fill:url(#SVGID_4_);}
	.st7{fill:url(#SVGID_5_);}
	.st8{fill:#0255A4;}
	.st9{opacity:0.6;fill:#0255A4;enable-background:new    ;}
</style>
<title>typing</title>
<linearGradient id="SVGID_1_" gradientUnits="userSpaceOnUse" x1="2731.5" y1="46" x2="2731.5" y2="554" gradientTransform="matrix(-1 0 0 -1 3046 570)">
	<stop  offset="0" style="stop-color:#808080;stop-opacity:0.25"/>
	<stop  offset="0.54" style="stop-color:#808080;stop-opacity:0.12"/>
	<stop  offset="1" style="stop-color:#808080;stop-opacity:0.1"/>
</linearGradient>
<polygon class="st0" points="15,16 614,16 614,450.06 233.15,450.06 192,524 148.77,450.06 15,450.06 "/>
<polygon class="st1" points="22.57,24.33 604.48,24.33 604.48,443.95 226.79,443.95 191.81,519.3 152.52,443.95 22.57,443.95 "/>
<rect x="96.18" y="150.1" class="st2" width="433.53" height="18.55"/>
<rect x="96.18" y="190.67" class="st2" width="433.53" height="18.55"/>
<rect x="96.18" y="231.24" class="st2" width="433.53" height="18.55"/>
<rect x="96.18" y="271.81" class="st2" width="433.53" height="18.55"/>
<linearGradient id="SVGID_2_" gradientUnits="userSpaceOnUse" x1="604" y1="17" x2="604" y2="524" gradientTransform="matrix(1 0 0 -1 0 690)">
	<stop  offset="0" style="stop-color:#808080;stop-opacity:0.25"/>
	<stop  offset="0.54" style="stop-color:#808080;stop-opacity:0.12"/>
	<stop  offset="1" style="stop-color:#808080;stop-opacity:0.1"/>
</linearGradient>
<polygon class="st3" points="900,166 308,166 308,599.21 690,599 726,673 767.79,599.21 900,599.21 "/>
<polygon class="st4" points="895.43,172.7 313.52,172.7 313.52,592.32 691.21,592.32 726.19,667.67 765.48,592.32 895.43,592.32 "/>
<linearGradient id="SVGID_3_" gradientUnits="userSpaceOnUse" x1="498.99" y1="265.18" x2="498.99" y2="349.8" gradientTransform="matrix(1 0 0 -1 0 690)">
	<stop  offset="0" style="stop-color:#808080;stop-opacity:0.25"/>
	<stop  offset="0.54" style="stop-color:#808080;stop-opacity:0.12"/>
	<stop  offset="1" style="stop-color:#808080;stop-opacity:0.1"/>
</linearGradient>
<circle class="st5" cx="498.99" cy="382.51" r="42.31"/>
<linearGradient id="SVGID_4_" gradientUnits="userSpaceOnUse" x1="604.48" y1="265.18" x2="604.48" y2="349.8" gradientTransform="matrix(1 0 0 -1 0 690)">
	<stop  offset="0" style="stop-color:#808080;stop-opacity:0.25"/>
	<stop  offset="0.54" style="stop-color:#808080;stop-opacity:0.12"/>
	<stop  offset="1" style="stop-color:#808080;stop-opacity:0.1"/>
</linearGradient>
<circle class="st6" cx="604.48" cy="382.51" r="42.31"/>
<linearGradient id="SVGID_5_" gradientUnits="userSpaceOnUse" x1="709.96" y1="265.18" x2="709.96" y2="349.8" gradientTransform="matrix(1 0 0 -1 0 690)">
	<stop  offset="0" style="stop-color:#808080;stop-opacity:0.25"/>
	<stop  offset="0.54" style="stop-color:#808080;stop-opacity:0.12"/>
	<stop  offset="1" style="stop-color:#808080;stop-opacity:0.1"/>
</linearGradient>
<circle class="st7" cx="709.96" cy="382.51" r="42.31"/>
<circle class="st8" cx="498.99" cy="382.51" r="38.25"/>
<circle class="st9" cx="604.48" cy="382.51" r="38.25"/>
<circle class="st2" cx="709.96" cy="382.51" r="38.25"/>
</svg>
