<?xml version="1.0" encoding="utf-8"?>
<!-- Generator: Adobe Illustrator 23.0.1, SVG Export Plug-In . SVG Version: 6.00 Build 0)  -->
<svg version="1.1" id="Layer_1" xmlns="http://www.w3.org/2000/svg" xmlns:xlink="http://www.w3.org/1999/xlink" x="0px" y="0px"
	 viewBox="0 0 487.33 753.52" style="enable-background:new 0 0 487.33 753.52;" xml:space="preserve">
<style type="text/css">
	.st0{fill:#C18CAA;}
	.st1{fill:#702A77;}
	.st2{fill:#29316F;}
	.st3{fill:#2F52A4;}
	.st4{fill:#B7CAE9;}
	.st5{fill:#6B8FC9;}
	.st6{fill:#B3C6E6;}
	.st7{fill:#698BC7;}
	.st8{fill:#262C6A;}
	.st9{fill:#B2C6E6;}
	.st10{fill:#B2C7E7;}
	.st11{fill:#B0C4E5;}
	.st12{fill:#6389C6;}
	.st13{fill:#1F2458;}
	.st14{fill:#1D2054;}
	.st15{fill:#1F2258;}
	.st16{fill:#22265F;}
	.st17{fill:#631B41;}
	.st18{fill:#9F4A7A;}
	.st19{fill:#A04C7B;}
	.st20{fill:#E1C2D5;}
	.st21{fill:#DFBED2;}
	.st22{fill:#DEBCD1;}
	.st23{fill:#B9759C;}
	.st24{fill:#DEBDD1;}
	.st25{fill:#A2507E;}
	.st26{fill:#E0BFD4;}
	.st27{fill:#A35380;}
	.st28{fill:#B7719A;}
	.st29{fill:#E0C0D4;}
	.st30{fill:#C38BAB;}
	.st31{fill:#CB99B6;}
	.st32{fill:#BA9BAB;}
	.st33{fill:#EFD8E5;}
	.st34{fill:#BC7FA2;}
	.st35{fill:#CB9AB6;}
	.st36{fill:#F598AF;}
	.st37{fill:#7B2731;}
	.st38{fill:#AC2330;}
	.st39{fill:#F05A77;}
	.st40{fill:#F8B9C8;}
	.st41{fill:#F7BBCA;}
	.st42{fill:#F492A6;}
	.st43{fill:#F8B9C9;}
	.st44{fill:#EA2531;}
	.st45{fill:#F5B9C8;}
	.st46{fill:#EB2D36;}
	.st47{fill:#F8B8C2;}
	.st48{fill:#F4888A;}
	.st49{fill:#F6A6B5;}
	.st50{fill:#F15E74;}
	.st51{fill:#F16B87;}
	.st52{fill:#EF5E57;}
	.st53{fill:#F1686E;}
	.st54{fill:#EF475A;}
	.st55{fill:#E12F3B;}
	.st56{fill:#EF4663;}
	.st57{fill:#EE3451;}
	.st58{fill:#EC2E45;}
	.st59{fill:#F04E64;}
	.st60{fill:#EC233A;}
	.st61{fill:#41171B;}
	.st62{fill:#C9A1CB;}
	.st63{fill:#904A9A;}
	.st64{fill:#F7F3F8;}
	.st65{fill:#96539F;}
	.st66{fill:#9A59A3;}
	.st67{fill:#924C9C;}
	.st68{fill:none;stroke:#924C9C;stroke-width:2;stroke-linecap:round;stroke-miterlimit:10;}
</style>
<path class="st0" d="M276.82,720.34c0.54-0.05,1.09-0.1,1.63-0.15C277.91,720.24,277.36,720.29,276.82,720.34z"/>
<g>
	<path class="st17" d="M421.27,399.71c-0.09,0.47-0.18,0.95-0.27,1.42c0.47,1.44,0.93,2.89,1.4,4.33c0.06,0.91,0.12,1.81,0.18,2.72
		c0.03,11.01,0.07,22.02,0.1,33.04c-0.11,4.7-0.22,9.4-0.32,14.1c-0.46,1.45-0.91,2.89-1.37,4.34c-1.46,15.11-3.78,30.2-4.11,45.34
		c-0.3,13.32,2.83,26.73,2.3,40.02c-0.97,24.51-3.77,48.93-5.27,73.43c-0.68,11.14,0.22,22.36-0.22,33.52
		c-0.23,5.77-1.82,11.48-2.8,17.22c-11.43,0.16-22.87,0.32-34.3,0.48c-0.44-4.9-0.81-9.81-1.34-14.7
		c-1.8-16.49-3.67-32.96-5.48-49.45c-1.48-13.48-2.78-26.99-4.39-40.46c-1.75-14.63-3.96-29.21-5.63-43.85
		c-1.28-11.15-2.08-22.36-3.01-33.56c-0.46-5.58-0.71-11.17-1.06-16.76c0-1.87,0.01-3.74,0.01-5.62c-0.06-0.57-0.12-1.14-0.18-1.71
		c-0.78-5.59-1.56-11.17-2.36-16.76c-2.56-17.99-5.14-35.98-7.7-53.96c4.95,0.76,10.18,2.94,14.8,2.03
		c14.97-2.95,29.37-7.78,40.57-19.05C402.3,388.36,412.03,393.82,421.27,399.71z"/>
	<path class="st18" d="M345.46,392.85c2.57,17.99,5.14,35.97,7.7,53.96c0.8,5.58,1.57,11.17,2.36,16.76
		c-1.57,4.28-3.37,8.49-4.68,12.85c-4.59,15.35-9.04,30.73-13.45,46.13c-0.51,1.77-0.59,3.71-0.56,5.57
		c0.27,22.05-2.89,43.66-8.29,64.99c-5.84,23.02-11.53,46.09-17.4,69.1c-0.48,1.89-1.85,3.55-2.81,5.32
		c-8.09-10.68-14.95-12.61-29-8.19c0.14-10.68-0.02-21.38,0.52-32.05c0.55-10.77,2.11-21.49,2.66-32.26
		c0.8-15.81,1.38-31.64,1.49-47.47c0.07-10.14-0.53-20.32-1.45-30.42c-1.71-18.97,4.51-36.34,9.71-54.05
		c4.93-16.79,8.88-33.86,13.22-50.83c1.62-6.35,3.13-12.73,4.69-19.1c7.97-0.04,9.21-7.88,13.76-11.87
		C328.99,389.09,336.51,392.29,345.46,392.85z"/>
	<path class="st19" d="M383.9,161.84c2.01,1.06,4,2.17,6.04,3.19c5.4,2.68,10.61,7,16.27,7.69c22.67,2.77,35.3,16.12,42.19,36.68
		c5.86,17.49,12.23,34.81,17.88,52.36c2.78,8.63,5.44,17.55,1.7,26.72c-9.16-11.29-21.04-9.33-33.04-6.76
		c-2.81-5.8-5.62-11.6-8.43-17.4c-7.6-14.39-15.13-28.83-22.82-43.17c-6.14-11.44-12.48-22.77-18.61-33.92
		c-14.08,2.8-27.41,11.34-41.4,1.55c-2.03,2.83-4.06,5.19-5.58,7.84c-8.68,15.16-15.62,30.97-15.4,48.87
		c0.23,18.74,0.97,37.47,1.32,56.2c0.05,2.44-0.9,4.9-1.38,7.35c-3.3-0.76-6.6-1.52-9.89-2.27c-0.52-2.17-1.52-4.35-1.47-6.51
		c0.3-13.73,1.13-27.45,1.18-41.17c0.04-10.37-0.97-20.74-1.25-31.12c-0.3-10.94,2.81-20.98,8.67-30.21
		c3.88-6.1,8.39-11.15,15.5-14.05c5.15-2.1,9.54-6.06,14.27-9.19c1.27,0.98,2.42,2.48,3.84,2.84
		C364.34,180.1,379.39,172.32,383.9,161.84z"/>
	<path class="st20" d="M369.54,131.67c-0.03,0.04-0.05,0.09-0.08,0.13c0.05-0.02,0.1-0.04,0.15-0.06c0.04-0.04,0.07-0.07,0.11-0.11
		C369.66,131.64,369.6,131.65,369.54,131.67z"/>
	<path class="st20" d="M388.65,115c-9.35,7.79-7.79,16.79-7.48,26.07c0.23,6.94,1.77,13.85,2.73,20.77
		c-4.51,10.49-19.56,18.26-30.43,15.52c-1.43-0.36-2.57-1.86-3.84-2.84c-0.98-4.99-1.96-9.99-2.94-14.99
		c4.81-4.84,9.95-9.41,14.32-14.63c3.31-3.95,5.67-8.7,8.45-13.1c0.05-0.02,0.1-0.04,0.15-0.06c0.04-0.04,0.07-0.07,0.11-0.11
		c0.12-0.03,0.24-0.06,0.34-0.12c0.09-0.05,0.09-0.24,0.13-0.36c-0.15,0.16-0.31,0.32-0.47,0.48c-0.06,0.01-0.12,0.02-0.18,0.04
		c-0.03,0.04-0.05,0.09-0.08,0.13c-2.32,0.92-4.79,1.6-6.9,2.85c-7.83,4.65-15.53,9.5-23.27,14.28c-7.03-1.55-12.25-5.37-16.06-11.6
		c-12.82-20.95-12.46-43.26-7.32-66.15c0.45-2.04,0.53-4.15,0.79-6.23c4.69-0.96,9.35-2.39,14.09-2.78
		c6.01-0.49,12.18,0.48,18.13-0.29c14.27-1.86,24.58,3.97,28.74,17.84c2.46,8.2,3.88,16.71,5.95,25.87
		c2.44-5.97,4.69-11.46,6.93-16.95C397.97,94.59,398.4,106.89,388.65,115z"/>
	<path class="st21" d="M434.93,281.72c12-2.57,23.87-4.53,33.04,6.76c-3.93,15.08-10.68,28.77-20.4,40.95
		c-6.49,8.14-14.98,15.26-19.27,24.39c-4.32,9.21-4.82,20.29-6.48,30.63c-0.8,4.98-0.4,10.16-0.55,15.25
		c-9.24-5.89-18.97-11.35-20.45-23.88c4.77-13.93,9.53-27.86,14.3-41.79C421.73,316.6,428.33,299.16,434.93,281.72z"/>
	<path class="st22" d="M279.32,659.35c14.06-4.43,20.91-2.49,29,8.19c-0.72,6.36-2.4,12.79-1.91,19.06
		c0.56,7.13,3.35,14.12-0.93,20.98c-8.33,0.94-16.66,2.64-24.99,2.61c-9.83-0.03-19.64-1.73-29.48-2.39
		c-6.12-0.41-12.27-0.24-18.41-0.33c0.98-2.28,3.31-5,2.72-6.75c-2.62-7.86,1.24-9.08,7.63-8.83c1.81,0.07,3.66-0.8,5.49-1.24
		c7.96,4.61,15.92,9.22,25.88,14.99c-2.49-4.66-3.61-8.83-6.31-11.23c-3.01-2.67-7.46-3.73-11.28-5.49
		c2.86-2.24,5.47-4.98,8.64-6.62C274.8,677.39,278.42,669.26,279.32,659.35z"/>
	<path class="st23" d="M390.54,88.64c-2.24,5.49-4.49,10.98-6.93,16.95c-2.07-9.16-3.49-17.67-5.95-25.87
		c-4.16-13.87-14.47-19.7-28.74-17.84c-5.95,0.77-12.12-0.2-18.13,0.29c-4.74,0.39-9.4,1.82-14.09,2.78c-1.4-1.48-2.8-2.96-4.2-4.44
		c-5.48-7.41-6.88-16.01-6.06-24.79c0.86-9.17,6.54-12.9,15.69-11.9c-1.67,1.51-3.59,3.24-5.51,4.96c2.34,1.68,4.5,4.35,7.06,4.81
		c4.21,0.76,8.83,0.77,13.02-0.11c14.96-3.15,29.56-3.31,43.38,4.14c6.74,3.63,11.28,9.18,12.21,17.13
		C397.28,66.33,394.52,77.52,390.54,88.64z"/>
	<path class="st24" d="M376.59,669.67c11.43-0.16,22.87-0.32,34.3-0.48c-0.17,4.53-0.21,9.07-0.55,13.58
		c-0.24,3.18-0.91,6.33-1.38,9.5c-5.03,0.38-10.07,0.77-15.11,1.15c-4.14-3.79-8.38-7.37-16.21-6.94c4.49,3.87,7.93,6.3,10.71,9.34
		c3.56,3.88,4.84,8.37,1,13.02c-6.52,0.16-13.04,0.31-19.57,0.47c0.44-3.4,0.59-6.88,1.4-10.19c0.87-3.55,2.52-6.9,3.52-10.43
		c0.92-3.23,1.68-6.55,2.02-9.89C377.02,675.79,376.66,672.72,376.59,669.67z"/>
	<path class="st25" d="M309.37,719.86c-10.31,0.11-20.61,0.23-30.92,0.34c-0.54,0.05-1.09,0.1-1.63,0.15
		c-14.44-0.03-28.88,0.11-43.3-0.32c-1.69-0.05-4.06-2.94-4.75-4.98c-1.11-3.27-0.52-6.63,3.85-7.58c6.13,0.09,12.29-0.08,18.4,0.33
		c9.84,0.66,19.65,2.35,29.48,2.39c8.33,0.03,16.66-1.68,24.98-2.61c2.54,1.79,5.07,3.59,7.6,5.39
		C316.33,717.68,316.22,720.59,309.37,719.86z"/>
	<path class="st26" d="M312.74,306.77c3.3,0.76,6.6,1.52,9.89,2.27c0.44,3.25,0.98,6.49,1.31,9.75c2.1,20.84-4.18,41.67-0.03,62.52
		c-4.55,4-5.79,11.84-13.76,11.87C311.01,364.38,311.87,335.58,312.74,306.77z"/>
	<path class="st27" d="M369.78,709.31c6.52-0.16,13.04-0.31,19.57-0.47c1.51-0.45,3.02-0.9,4.52-1.35c2.87,0.86,6.03,1.23,8.52,2.73
		c2.21,1.33,3.68,3.9,5.48,5.92c-3.38,1.48-6.77,4.19-10.14,4.17c-7.67-0.04-15.36-1.27-22.98-2.39c-1.86-0.27-3.51-1.99-5.25-3.04
		c0.09-1.86,0.18-3.72,0.28-5.58L369.78,709.31z"/>
	<path class="st28" d="M339.29,148.93c7.75-4.78,15.45-9.63,23.27-14.28c2.16-1.29,4.69-1.96,7.05-2.91c0,0-0.07-0.08-0.07-0.08
		c-2.81,4.44-5.18,9.25-8.53,13.24c-4.37,5.21-9.51,9.78-14.31,14.63C344.22,156,341.76,152.46,339.29,148.93z"/>
	<path class="st29" d="M407.87,716.13c-1.8-2.02-3.27-4.59-5.48-5.92c-2.49-1.49-5.65-1.87-8.52-2.73c0.47-1.82,0.94-3.64,1.41-5.45
		c4.78-1.92,9.57-3.84,14.35-5.76c0.22,6.27,0.48,12.53,0.56,18.8C410.2,715.41,408.68,715.77,407.87,716.13z"/>
	<path class="st30" d="M256.76,688.91c3.82,1.76,8.27,2.82,11.28,5.49c2.7,2.39,3.81,6.57,6.31,11.23
		c-9.97-5.77-17.93-10.38-25.88-14.99C251.23,690.06,253.99,689.49,256.76,688.91z"/>
	<path class="st31" d="M409.64,696.27c-4.78,1.92-9.57,3.84-14.36,5.76c-0.48-2.87-0.96-5.75-1.44-8.62
		c5.04-0.38,10.08-0.77,15.11-1.15C409.18,693.6,409.41,694.93,409.64,696.27z"/>
	<path class="st32" d="M422.69,441.22c-0.03-11.01-0.07-22.02-0.1-33.04C422.62,419.2,422.65,430.21,422.69,441.22z"/>
	<path class="st32" d="M421,459.66c0.46-1.45,0.91-2.89,1.37-4.34C421.91,456.77,421.45,458.21,421,459.66z"/>
	<path class="st32" d="M422.4,405.46c-0.47-1.44-0.93-2.89-1.4-4.33C421.47,402.57,421.94,404.02,422.4,405.46z"/>
	<path class="st18" d="M355.7,465.28c-0.01,1.87-0.01,3.75-0.01,5.62C355.69,469.02,355.7,467.15,355.7,465.28z"/>
	<path class="st33" d="M323.91,381.31c-4.15-20.84,2.12-41.68,0.03-62.52c-0.33-3.26-0.87-6.5-1.31-9.75
		c0.49-2.45,1.43-4.91,1.38-7.35c-0.35-18.74-1.1-37.47-1.32-56.2c-0.22-17.9,6.72-33.71,15.4-48.87c1.52-2.65,3.54-5.01,5.58-7.84
		c13.99,9.79,27.32,1.25,41.4-1.55c6.13,11.15,12.47,22.48,18.61,33.92c7.7,14.34,15.22,28.78,22.82,43.17
		c-0.86,0.67-2.16,1.16-2.5,2.03c-2.32,5.9-3.37,12.61-6.81,17.71c-11.11,16.47-4.81,33.19-2.06,49.96
		c-4.77,13.93-9.53,27.86-14.3,41.79c-11.2,11.27-25.59,16.1-40.57,19.05c-4.62,0.91-9.85-1.27-14.8-2.03
		C336.51,392.29,328.99,389.09,323.91,381.31z M365.05,282.01c0.56-0.05,1.13-0.11,1.69-0.16c-0.35-3.99,0.28-8.45-1.34-11.84
		c-1.63-3.41-5.49-5.76-8.38-8.57c-0.21,0.37-0.43,0.74-0.64,1.11C359.28,269.04,362.17,275.53,365.05,282.01z"/>
	<path class="st28" d="M369.61,131.74c0.19-0.2,0.39-0.4,0.58-0.59c-0.04,0.13-0.05,0.31-0.13,0.36c-0.15,0.09-0.34,0.11-0.52,0.15
		C369.54,131.66,369.61,131.74,369.61,131.74z"/>
	<path class="st34" d="M393.84,693.41c0.48,2.87,0.96,5.75,1.44,8.62c-0.47,1.82-0.94,3.64-1.41,5.45c-1.51,0.45-3.02,0.9-4.52,1.35
		c3.83-4.66,2.55-9.15-1.01-13.03c-2.78-3.03-6.21-5.47-10.71-9.34C385.47,686.04,389.7,689.62,393.84,693.41z"/>
	<path class="st35" d="M365.05,282.01c-2.89-6.49-5.78-12.98-8.66-19.46c0.21-0.37,0.43-0.74,0.64-1.11
		c2.89,2.81,6.75,5.16,8.38,8.57c1.62,3.39,0.98,7.85,1.34,11.84C366.18,281.91,365.62,281.96,365.05,282.01z"/>
	<path class="st23" d="M328.3,106.09c-0.18,0-0.35-0.09-0.44-0.26c-0.28-0.52-2.7-5.1-1.51-7.31c0.25-0.47,0.79-1.04,1.91-1.14
		c2.59-0.22,3.96-9.02,4.21-14.52c0.01-0.28,0.26-0.5,0.52-0.48c0.28,0.01,0.49,0.25,0.48,0.52c-0.07,1.55-0.81,15.12-5.12,15.48
		c-0.73,0.06-0.98,0.38-1.11,0.62c-0.79,1.47,0.82,5.08,1.51,6.35c0.13,0.24,0.04,0.55-0.2,0.68
		C328.47,106.07,328.38,106.09,328.3,106.09z"/>
	<path class="st23" d="M363.93,75.04c0,0-7.44,0.24-14.4,3.87c-0.75,0.38-1.52,0.82-2.25,1.32c-1.43,0-2.58-1.15-2.58-2.6
		c0-1.43,1.15-2.58,2.58-2.58C347.28,75.04,357.52,71.67,363.93,75.04z"/>
	<path class="st23" d="M313.84,82.89c0,0,4.09-2.38,9.47-2.18c0.58,0.02,1.19,0.07,1.81,0.17c0.77-0.49,0.86-1.7,0.2-2.73
		c-0.65-1.02-1.79-1.44-2.56-0.95C322.76,77.19,315.74,78.3,313.84,82.89z"/>
	<ellipse class="st23" cx="354.31" cy="88.8" rx="2.61" ry="4.34"/>
	<ellipse class="st23" cx="319.08" cy="89.89" rx="2.61" ry="4.34"/>
	<path class="st23" d="M332.32,116.14c-1.52,0-2.53-0.08-2.66-0.1c-0.55-0.05-0.96-0.53-0.91-1.08c0.05-0.55,0.54-0.95,1.08-0.91
		c0.11,0.01,10.88,0.9,16.25-3.52c0.43-0.35,1.06-0.29,1.41,0.13c0.35,0.43,0.29,1.06-0.13,1.41
		C343.07,115.61,336.12,116.14,332.32,116.14z"/>
	<path class="st23" d="M352.61,89.8c-0.47,0-0.87-0.41-0.9-0.94c-0.01-0.14-0.17-3.44,1.93-4.98c1.62-1.18,4-0.92,7.08,0.78
		c0.45,0.25,0.63,0.85,0.41,1.34c-0.22,0.49-0.77,0.69-1.21,0.45c-2.42-1.33-4.24-1.65-5.27-0.9c-1.23,0.89-1.13,3.17-1.13,3.19
		c0.03,0.55-0.35,1.02-0.85,1.06C352.64,89.79,352.63,89.8,352.61,89.8z"/>
	<path class="st23" d="M317.38,91.1c-0.47,0-0.87-0.41-0.9-0.94c-0.01-0.14-0.17-3.44,1.93-4.98c1.62-1.18,4-0.92,7.08,0.78
		c0.45,0.25,0.63,0.85,0.41,1.34c-0.22,0.49-0.77,0.69-1.21,0.45c-2.42-1.33-4.24-1.65-5.27-0.9c-1.23,0.89-1.13,3.17-1.13,3.19
		c0.03,0.55-0.35,1.02-0.85,1.06C317.41,91.1,317.39,91.1,317.38,91.1z"/>
</g>
<g>
	<g id="Artboard_1">
		<g>
			<path class="st36" d="M172.91,240.36c-2.48-5.23-3.13-11.34-4.58-17.06c-1.93-6.41-4.07-12.76-5.74-19.24
				c-0.92-3.59-2.19-6.79-4.38-9.15c-0.12-0.13-0.25-0.26-0.38-0.38c-1.66-1.64-3.82-2.83-6.7-3.4c-7.7-4-15.39-8-23.08-12.01
				l-0.04,0.18c0.21,0.43,0.22,0.86,0.03,1.3c1.66,5.68,0.68,10.58-3.04,15.47c-2.67,3.52-3.98,8.09-5.9,12.19
				c-1.48,3.82-2.96,7.64-4.75,12.24c-0.49-8.41-6.62-12.86-11.33-18.26c-7.3-0.26-12.19-3.72-15.98-10.11
				c-2.78-4.68-7.32-8.3-10.97-12.5c-0.88-1.02-1.31-2.42-1.95-3.65c-4.4,4.2-8.8,8.39-13.2,12.58c-1.47,1.43-2.72,3.28-4.46,4.21
				c-6.69,3.6-13.54,6.91-20.32,10.32c-2.6,14.61-5.1,29.23-7.86,43.81c-0.47,2.49-1.99,4.78-3.03,7.16c0.04,1.67,0.07,3.33,0.11,5
				c0.05,2.1,0.1,4.2,0.15,6.29c7.16,6.42,14.32,12.84,21.48,19.26c6.81-0.86,13.63-1.71,20.44-2.57
				c-1.32-7.61-2.64-15.22-4.22-24.34c7.03,9.77,7.3,20.33,9.8,30.13c0.14,0.28,0.28,0.56,0.42,0.83c0.13,0.28,0.27,0.56,0.41,0.83
				c0.12,0.69,0.24,1.38,0.37,2.07l0.36,2.07c0.17,0.96,0.35,1.92,0.53,2.88c-0.49,7.21-0.98,14.42-1.47,21.63
				c-0.96,9.8-1.92,19.61-2.87,29.42c11.78,12.33,27.51,12.7,42.83,13.69c13.97,0.9,27.32-1.6,38.99-10.09
				c4.51-5.65,2.46-12.57-5.7-19.28c-2.72,2.84-5.45,5.68-8.17,8.51c-0.93-8.66,6.43-11.44,10.1-16.74
				c0.3-30.62,0.61-61.24,0.91-91.86c0.05-0.04,0.1-0.08,0.15-0.12c0.63,13.69,1.26,27.38,1.96,42.6
				c5.79-0.67,10.88-1.26,15.97-1.85c4.46-3.99,9.18-7.73,13.24-12.09c1.43-1.52,1.26-4.53,1.82-6.87
				C179.47,249.13,175.21,245.21,172.91,240.36z M91.39,253.54c-4.5,4.33-7.8,1.94-10.43-0.61c-4.54-4.4-5.79-14.9-2.71-18.86
				c3.06-3.94,11.94-5.8,17.18-3.31c-5.03,3.96-14.34-0.01-14.96,8.84C79.99,246.41,82.09,252.69,91.39,253.54z M123.49,334.22
				c-3.91-15.9-7.58-29.75-6.55-44.69c1.24-18.01,1.36-36.1,1.81-54.16c0.05-1.99-0.96-4.01-1.47-6.01
				c0.76-0.32,1.51-0.63,2.27-0.94c1.14,4.57,3.28,9.14,3.24,13.7c-0.14,16.42-0.89,32.83-1.66,49.23
				c-0.55,11.82-0.38,23.52,3.28,34.93c0.43,1.35,0.5,2.84,0.56,4.27C124.99,331.11,124.53,331.7,123.49,334.22z"/>
			<path class="st37" d="M119.18,551.79c2.84,19.35,2.07,38.33-0.67,57.52c-1.05,7.36-0.47,14.96-0.64,22.46
				c-5.98,14.32-8.57,29.28-8.45,44.75c-0.31,1.01-0.62,2.01-0.93,3.02c-3.19-0.39-6.47-1.43-9.55-1.03
				c-6.54,0.86-12.98,2.48-19.47,3.78c-7.53-9.51-5.66-21.13-6.79-31.96c-2.18-20.88-4.66-41.81-5.2-62.77
				c-0.54-20.88,0.02-41.93,2.14-62.7c2.67-26.25,0.3-51.81-4.2-77.61c-2.72-15.57-2.57-31.63-3.71-47.48
				c1.47-0.58,2.94-1.16,4.41-1.75c0.61,0.89,1.34,2.61,1.82,2.55c6.4-0.88,12.87-16.27,9.16-22.87c-1.12,1.74-2.07,3.21-3.02,4.68
				c-2.44-8.73-4.89-17.47-7.34-26.2c0.2-2.17,0.41-4.34,0.61-6.5c0-0.01,0-0.01,0-0.02c3.68,3.28,7.57,5.85,11.63,7.88
				c5.08,2.53,10.42,4.22,15.92,5.39c1.1,0.23,2.21,0.44,3.32,0.64c1.67,0.29,3.35,0.54,5.04,0.76c1.13,0.14,2.26,0.27,3.4,0.39
				c3.97,0.41,8,0.68,12.03,0.92c0.88,16.09,1.84,32.17,2.6,48.26c0.22,4.7-0.11,9.44-0.19,14.16c-0.54,1.68-1.57,3.37-1.56,5.04
				c0.12,15.33,0.52,30.66,0.64,45.99c0.1,13.03-0.14,26.06-0.03,39.09c0.02,2.42,0.97,4.83,1.49,7.25
				C120.69,534.24,117.93,543.31,119.18,551.79z"/>
			<path class="st38" d="M121.1,428.06c0.08-4.72,0.41-9.46,0.19-14.16c-0.76-16.09-1.72-32.17-2.6-48.25
				c7.22-1.4,14.78-1.9,21.54-4.48c5.1-1.95,9.17-6.58,13.69-10.02c1.55-0.07,3.1-0.14,4.65-0.21c2.87,6.43,5.74,12.86,8.61,19.28
				c3.05,24.18,6.23,48.35,9.09,72.56c1.63,13.83,4.81,27.91,3.54,41.52c-1.47,15.79-6.57,31.33-10.97,46.73
				c-5.28,18.46-11.42,36.68-17.3,54.96c-5.33,16.55-9.82,33.57-23.82,45.6c-3.28,0.06-6.57,0.12-9.85,0.19
				c0.16-7.49-0.42-15.1,0.64-22.46c2.74-19.18,3.51-38.16,0.67-57.51c-1.25-8.48,1.51-17.55,2.46-26.36
				c1.31-5.13,2.79-10.21,3.9-15.38c1.95-9.11,5.87-18.48,5.01-27.36C128.77,464.35,124.4,446.26,121.1,428.06z"/>
			<path class="st39" d="M74.26,95.19c-8.02-4.15-8.28-11.07-6.55-18.62c2.93-12.81,6.78-25.35,20.79-30.12
				c5.69-1.94,12.16-1.57,19.25-2.36c0.39-7.81-1.31-15.92-7.63-23c8.95,0.1,14.76,5.9,18.21,17.9c9.26-4.34,17.06-0.91,22.81,6.1
				c5.62,6.84,10.73,14.42,14.44,22.43c6.99,15.08,2.37,28.65-7.82,40.8c-9.46,0.13-16.07-4.68-21.33-12.18
				c-0.02,1.79-0.04,3.57-0.07,6.61c-1.81-2.05-3.22-3.06-3.83-4.43c-3.83-8.56-7.33-17.28-11.28-25.78c-1-2.16-3.17-5.12-4.96-5.23
				c-2.24-0.14-5.51,1.72-6.8,3.71c-2.44,3.78-4.47,8.11-5.45,12.49c-1.97,8.77-3.11,17.72-4.64,26.82
				C84.19,105.12,79.23,100.16,74.26,95.19z"/>
			<path class="st40" d="M74.26,95.19c4.96,4.96,9.92,9.93,15.15,15.15c1.52-9.1,2.67-18.06,4.64-26.82
				c0.98-4.38,3.01-8.71,5.45-12.49c1.29-1.99,4.55-3.85,6.8-3.71c1.79,0.11,3.96,3.07,4.96,5.23c3.95,8.5,7.46,17.21,11.28,25.78
				c0.61,1.37,2.02,2.38,3.83,4.43c0.03-3.04,0.05-4.82,0.07-6.61c5.26,7.5,11.87,12.31,21.33,12.18
				c-1.7,9.19-2.81,18.54-5.25,27.53c-2.88,10.6-9.98,17.34-21.4,18.6c-7.49-5.42-12.95-13.86-23.54-15.19
				c4.41,7.64,9.3,14.86,14.8,21.57c1.34,1.63,4.69,1.62,7.11,2.37c-0.15,9.07-0.16,18.14-0.51,27.2
				c-0.19,4.92-0.94,9.82-1.44,14.72c-1.26,1.79-2.52,3.59-4.79,6.82c-2.02-6.43-3.68-11.69-5.34-16.96
				c4.54-9.4,2.83-17.18-4.8-24.59c-5.71-5.55-10.13-12.43-15.13-18.71c0.55-6.87,1.24-13.73,1.52-20.6
				c0.06-1.4-1.25-3.03-2.29-4.27c-3.25-3.89-6.67-7.65-10.03-11.45C71.23,109.19,71.4,102.35,74.26,95.19z"/>
			<path class="st41" d="M74.08,382.38c-2.65,5.22-5.31,10.43-7.96,15.64c-1.47,0.59-2.94,1.17-4.41,1.75
				c-1.05-0.52-2.66-0.77-3.05-1.61c-7.27-15.37-14.54-30.74-21.43-46.28c-1.2-2.71-0.72-6.16-1-9.27
				c-1.66-18.39-3.38-36.77-4.93-55.16c-0.3-3.59,0.05-7.23,0.1-10.84c4.65,3.18,9.3,6.36,13.96,9.54
				c6.24-0.16,12.49-0.31,18.74-0.47c0.07,1.69,0.27,3.38,0.2,5.06c-0.6,15.59-1.73,31.17-1.66,46.76
				c0.03,6.23,2.65,12.45,4.1,18.68C69.19,364.91,71.64,373.65,74.08,382.38z"/>
			<path class="st42" d="M108.49,679.54c0.31-1.01,0.62-2.01,0.93-3.02c5.05,2.2,10.1,4.4,16.17,7.04
				c-0.34-6.78-0.59-11.74-0.84-16.7c2.18,1.17,4.73,1.95,6.48,3.57c5.58,5.18,10.49,11.16,16.42,15.88
				c3.36,2.67,8.14,3.66,12.39,5.07c3.19,1.05,6.61,1.38,9.82,2.36c6.88,2.1,10.39,6.63,9.69,14.08c-0.27,2.88-0.21,5.8-0.3,8.7
				c-0.95,0.06-1.91,0.12-2.86,0.18c-20.05-1.79-40.1-3.59-61-5.46c-0.04,4.04-0.07,6.64-0.09,9.23c-0.05,0.3-0.09,0.6-0.12,0.9
				c-0.85-0.28-1.69-0.56-2.54-0.83c-0.04-1.02-0.07-2.04-0.1-3.07c0.03-2.79,0.06-5.58,0.09-9.48c-13.26,5.08-25.59,6.1-37.79,0.35
				c-0.44-0.04-0.88-0.06-1.32-0.05c1.4-4.89,2.8-9.78,4.19-14.66c9.42,0.72,18.85,1.45,29.58,2.27
				C107.67,690.71,108.08,685.13,108.49,679.54z"/>
			<path class="st43" d="M167.19,370.22c-2.87-6.43-5.74-12.86-8.61-19.28c0.14-3.43,1.27-7.24,0.18-10.22
				c-1.68-4.58-4.89-8.61-7.45-12.87c0.49-0.94,0.98-1.87,1.46-2.81c0.16-15.83,0.32-31.66,0.47-46.98
				c4.61-0.93,9.66-1.95,14.72-2.97c0.39,0.01,0.78,0.03,1.16,0.06c5.7,22.01,2.11,43.97-0.12,65.98
				c-0.6,5.93,0.55,12.02,0.32,18.02C169.16,362.86,167.93,366.53,167.19,370.22z"/>
			<path class="st44" d="M87.47,151.68c4.99,6.29,9.41,13.16,15.13,18.71c7.63,7.41,9.34,15.19,4.8,24.59
				c-1.46,2.42-2.92,4.84-4.38,7.26c-7.3-0.25-12.19-3.72-15.98-10.1c-2.78-4.68-7.32-8.31-10.97-12.5
				c-0.88-1.02-1.32-2.43-1.96-3.65c1.79-6.68,3.07-13.57,5.65-19.93C80.64,153.91,84.81,153.1,87.47,151.68z"/>
			<path class="st45" d="M124.75,666.85c0.25,4.96,0.5,9.92,0.84,16.7c-6.07-2.64-11.12-4.84-16.17-7.04
				c-0.12-15.47,2.46-30.43,8.45-44.75c3.28-0.06,6.57-0.12,9.85-0.18c-1.2,10-2.47,19.99-3.56,30
				C123.98,663.3,124.54,665.1,124.75,666.85z"/>
			<path class="st45" d="M108.49,679.54c-0.41,5.59-0.82,11.18-1.2,16.36c-10.73-0.82-20.15-1.55-29.58-2.27
				c0.59-3.78,1.17-7.55,1.76-11.33c6.48-1.31,12.92-2.92,19.47-3.78C102.02,678.11,105.3,679.15,108.49,679.54z"/>
			<path class="st46" d="M117.53,205.12c0.5-4.91,1.26-9.8,1.44-14.72c0.35-9.06,0.36-18.13,0.51-27.2
				c0.84-1.42,1.69-2.84,2.53-4.26c7.77,2.87,5.57,9.82,6.35,15.54c-0.1,1.55-0.21,3.09-0.31,4.64c0,0-0.04,0.18-0.04,0.18
				c-0.17,0.12-0.51,0.31-0.5,0.35c0.14,0.33,0.34,0.64,0.52,0.95c1.66,5.68,0.68,10.58-3.04,15.47c-2.68,3.53-3.98,8.09-5.9,12.19
				C118.58,207.22,118.06,206.17,117.53,205.12z"/>
			<path class="st39" d="M122.01,158.94c-0.84,1.42-1.69,2.84-2.53,4.26c-2.42-0.74-5.77-0.73-7.11-2.37
				c-5.5-6.71-10.39-13.93-14.8-21.57c10.59,1.34,16.06,9.77,23.54,15.19C121.41,155.95,121.71,157.44,122.01,158.94z"/>
			<path class="st47" d="M176.39,716.69c0.95-0.06,1.91-0.12,2.86-0.18c0.12,6.2-2.47,9.16-9.11,8.79
				c-16.01-0.89-32.04-1.31-48.06-2.09c-2.32-0.11-4.6-1.2-6.9-1.84c0.02-0.31,0.06-0.61,0.12-0.91c5.02,0.38,10.04,0.91,15.06,1.11
				c12.7,0.5,25.48,0.13,38.07,1.57C174.77,723.86,176.37,722.12,176.39,716.69z"/>
			<path class="st48" d="M36.14,203.09c-2.59,14.61-5.1,29.23-7.85,43.81c-0.47,2.49-1.99,4.78-3.03,7.16
				c-0.27-0.65-0.86-1.36-0.77-1.95c2.75-16.5,5.55-32.99,8.44-49.46c0.08-0.44,1.16-0.7,1.78-1.05
				C35.18,202.1,35.66,202.59,36.14,203.09z"/>
			<path class="st49" d="M112.53,717.47c0.03,1.03,0.07,2.05,0.1,3.07c-11.98,9.39-29.69,9.1-37.96-0.62c0,0-0.08,0.06-0.08,0.06
				c3.55,0.35,7.17,0.35,10.63,1.12C94.83,723.24,104.16,724.19,112.53,717.47z"/>
			<path class="st50" d="M168.33,223.3c-1.93-6.41-4.07-12.76-5.74-19.24c-1.64-6.38-4.36-11.52-11.47-12.93
				c1.78-0.03,3.55-0.06,5.32-0.09c0.67,0.07,1.34,0.14,2.01,0.21c0.73,0.46,1.45,0.92,2.18,1.38c7.35,7.28,6.39,17.46,9.21,26.32
				C169.34,220.4,168.83,221.85,168.33,223.3z"/>
			<path class="st51" d="M168.33,223.3c0.5-1.45,1.01-2.9,1.51-4.35c4.28,11.15,8.56,22.3,12.85,33.45
				c0.15,0.34,0.21,0.69,0.17,1.06c-3.4-4.33-7.65-8.25-9.95-13.1C170.43,235.13,169.78,229.02,168.33,223.3z"/>
			<path class="st52" d="M156.45,191.04c-1.77,0.03-3.55,0.06-5.32,0.09c-7.69-4-15.38-8.01-23.07-12.01
				c0.1-1.55,0.21-3.09,0.31-4.64C137.73,180,147.09,185.52,156.45,191.04z"/>
			<path class="st53" d="M36.14,203.09c-0.48-0.5-0.96-0.99-1.44-1.49c7.38-7.08,16.4-10.87,26.22-13.04
				c-1.47,1.43-2.72,3.28-4.46,4.21C49.77,196.37,42.92,199.68,36.14,203.09z"/>
			<path class="st54" d="M45.36,286.15c-4.65-3.18-9.31-6.36-13.96-9.54c-0.1-0.3-0.29-0.52-0.57-0.66c-0.4-0.58-0.8-1.17-1.2-1.75
				c-1.84-2.9-3.68-5.8-5.52-8.7c0,0,0.71,0.01,0.71,0.01l0.7-0.15c7.16,6.42,14.32,12.84,21.48,19.26
				C46.44,285.12,45.9,285.64,45.36,286.15z"/>
			<path class="st52" d="M182.86,253.46c0.04-0.37-0.02-0.72-0.17-1.06c2.86,6.82-0.37,11.77-5.13,16.09
				c-2.65,2.41-5.62,4.45-8.45,6.66c-0.39-0.03-0.77-0.05-1.16-0.06c-0.05-0.89-0.1-1.78-0.14-2.67c4.46-3.99,9.17-7.73,13.24-12.09
				C182.47,258.81,182.3,255.8,182.86,253.46z"/>
			<path class="st49" d="M73.52,708.28c0.44-0.01,0.88,0.01,1.32,0.05c-0.08,3.88-0.16,7.76-0.24,11.64c0,0,0.08-0.06,0.08-0.06
				C70.5,716.41,71.36,712.41,73.52,708.28z"/>
			<path class="st48" d="M25.51,265.35l-0.7,0.15c0,0-0.71-0.01-0.71-0.01c-0.84-1.86-1.68-3.73-2.53-5.59
				c1.26-0.29,2.52-0.57,3.78-0.85C25.41,261.16,25.46,263.26,25.51,265.35z"/>
			<path class="st52" d="M160.64,192.63c-0.73-0.46-1.45-0.92-2.18-1.38C159.19,191.71,159.91,192.17,160.64,192.63z"/>
			<path class="st41" d="M29.62,274.19c0.4,0.58,0.8,1.17,1.2,1.75C30.43,275.36,30.03,274.78,29.62,274.19z"/>
			<path class="st51" d="M119.55,228.42c1.14,4.57,3.28,9.14,3.24,13.7c-0.14,16.42-0.9,32.83-1.66,49.24
				c-0.55,11.82-0.38,23.51,3.28,34.92c0.43,1.35,0.5,2.84,0.56,4.27c0.02,0.56-0.43,1.15-1.48,3.67
				c-3.91-15.9-7.58-29.75-6.55-44.69c1.24-18.01,1.36-36.1,1.81-54.15c0.05-1.99-0.95-4.01-1.47-6.02
				C118.04,229.04,118.79,228.73,119.55,228.42z"/>
			<path class="st55" d="M153.92,351.14c-4.52,3.44-8.59,8.07-13.69,10.02c-6.76,2.59-14.32,3.09-21.54,4.48
				c-4.03-0.24-8.06-0.51-12.03-0.92c-1.14-0.12-2.27-0.25-3.4-0.39c-1.69-0.22-3.37-0.47-5.04-0.76c-1.11-0.2-2.22-0.41-3.32-0.64
				c-5.5-1.16-10.84-2.85-15.92-5.39c-4.06-2.02-7.95-4.59-11.63-7.86c0-0.01,0-0.01,0-0.02c0.19-1.17,0.37-2.36,0.56-3.54
				c0.95,0.48,1.9,0.96,2.85,1.44c11.78,12.33,27.51,12.7,42.83,13.69c13.97,0.9,27.32-1.6,38.99-10.09
				C153.03,351.14,153.48,351.14,153.92,351.14z"/>
			<path class="st56" d="M167.8,272.42c0.05,0.89,0.1,1.78,0.14,2.67c-5.05,1.02-10.1,2.04-14.71,2.97
				c-0.15,15.32-0.31,31.15-0.47,46.98c-1.32-0.46-2.64-0.92-3.96-1.39c0.31-30.62,0.61-61.24,0.92-91.86
				c0.05-0.04,0.1-0.08,0.15-0.12c0.63,13.69,1.26,27.39,1.96,42.61C157.62,273.6,162.71,273.01,167.8,272.42z"/>
			<path class="st54" d="M75.1,296.51c-0.49,7.21-0.98,14.42-1.47,21.63c-0.96,9.8-1.92,19.61-2.87,29.42
				c-0.95-0.48-1.9-0.96-2.85-1.44h0.17c-0.34-0.99-0.67-1.97-1.01-2.96c0.3-3.36,0.7-6.71,0.87-10.07
				c0.81-15.59,1.55-31.16,2.32-46.75c0.92,0.49,1.83,0.99,2.75,1.49c0.14,0.28,0.28,0.56,0.42,0.83c0.14,0.28,0.28,0.56,0.42,0.83
				l0.72,4.14C74.74,294.59,74.92,295.55,75.1,296.51z"/>
			<path class="st57" d="M95.43,230.76c-5.04,3.96-14.34-0.01-14.97,8.84c-0.48,6.8,1.62,13.08,10.92,13.93
				c-4.5,4.33-7.79,1.94-10.42-0.61c-4.54-4.4-5.8-14.9-2.72-18.86C81.31,230.13,90.19,228.27,95.43,230.76z"/>
			<path class="st58" d="M153.92,351.14c-0.45-0.01-0.9,0-1.35,0.02c4.51-5.65,2.46-12.58-5.7-19.28c1.47-1.34,2.95-2.69,4.42-4.03
				c2.56,4.26,5.77,8.28,7.45,12.87c1.09,2.99-0.04,6.79-0.18,10.22C157.02,351,155.47,351.07,153.92,351.14z"/>
			<path class="st54" d="M117.53,205.12c0.52,1.05,1.05,2.1,1.57,3.14c-1.48,3.82-2.97,7.64-4.75,12.23
				c-0.49-8.41-6.62-12.85-11.33-18.26c1.46-2.42,2.92-4.84,4.38-7.26c1.66,5.27,3.32,10.54,5.34,16.96
				C115.02,208.71,116.28,206.91,117.53,205.12z"/>
			<path class="st59" d="M73.01,287.83c-0.92-0.5-1.83-1-2.75-1.5c-0.93-1.41-1.86-2.82-2.79-4.24l-0.04-0.05
				c-1.32-7.61-2.64-15.22-4.22-24.34C70.24,267.47,70.51,278.03,73.01,287.83z"/>
			<path class="st60" d="M151.3,327.85c-1.47,1.35-2.95,2.69-4.42,4.03c-2.72,2.84-5.44,5.67-8.16,8.51
				c-0.94-8.66,6.43-11.45,10.09-16.75c1.32,0.46,2.64,0.92,3.96,1.39C152.28,325.97,151.79,326.91,151.3,327.85z"/>
			<path class="st59" d="M67.47,282.09c-1.13,1.2-2.25,2.39-3.37,3.59c-6.25,0.16-12.5,0.31-18.74,0.47
				c0.54-0.51,1.08-1.03,1.63-1.54c6.81-0.86,13.63-1.71,20.44-2.57L67.47,282.09z"/>
			<path class="st59" d="M73.63,318.14c0.49-7.21,0.99-14.42,1.48-21.62C74.61,303.72,74.12,310.93,73.63,318.14z"/>
			<path class="st59" d="M74.57,293.63c-0.24-1.38-0.48-2.76-0.72-4.14C74.08,290.87,74.33,292.25,74.57,293.63z"/>
			<path class="st52" d="M128.04,180.6c-0.18-0.31-0.39-0.62-0.52-0.95c-0.02-0.04,0.32-0.23,0.5-0.35
				C128.22,179.73,128.23,180.16,128.04,180.6z"/>
			<path class="st61" d="M66.12,398.02c2.66-5.21,5.31-10.43,7.97-15.64c0.95-1.47,1.89-2.94,3.01-4.68
				c3.72,6.6-2.76,21.99-9.15,22.87C67.46,400.63,66.73,398.91,66.12,398.02z"/>
			<path class="st55" d="M68.08,346.12c-0.34-0.98-0.67-1.97-1.01-2.95C67.41,344.15,67.74,345.13,68.08,346.12z"/>
		</g>
	</g>
	<path class="st39" d="M110.9,91.91c-1.54,0.97-4.33,3.04-5.49,5.94c0,0-0.18-3.48,1.89-6.55c1.3-1.92,2.73-2.25,3.66-1.72
		C111.84,90.08,111.75,91.38,110.9,91.91z"/>
	<path class="st39" d="M135.06,119.05c-0.14,0-0.28-0.04-0.4-0.13c-0.3-0.22-0.36-0.65-0.14-0.95c1.5-2.02,2.04-3.63,1.54-4.66
		c-0.59-1.24-2.64-1.58-3.38-1.61c-0.37-0.01-0.66-0.33-0.65-0.7c0.01-0.37,0.34-0.69,0.7-0.65c0.14,0,3.49,0.15,4.55,2.38
		c0.74,1.54,0.17,3.57-1.68,6.06C135.47,118.96,135.26,119.05,135.06,119.05z"/>
	<path class="st39" d="M115.04,104.66c0,1.55-0.9,2.81-2,2.81c-1.1,0-2-1.26-2-2.81c0-0.83,0.26-1.58,0.67-2.1
		c-1.2,0.74-2.36,2.46-2.78,3.21c-0.09,0.17-0.26,0.26-0.44,0.26c-0.08,0-0.16-0.02-0.24-0.07c-0.24-0.13-0.33-0.44-0.19-0.68
		c0.22-0.4,2.26-3.92,4.56-4.07c0.85-0.06,1.61,0.34,2.25,1.18c0.16,0.22,0.12,0.54-0.1,0.7c-0.01,0.01-0.03,0.02-0.05,0.03
		C114.92,103.57,115.04,104.09,115.04,104.66z"/>
	<path class="st39" d="M128.81,129.11c-2.56,0-5.87-0.38-8.74-1.92c-0.33-0.18-0.45-0.58-0.27-0.91c0.18-0.33,0.58-0.45,0.91-0.27
		c5.08,2.74,11.97,1.45,12.04,1.44c0.36-0.07,0.71,0.17,0.78,0.53c0.07,0.36-0.17,0.71-0.53,0.78
		C132.86,128.79,131.15,129.11,128.81,129.11z"/>
</g>
</svg>
