<?xml version="1.0" encoding="utf-8"?>
<!-- Generator: Adobe Illustrator 23.0.1, SVG Export Plug-In . SVG Version: 6.00 Build 0)  -->
<svg version="1.1" id="Layer_1" xmlns="http://www.w3.org/2000/svg" xmlns:xlink="http://www.w3.org/1999/xlink" x="0px" y="0px"
	 viewBox="0 0 229.19 230.06" style="enable-background:new 0 0 229.19 230.06;" xml:space="preserve">
<style type="text/css">
	.st0{fill:#5BBFA9;}
	.st1{fill:#44BB8A;}
	.st2{fill:#FFFFFF;}
	.st3{fill:#F47C2D;}
</style>
<g>
	<path class="st1" d="M221.55,115.03c0,19.49,0.13,38.98-0.04,58.47c-0.18,21.21-11.02,38.2-29.1,44.68
		c-6.3,2.26-13.27,3.62-19.94,3.68c-38.48,0.34-76.96,0.25-115.43,0.14c-29.44-0.08-49.27-19.87-49.36-49.27
		c-0.11-38.48-0.12-76.96,0-115.44C7.77,27.9,27.64,8.11,57.05,8.05c38.65-0.09,77.29-0.11,115.94,0.01
		c23.86,0.08,41.99,14.03,47.06,36.14c1.03,4.5,1.4,9.23,1.44,13.86C221.65,77.05,221.56,96.04,221.55,115.03z M125.52,42.77
		c-0.15-0.48-0.31-0.97-0.46-1.45c-1.58-0.14-3.23-0.65-4.72-0.36c-9.57,1.9-19.54,2.81-28.58,6.17
		C38.76,66.86,25.93,132.01,67.09,170.7c36.41,34.22,100.01,19.1,116.99-27.86c1.01-2.78,1.3-5.83,1.92-8.75
		c-1.81,0.74-2.49,1.81-3.09,2.92c-20.72,38.5-72.79,41.38-97.56,5.39c-10.62-15.43-10.62-35.23,0-49.56
		c10.27-13.86,25.8-18.08,44.81-12.36c6,1.81,11.87,4.33,16.88,8.13c3.31,2.51,9.33,12.63,14.28,10.16
		c1.82-0.91,2.89-2.92,3.15-4.93c1.35-10.19-10.89-18.69-19.73-19.83c-3.96-0.51-8.03-0.25-11.94-0.98
		c-3.69-0.69-7.52-1.7-10.75-3.53c-3.96-2.23-3.59-6.15,0.55-8.01c6.5-2.93,12.81-2.68,18.89,1.66c2.77,1.98,7.62,5.07,11.1,3.51
		c3.27-1.48,3.36-6.56,0.89-9.17c-2.47-2.61-6.36-3.24-9.96-3.27c-6.96-0.06-13.86,0.92-20.68,0.81c-1.62-0.03-4.08-1.57-4.57-2.98
		c-0.45-1.31,0.89-3.63,2.03-5.01C121.72,45.33,123.75,44.16,125.52,42.77z"/>
</g>
</svg>
