<?xml version="1.0" encoding="utf-8"?>
<!-- Generator: Adobe Illustrator 23.0.1, SVG Export Plug-In . SVG Version: 6.00 Build 0)  -->
<svg version="1.1" id="c30e0d3c-7d63-44c3-a844-05f19c6deb9e"
	 xmlns="http://www.w3.org/2000/svg" xmlns:xlink="http://www.w3.org/1999/xlink" x="0px" y="0px" viewBox="0 0 423.78 702.7"
	 style="enable-background:new 0 0 423.78 702.7;" xml:space="preserve">
<style type="text/css">
	.st0{opacity:0.5;}
	.st1{fill:url(#SVGID_1_);}
	.st2{fill:#535461;}
	.st3{fill:#FFFFFF;}
	.st4{fill:#E6E6E6;}
	.st5{opacity:0.6;}
	.st6{fill:#0255A4;}
	.st7{opacity:0.6;fill:#0255A4;enable-background:new    ;}
	.st8{opacity:0.1;}
</style>
<title>mobile_apps</title>
<g class="st0">
	
		<linearGradient id="SVGID_1_" gradientUnits="userSpaceOnUse" x1="224.1862" y1="585.7479" x2="508.7145" y2="-86.1044" gradientTransform="matrix(1 -2.443458e-03 2.443458e-03 1 -154.52 101.6619)">
		<stop  offset="0" style="stop-color:#808080;stop-opacity:0.25"/>
		<stop  offset="0.54" style="stop-color:#808080;stop-opacity:0.12"/>
		<stop  offset="1" style="stop-color:#808080;stop-opacity:0.1"/>
	</linearGradient>
	<path class="st1" d="M378,25.6L45.5,26.41c-7.54,0.02-13.65,6.15-13.63,13.69l0,0l1.51,621.85c0.02,7.54,6.15,13.65,13.69,13.63
		h0.01l332.5-0.81c7.54-0.02,13.65-6.15,13.63-13.69l0,0l-1.5-621.85c-0.02-7.54-6.15-13.65-13.69-13.63
		C378.01,25.6,378.01,25.6,378,25.6z"/>
</g>
<path class="st2" d="M50.36,34.88l322.83-0.79c7.53-0.02,13.65,6.07,13.67,13.61l1.48,604.67c0.02,7.53-6.07,13.65-13.61,13.67
	L51.9,666.83c-7.53,0.02-13.65-6.07-13.67-13.61L36.75,48.55C36.74,41.02,42.83,34.9,50.36,34.88z"/>
<path class="st3" d="M379.51,636.89c0.02,7.34-5.92,13.31-13.26,13.33l-306,0.74c-7.34,0.02-13.31-5.92-13.33-13.26l-0.21-89.75
	L45.54,64.03c-0.02-7.34,5.92-13.31,13.26-13.33l64-0.15c2.13,13.83,14.01,24.04,28,24.07l120.92-0.29
	c14.03-0.05,25.92-10.33,27.99-24.21l65-0.16c7.34-0.02,13.31,5.92,13.33,13.26l1.25,484.73L379.51,636.89z"/>
<path class="st4" d="M379.51,636.89c0.02,7.34-5.92,13.31-13.26,13.33l-306,0.74c-7.34,0.02-13.31-5.92-13.33-13.26l-0.21-89.75
	h332.58L379.51,636.89z"/>
<path class="st3" d="M171.62,58.49l74.01-1.11c1.1-0.02,2.01,0.87,2.03,1.97l0.01,0.88c0.02,1.1-0.87,2.01-1.97,2.03l-74.01,1.11
	c-1.1,0.02-2.01-0.87-2.03-1.97l-0.01-0.88C169.64,59.42,170.52,58.51,171.62,58.49z"/>
<circle class="st3" cx="264.23" cy="59.04" r="2.93"/>
<g class="st5">
	<path class="st6" d="M73.19,127.46h43c5.8,0,10.5,4.7,10.5,10.5v43c0,5.8-4.7,10.5-10.5,10.5h-43c-5.8,0-10.5-4.7-10.5-10.5v-43
		C62.69,132.16,67.39,127.46,73.19,127.46z"/>
	<path class="st6" d="M152.19,127.46h43c5.8,0,10.5,4.7,10.5,10.5v43c0,5.8-4.7,10.5-10.5,10.5h-43c-5.8,0-10.5-4.7-10.5-10.5v-43
		C141.69,132.16,146.39,127.46,152.19,127.46z"/>
	<path class="st6" d="M231.19,127.46h43c5.8,0,10.5,4.7,10.5,10.5v43c0,5.8-4.7,10.5-10.5,10.5h-43c-5.8,0-10.5-4.7-10.5-10.5v-43
		C220.69,132.16,225.39,127.46,231.19,127.46z"/>
	<path class="st6" d="M310.19,127.46h43c5.8,0,10.5,4.7,10.5,10.5v43c0,5.8-4.7,10.5-10.5,10.5h-43c-5.8,0-10.5-4.7-10.5-10.5v-43
		C299.69,132.16,304.39,127.46,310.19,127.46z"/>
</g>
<path class="st6" d="M72.86,223.46h43c5.8,0,10.5,4.7,10.5,10.5v43c0,5.8-4.7,10.5-10.5,10.5h-43c-5.8,0-10.5-4.7-10.5-10.5v-43
	C62.36,228.16,67.06,223.46,72.86,223.46z"/>
<path class="st7" d="M151.86,223.46h43c5.8,0,10.5,4.7,10.5,10.5v43c0,5.8-4.7,10.5-10.5,10.5h-43c-5.8,0-10.5-4.7-10.5-10.5v-43
	C141.36,228.16,146.06,223.46,151.86,223.46z"/>
<path class="st7" d="M230.86,223.46h43c5.8,0,10.5,4.7,10.5,10.5v43c0,5.8-4.7,10.5-10.5,10.5h-43c-5.8,0-10.5-4.7-10.5-10.5v-43
	C220.36,228.16,225.06,223.46,230.86,223.46z"/>
<path class="st7" d="M309.86,223.46h43c5.8,0,10.5,4.7,10.5,10.5v43c0,5.8-4.7,10.5-10.5,10.5h-43c-5.8,0-10.5-4.7-10.5-10.5v-43
	C299.36,228.16,304.06,223.46,309.86,223.46z"/>
<g class="st5">
	<path class="st6" d="M72.53,319.46h43c5.8,0,10.5,4.7,10.5,10.5v43c0,5.8-4.7,10.5-10.5,10.5h-43c-5.8,0-10.5-4.7-10.5-10.5v-43
		C62.03,324.16,66.73,319.46,72.53,319.46z"/>
	<path class="st6" d="M151.53,319.46h43c5.8,0,10.5,4.7,10.5,10.5v43c0,5.8-4.7,10.5-10.5,10.5h-43c-5.8,0-10.5-4.7-10.5-10.5v-43
		C141.03,324.16,145.73,319.46,151.53,319.46z"/>
	<path class="st6" d="M230.53,319.46h43c5.8,0,10.5,4.7,10.5,10.5v43c0,5.8-4.7,10.5-10.5,10.5h-43c-5.8,0-10.5-4.7-10.5-10.5v-43
		C220.03,324.16,224.73,319.46,230.53,319.46z"/>
	<path class="st6" d="M309.53,319.46h43c5.8,0,10.5,4.7,10.5,10.5v43c0,5.8-4.7,10.5-10.5,10.5h-43c-5.8,0-10.5-4.7-10.5-10.5v-43
		C299.03,324.16,303.73,319.46,309.53,319.46z"/>
</g>
<g class="st5">
	<path class="st6" d="M72.21,415.46h43c5.8,0,10.5,4.7,10.5,10.5v43c0,5.8-4.7,10.5-10.5,10.5h-43c-5.8,0-10.5-4.7-10.5-10.5v-43
		C61.71,420.16,66.41,415.46,72.21,415.46z"/>
	<path class="st6" d="M151.21,415.46h43c5.8,0,10.5,4.7,10.5,10.5v43c0,5.8-4.7,10.5-10.5,10.5h-43c-5.8,0-10.5-4.7-10.5-10.5v-43
		C140.71,420.16,145.41,415.46,151.21,415.46z"/>
	<path class="st6" d="M230.21,415.46h43c5.8,0,10.5,4.7,10.5,10.5v43c0,5.8-4.7,10.5-10.5,10.5h-43c-5.8,0-10.5-4.7-10.5-10.5v-43
		C219.71,420.16,224.41,415.46,230.21,415.46z"/>
	<path class="st6" d="M309.21,415.46h43c5.8,0,10.5,4.7,10.5,10.5v43c0,5.8-4.7,10.5-10.5,10.5h-43c-5.8,0-10.5-4.7-10.5-10.5v-43
		C298.71,420.16,303.41,415.46,309.21,415.46z"/>
</g>
<g class="st5">
	<path class="st6" d="M73.21,567.95h43c5.8,0,10.5,4.7,10.5,10.5v43c0,5.8-4.7,10.5-10.5,10.5h-43c-5.8,0-10.5-4.7-10.5-10.5v-43
		C62.71,572.65,67.41,567.95,73.21,567.95z"/>
	<path class="st6" d="M152.21,567.95h43c5.8,0,10.5,4.7,10.5,10.5v43c0,5.8-4.7,10.5-10.5,10.5h-43c-5.8,0-10.5-4.7-10.5-10.5v-43
		C141.71,572.65,146.41,567.95,152.21,567.95z"/>
	<path class="st6" d="M231.21,567.95h43c5.8,0,10.5,4.7,10.5,10.5v43c0,5.8-4.7,10.5-10.5,10.5h-43c-5.8,0-10.5-4.7-10.5-10.5v-43
		C220.71,572.65,225.41,567.95,231.21,567.95z"/>
	<path class="st6" d="M310.21,567.95h43c5.8,0,10.5,4.7,10.5,10.5v43c0,5.8-4.7,10.5-10.5,10.5h-43c-5.8,0-10.5-4.7-10.5-10.5v-43
		C299.71,572.65,304.41,567.95,310.21,567.95z"/>
</g>
<g class="st8">
	<path d="M73.21,567.95h43c5.8,0,10.5,4.7,10.5,10.5v43c0,5.8-4.7,10.5-10.5,10.5h-43c-5.8,0-10.5-4.7-10.5-10.5v-43
		C62.71,572.65,67.41,567.95,73.21,567.95z"/>
	<path d="M152.21,567.95h43c5.8,0,10.5,4.7,10.5,10.5v43c0,5.8-4.7,10.5-10.5,10.5h-43c-5.8,0-10.5-4.7-10.5-10.5v-43
		C141.71,572.65,146.41,567.95,152.21,567.95z"/>
	<path d="M231.21,567.95h43c5.8,0,10.5,4.7,10.5,10.5v43c0,5.8-4.7,10.5-10.5,10.5h-43c-5.8,0-10.5-4.7-10.5-10.5v-43
		C220.71,572.65,225.41,567.95,231.21,567.95z"/>
	<path d="M310.21,567.95h43c5.8,0,10.5,4.7,10.5,10.5v43c0,5.8-4.7,10.5-10.5,10.5h-43c-5.8,0-10.5-4.7-10.5-10.5v-43
		C299.71,572.65,304.41,567.95,310.21,567.95z"/>
</g>
</svg>
