<?xml version="1.0" encoding="utf-8"?>
<!-- Generator: Adobe Illustrator 23.0.1, SVG Export Plug-In . SVG Version: 6.00 Build 0)  -->
<svg version="1.1" id="eb7145bf-7e09-429c-a529-19108004bd12"
	 xmlns="http://www.w3.org/2000/svg" xmlns:xlink="http://www.w3.org/1999/xlink" x="0px" y="0px" viewBox="0 0 905.39 787.66"
	 style="enable-background:new 0 0 905.39 787.66;" xml:space="preserve">
<style type="text/css">
	.st0{opacity:0.1;fill:#0255A4;enable-background:new    ;}
	.st1{fill:#FFBEC7;}
	.st2{fill:url(#SVGID_1_);}
	.st3{fill:url(#SVGID_2_);}
	.st4{fill:url(#SVGID_3_);}
	.st5{fill:url(#SVGID_4_);}
	.st6{fill:url(#SVGID_5_);}
	.st7{fill:#DFE5EE;}
	.st8{opacity:0.05;enable-background:new    ;}
	.st9{fill:#0255A4;}
	.st10{opacity:0.5;fill:#EFF4F8;enable-background:new    ;}
	.st11{fill:#FFFFFF;}
	.st12{opacity:0.5;}
	.st13{fill:url(#SVGID_6_);}
	.st14{fill:#535461;}
	.st15{fill:#E6E6E6;}
	.st16{opacity:0.6;}
	.st17{opacity:0.6;fill:#0255A4;enable-background:new    ;}
	.st18{opacity:0.1;}
</style>
<title>accept_terms</title>
<path class="st0" d="M0.41,404.29c2.74,30.35,19.91,57.83,30.41,86.74c14.85,41.05,16.25,85.77,4,127.67
	c-2.5,8.61-5.58,17.25-5.59,26.07c0,30.41,34.65,50.59,66.13,64c80.01,33.97,163.46,59.18,248.89,75.2
	c27.94,5.27,62.83,7.56,80.51-12.29c8.48-9.53,10.54-22,16.77-32.66c15.89-27.26,54.55-37.85,89.25-43.92
	c41.84-7.31,84.07-12.17,126.48-14.56c42.69-2.4,91.17-4.48,119.46-32.52c18-17.82,23.22-42.41,23.93-65.63
	c2.35-76.19-34.06-158.64,12.67-224.63c19.6-27.68,51.58-47.89,71-75.64c28.15-40.22,25.72-91.3,6.66-134.16s-52.83-79.3-86.1-115
	c-11-11.81-22.74-24.09-39.28-29.57c-17.2-5.7-36.7-3.08-55.14-0.39c-83.88,12.25-171,25.59-241.31,67.65
	c-34.94,20.89-64.12,48-95.29,72.89c-67.33,53.83-145.34,103.56-234.25,124.81C67.38,285.63-6.09,332.21,0.41,404.29z"/>
<path class="st1" d="M274.92,188.25c0,0-58-10.24,0,68.28V188.25z"/>
<linearGradient id="SVGID_1_" gradientUnits="userSpaceOnUse" x1="637.689" y1="513.3806" x2="637.689" y2="-34.0718" gradientTransform="matrix(1 0 0 1 -147.3 231.83)">
	<stop  offset="0" style="stop-color:#808080;stop-opacity:0.25"/>
	<stop  offset="0.54" style="stop-color:#808080;stop-opacity:0.12"/>
	<stop  offset="1" style="stop-color:#808080;stop-opacity:0.1"/>
</linearGradient>
<path class="st2" d="M673.12,585.83c0,0-8.4-9.54-31.59-3.79c-11.35-10.82-25.49-26.5-26-37.87c-4.72,1.55-9.33,3.3-13.86,5.22
	c-19.64-21.94-44.81-56.76-43.74-90.28c1.77-54.7-35.79-149.28-35.79-149.28s3.1-38.57-2.71-70.45c-3.94-21.6-12-40.12-27.83-41.53
	c-2.45-0.25-4.92,0.01-7.25,0.79c-29.25,10-11.08,103.37-11.08,103.37l-25.31,78.12l-148.37,79c0,0,89.89,118.05,133.53,122.39
	c0,0,32.15,33.72,55.31,63.32c-8.18,11-12.55,18.28-12.55,18.28l22.42,31.92c-9.21,12.37-22.17,36.57,6.38,47.93
	c39.27,15.62,125.67-55.55,125.67-55.55S705.41,637.92,673.12,585.83z"/>
<linearGradient id="SVGID_2_" gradientUnits="userSpaceOnUse" x1="407.0811" y1="25.44" x2="407.0811" y2="-44.4463" gradientTransform="matrix(1 0 0 1 -147.3 231.83)">
	<stop  offset="0" style="stop-color:#808080;stop-opacity:0.25"/>
	<stop  offset="0.54" style="stop-color:#808080;stop-opacity:0.12"/>
	<stop  offset="1" style="stop-color:#808080;stop-opacity:0.1"/>
</linearGradient>
<path class="st3" d="M272.97,187.83c0,0-59.35-10.42,0,69.44V187.83z"/>
<linearGradient id="SVGID_3_" gradientUnits="userSpaceOnUse" x1="406.7819" y1="78.247" x2="406.7819" y2="30.23" gradientTransform="matrix(1 0 0 1 -147.3 231.83)">
	<stop  offset="0" style="stop-color:#808080;stop-opacity:0.25"/>
	<stop  offset="0.54" style="stop-color:#808080;stop-opacity:0.12"/>
	<stop  offset="1" style="stop-color:#808080;stop-opacity:0.1"/>
</linearGradient>
<path class="st4" d="M259.44,262.06c0,0-21.7,0-21.22,26.82c0.09,9.22,6.03,17.36,14.78,20.27c4.62,1.52,9.65,1.16,14-1
	c12.12-5.88,17.18-20.48,11.3-32.6c-1.05-2.16-2.41-4.15-4.04-5.92C270.34,265.48,265.1,262.81,259.44,262.06z"/>
<linearGradient id="SVGID_4_" gradientUnits="userSpaceOnUse" x1="410.3796" y1="129.4357" x2="410.3796" y2="83.18" gradientTransform="matrix(1 0 0 1 -147.3 231.83)">
	<stop  offset="0" style="stop-color:#808080;stop-opacity:0.25"/>
	<stop  offset="0.54" style="stop-color:#808080;stop-opacity:0.12"/>
	<stop  offset="1" style="stop-color:#808080;stop-opacity:0.1"/>
</linearGradient>
<path class="st5" d="M269.94,316.5c-1.91-0.95-4.01-1.46-6.14-1.49c0,0-20.95,5.21-17.45,30.38c0,0,1.75,18.23,20.07,15.62
	c12.56-1.79,14.05-18.26,13.75-28.44C280.03,325.72,276.08,319.52,269.94,316.5z"/>
<linearGradient id="SVGID_5_" gradientUnits="userSpaceOnUse" x1="409.8714" y1="209.92" x2="409.8714" y2="150.02" gradientTransform="matrix(1 0 0 1 -147.3 231.83)">
	<stop  offset="0" style="stop-color:#808080;stop-opacity:0.25"/>
	<stop  offset="0.54" style="stop-color:#808080;stop-opacity:0.12"/>
	<stop  offset="1" style="stop-color:#808080;stop-opacity:0.1"/>
</linearGradient>
<path class="st6" d="M270.82,383.34c-1.61-0.91-3.41-1.42-5.26-1.49c-2.27,1.43-4.43,3.03-6.46,4.78c-3.41,2.85-6.43,6.14-9,9.77
	c-7.9,11.44-10.47,28.25,19,45.35v-22.58c3.66-3.4,6.74-7.38,9.12-11.77C282.79,398.71,279.48,387.96,270.82,383.34z"/>
<path class="st7" d="M473.35,655.52c0,0,53.77-89.61,136.55-116.92l-4.27,48.65l-68.6,68.28L473.35,655.52z"/>
<path class="st8" d="M473.35,655.52c0,0,53.77-89.61,136.55-116.92l-4.27,48.65l-68.6,68.28L473.35,655.52z"/>
<path class="st9" d="M501.51,679.42c0,0-38.41,39.26,0,54.62s122.9-54.62,122.9-54.62s73.4-48.65,41.82-99.86
	C666.23,579.56,630.39,538.59,501.51,679.42z"/>
<path class="st1" d="M618.44,565.9c0,0-111.81,129.73-110.1,110.93c0.5-5.46-5.8-16.34-15-29c-22.35-30.91-61.82-72.53-61.82-72.53
	c-42.67-4.27-130.58-120.34-130.58-120.34l145.09-77.67l24.75-76.81c0,0-17.76-91.82,10.84-101.65c2.28-0.76,4.7-1.03,7.09-0.78
	c1.05,0.09,2.09,0.27,3.11,0.53c13.39,3.37,20.45,20.34,24,40c0,0.11,0.05,0.23,0.07,0.34c5.68,31.35,2.65,69.27,2.65,69.27
	s36.7,93,35,146.8c-1.14,36,28.31,73.52,47.91,94.39C611.17,559.66,618.44,565.9,618.44,565.9z"/>
<path class="st8" d="M463.96,496.77c0,0,1.71-81.08-12.8-101.56S319.7,460.08,319.7,460.08S440.92,474.58,463.96,496.77z"/>
<path class="st8" d="M501.51,525.83c0,0,52.7-31.16,52-81.3"/>
<path class="st8" d="M473.35,555.66c0,0-14.51,20.48-41.82,19.63"/>
<path class="st8" d="M618.44,565.9c0,0-111.81,129.73-110.1,110.93c0.5-5.46-5.8-16.34-15-29c61.93-21.24,95.55-74.23,108.13-98.47
	C611.17,559.66,618.44,565.9,618.44,565.9z"/>
<path class="st7" d="M648.8,589.55c0,0.25-0.03,0.5-0.08,0.74c-1.72,8.64-3,17.35-4.41,26.06c-0.44,2.77-1.11,5.49-2,8.15
	c-2.45,7.07-6.12,13.67-10.83,19.49c-34,43.08-120.58,65.29-120.58,65.29l-0.32-0.47l-37.23-53.3
	C571.5,636.74,609.9,538.59,609.9,538.59c0.74,16.39,30.09,41.87,37.55,48.09C648.3,587.39,648.79,588.44,648.8,589.55L648.8,589.55
	z"/>
<path class="st10" d="M515.86,238.55c-24.78-3.17-26.79-24.37-24.85-39.71c0.26-0.09,0.54-0.18,0.81-0.25
	C505.21,201.96,512.27,218.93,515.86,238.55z"/>
<path class="st8" d="M648.8,589.55c0,0.25-0.03,0.5-0.08,0.74c-1.72,8.64-3,17.35-4.41,26.06c-0.44,2.77-1.11,5.49-2,8.15
	l-2.11,5.84l-5.12,8.49l-3.6,5.12c-34,43.08-120.58,65.29-120.58,65.29l-0.32-0.47c2.71-1.12,61.06-25.23,84.39-46.9
	c22.14-20.55,49.4-67.47,53.3-74.28C648.62,588.18,648.81,588.86,648.8,589.55z"/>
<path d="M636.7,634.68"/>
<circle class="st11" cx="352.63" cy="75.69" r="1.59"/>
<path class="st11" d="M361.59,74.1h33.03c0.55,0,1,0.45,1,1v1.18c0,0.55-0.45,1-1,1h-33.03c-0.55,0-1-0.45-1-1V75.1
	C360.59,74.55,361.04,74.1,361.59,74.1z"/>
<path class="st1" d="M261.7,261.22c0,0-21.23,0-20.75,26.37c0.08,9.04,5.88,17.04,14.45,19.93c4.51,1.48,9.42,1.12,13.67-1
	c11.89-5.87,16.77-20.26,10.9-32.14C276.44,267.23,269.6,262.3,261.7,261.22z"/>
<path class="st10" d="M261.7,274.83c0,0-19.63,13.66-2.56,25.6C259.13,300.48,257.42,276.58,261.7,274.83z"/>
<path class="st1" d="M265.96,313.28c0,0-20.48,5.12-17.07,29.87c0,0,1.71,17.92,19.63,15.36c12.29-1.76,13.74-18,13.45-28
	c-0.12-6.72-3.98-12.81-10-15.8C270.1,313.79,268.05,313.3,265.96,313.28z"/>
<path class="st10" d="M265.1,324.37c0,0-19.63,7.68,0,29C265.1,353.39,255.7,332.91,265.1,324.37z"/>
<path class="st1" d="M271.08,415.7v22.19c-28.8-16.8-26.29-33.34-18.56-44.58c2.52-3.57,5.48-6.8,8.83-9.6
	c1.99-1.72,4.1-3.29,6.32-4.7c1.81,0.07,3.58,0.58,5.15,1.47c8.46,4.59,11.66,15.14,7.18,23.66
	C277.67,408.45,274.66,412.36,271.08,415.7z"/>
<path class="st10" d="M256.57,404.6c0,0-2.22-5.34-4.05-11.3c2.52-3.57,5.48-6.8,8.83-9.6C266.98,392.96,256.57,404.6,256.57,404.6z
	"/>
<path class="st8" d="M515.6,308.59c0,0-22.19,24.75-29,27.31"/>
<g class="st12">
	
		<linearGradient id="SVGID_6_" gradientUnits="userSpaceOnUse" x1="443.4118" y1="323.5283" x2="614.6063" y2="-80.7108" gradientTransform="matrix(1 -2.443458e-03 2.443458e-03 1 -154.52 188.302)">
		<stop  offset="0" style="stop-color:#808080;stop-opacity:0.25"/>
		<stop  offset="0.54" style="stop-color:#808080;stop-opacity:0.12"/>
		<stop  offset="1" style="stop-color:#808080;stop-opacity:0.1"/>
	</linearGradient>
	<path class="st13" d="M474.33,112.88l-200.05,0.49c-4.54,0.01-8.21,3.7-8.2,8.24l0,0l0.91,374.15c0.01,4.54,3.7,8.21,8.24,8.2
		c0,0,0,0,0.01,0l200.05-0.49c4.54-0.01,8.21-3.7,8.2-8.24l0,0l-0.9-374.15c-0.01-4.54-3.7-8.21-8.24-8.2
		C474.33,112.88,474.33,112.88,474.33,112.88z"/>
</g>
<path class="st14" d="M277.2,118.47L471.44,118c4.53-0.01,8.22,3.65,8.23,8.19L480.56,490c0.01,4.53-3.65,8.22-8.19,8.23
	l-194.24,0.47c-4.53,0.01-8.22-3.65-8.23-8.19l-0.89-363.81C269,122.16,272.66,118.48,277.2,118.47z"/>
<path class="st11" d="M475.23,480.68c0.01,4.42-3.56,8.01-7.98,8.02l-184.11,0.45c-4.42,0.01-8.01-3.56-8.02-7.98l-0.13-54
	l-0.7-291.16c-0.01-4.42,3.56-8.01,7.98-8.02l38.51-0.09c1.28,8.32,8.43,14.46,16.85,14.48l72.75-0.17
	c8.44-0.03,15.6-6.22,16.84-14.57l39.11-0.1c4.42-0.01,8.01,3.56,8.02,7.98l0.75,291.65L475.23,480.68z"/>
<path class="st15" d="M475.23,480.68c0.01,4.42-3.56,8.01-7.98,8.02l-184.11,0.45c-4.42,0.01-8.01-3.56-8.02-7.98l-0.13-54h200.1
	L475.23,480.68z"/>
<path class="st11" d="M350.15,132.67l44.53-0.67c0.66-0.01,1.21,0.52,1.22,1.19l0.01,0.53c0.01,0.66-0.52,1.21-1.19,1.22
	l-44.53,0.67c-0.66,0.01-1.21-0.52-1.22-1.19l-0.01-0.53C348.96,133.23,349.49,132.68,350.15,132.67z"/>
<circle class="st11" cx="405.87" cy="133" r="1.76"/>
<g class="st16">
	<path class="st9" d="M290.93,174.17h25.87c3.49,0,6.32,2.83,6.32,6.32v25.87c0,3.49-2.83,6.32-6.32,6.32h-25.87
		c-3.49,0-6.32-2.83-6.32-6.32v-25.87C284.61,177,287.44,174.17,290.93,174.17z"/>
	<path class="st9" d="M338.46,174.17h25.87c3.49,0,6.32,2.83,6.32,6.32v25.87c0,3.49-2.83,6.32-6.32,6.32h-25.87
		c-3.49,0-6.32-2.83-6.32-6.32v-25.87C332.15,177,334.97,174.17,338.46,174.17z"/>
	<path class="st9" d="M385.99,174.17h25.87c3.49,0,6.32,2.83,6.32,6.32v25.87c0,3.49-2.83,6.32-6.32,6.32h-25.87
		c-3.49,0-6.32-2.83-6.32-6.32v-25.87C379.68,177,382.51,174.17,385.99,174.17z"/>
	<path class="st9" d="M433.53,174.17h25.87c3.49,0,6.32,2.83,6.32,6.32v25.87c0,3.49-2.83,6.32-6.32,6.32h-25.87
		c-3.49,0-6.32-2.83-6.32-6.32v-25.87C427.21,177,430.04,174.17,433.53,174.17z"/>
</g>
<path class="st9" d="M290.73,231.93h25.87c3.49,0,6.32,2.83,6.32,6.32v25.87c0,3.49-2.83,6.32-6.32,6.32h-25.87
	c-3.49,0-6.32-2.83-6.32-6.32v-25.87C284.42,234.76,287.24,231.93,290.73,231.93z"/>
<path class="st17" d="M338.26,231.93h25.87c3.49,0,6.32,2.83,6.32,6.32v25.87c0,3.49-2.83,6.32-6.32,6.32h-25.87
	c-3.49,0-6.32-2.83-6.32-6.32v-25.87C331.95,234.76,334.78,231.93,338.26,231.93z"/>
<path class="st17" d="M385.8,231.93h25.87c3.49,0,6.32,2.83,6.32,6.32v25.87c0,3.49-2.83,6.32-6.32,6.32H385.8
	c-3.49,0-6.32-2.83-6.32-6.32v-25.87C379.48,234.76,382.31,231.93,385.8,231.93z"/>
<path class="st17" d="M433.33,231.93h25.87c3.49,0,6.32,2.83,6.32,6.32v25.87c0,3.49-2.83,6.32-6.32,6.32h-25.87
	c-3.49,0-6.32-2.83-6.32-6.32v-25.87C427.01,234.76,429.84,231.93,433.33,231.93z"/>
<g class="st16">
	<path class="st9" d="M290.53,289.69h25.87c3.49,0,6.32,2.83,6.32,6.32v25.87c0,3.49-2.83,6.32-6.32,6.32h-25.87
		c-3.49,0-6.32-2.83-6.32-6.32v-25.87C284.22,292.52,287.05,289.69,290.53,289.69z"/>
	<path class="st9" d="M338.07,289.69h25.87c3.49,0,6.32,2.83,6.32,6.32v25.87c0,3.49-2.83,6.32-6.32,6.32h-25.87
		c-3.49,0-6.32-2.83-6.32-6.32v-25.87C331.75,292.52,334.58,289.69,338.07,289.69z"/>
	<path class="st9" d="M385.6,289.69h25.87c3.49,0,6.32,2.83,6.32,6.32v25.87c0,3.49-2.83,6.32-6.32,6.32H385.6
		c-3.49,0-6.32-2.83-6.32-6.32v-25.87C379.28,292.52,382.11,289.69,385.6,289.69z"/>
	<path class="st9" d="M433.13,289.69H459c3.49,0,6.32,2.83,6.32,6.32v25.87c0,3.49-2.83,6.32-6.32,6.32h-25.87
		c-3.49,0-6.32-2.83-6.32-6.32v-25.87C426.81,292.52,429.64,289.69,433.13,289.69z"/>
</g>
<g class="st16">
	<path class="st9" d="M290.34,347.45h25.87c3.49,0,6.32,2.83,6.32,6.32v25.87c0,3.49-2.83,6.32-6.32,6.32h-25.87
		c-3.49,0-6.32-2.83-6.32-6.32v-25.87C284.02,350.28,286.85,347.45,290.34,347.45z"/>
	<path class="st9" d="M337.87,347.45h25.87c3.49,0,6.32,2.83,6.32,6.32v25.87c0,3.49-2.83,6.32-6.32,6.32h-25.87
		c-3.49,0-6.32-2.83-6.32-6.32v-25.87C331.56,350.28,334.38,347.45,337.87,347.45z"/>
	<path class="st9" d="M385.41,347.45h25.87c3.49,0,6.32,2.83,6.32,6.32v25.87c0,3.49-2.83,6.32-6.32,6.32h-25.87
		c-3.49,0-6.32-2.83-6.32-6.32v-25.87C379.09,350.28,381.92,347.45,385.41,347.45z"/>
	<path class="st9" d="M432.94,347.45h25.87c3.49,0,6.32,2.83,6.32,6.32v25.87c0,3.49-2.83,6.32-6.32,6.32h-25.87
		c-3.49,0-6.32-2.83-6.32-6.32v-25.87C426.62,350.28,429.45,347.45,432.94,347.45z"/>
</g>
<g class="st16">
	<path class="st9" d="M290.94,439.2h25.87c3.49,0,6.32,2.83,6.32,6.32v25.87c0,3.49-2.83,6.32-6.32,6.32h-25.87
		c-3.49,0-6.32-2.83-6.32-6.32v-25.87C284.63,442.03,287.45,439.2,290.94,439.2z"/>
	<path class="st9" d="M338.47,439.2h25.87c3.49,0,6.32,2.83,6.32,6.32v25.87c0,3.49-2.83,6.32-6.32,6.32h-25.87
		c-3.49,0-6.32-2.83-6.32-6.32v-25.87C332.16,442.03,334.99,439.2,338.47,439.2z"/>
	<path class="st9" d="M386.01,439.2h25.87c3.49,0,6.32,2.83,6.32,6.32v25.87c0,3.49-2.83,6.32-6.32,6.32h-25.87
		c-3.49,0-6.32-2.83-6.32-6.32v-25.87C379.69,442.03,382.52,439.2,386.01,439.2z"/>
	<path class="st9" d="M433.54,439.2h25.87c3.49,0,6.32,2.83,6.32,6.32v25.87c0,3.49-2.83,6.32-6.32,6.32h-25.87
		c-3.49,0-6.32-2.83-6.32-6.32v-25.87C427.22,442.03,430.05,439.2,433.54,439.2z"/>
</g>
<g class="st18">
	<path d="M290.94,439.2h25.87c3.49,0,6.32,2.83,6.32,6.32v25.87c0,3.49-2.83,6.32-6.32,6.32h-25.87c-3.49,0-6.32-2.83-6.32-6.32
		v-25.87C284.63,442.03,287.45,439.2,290.94,439.2z"/>
	<path d="M338.47,439.2h25.87c3.49,0,6.32,2.83,6.32,6.32v25.87c0,3.49-2.83,6.32-6.32,6.32h-25.87c-3.49,0-6.32-2.83-6.32-6.32
		v-25.87C332.16,442.03,334.99,439.2,338.47,439.2z"/>
	<path d="M386.01,439.2h25.87c3.49,0,6.32,2.83,6.32,6.32v25.87c0,3.49-2.83,6.32-6.32,6.32h-25.87c-3.49,0-6.32-2.83-6.32-6.32
		v-25.87C379.69,442.03,382.52,439.2,386.01,439.2z"/>
	<path d="M433.54,439.2h25.87c3.49,0,6.32,2.83,6.32,6.32v25.87c0,3.49-2.83,6.32-6.32,6.32h-25.87c-3.49,0-6.32-2.83-6.32-6.32
		v-25.87C427.22,442.03,430.05,439.2,433.54,439.2z"/>
</g>
</svg>
