<?xml version="1.0" encoding="utf-8"?>
<!-- Generator: Adobe Illustrator 23.0.1, SVG Export Plug-In . SVG Version: 6.00 Build 0)  -->
<svg version="1.1" id="Layer_1" xmlns="http://www.w3.org/2000/svg" xmlns:xlink="http://www.w3.org/1999/xlink" x="0px" y="0px"
	 viewBox="0 0 230.55 236.27" style="enable-background:new 0 0 230.55 236.27;" xml:space="preserve">
<style type="text/css">
	.st0{fill:#5BBFA9;}
	.st1{fill:#44BB8A;}
	.st2{fill:#FFFFFF;}
	.st3{fill:#F47C2D;}
</style>
<path class="st0" d="M171.6,13.95H58.57c-26.33,0-47.67,21.35-47.67,47.67v113.04c0,26.32,21.34,47.67,47.67,47.67H171.6
	c26.33,0,47.67-21.35,47.67-47.67V61.61C219.27,35.29,197.93,13.95,171.6,13.95z M77.73,151.24c-0.77,0.41-5.07,3.56-12.76,2.77
	c-7.69-0.79-12.43-4.94-13.56-6.77c-1.12-1.83-2.15-3.12-2.34-10.65c-0.19-7.53-0.42-21.69-0.42-21.69l-7.77,0.09
	c0,0-1.86,0.4-1.82-1.85l0.03-9.2l9.42-0.08l0.01-19.39h13.06v19.34h14.46v11H61.69l0.14,22.77c0,0,0.57,5.91,6.58,4.91
	c0,0,2.77-0.6,5.3-1.88c0,0,0.83-0.28,1.14,0.64c0.31,0.92,3.22,9.3,3.22,9.3S78.5,150.83,77.73,151.24z M182.72,153.6
	c-1.67,8.17-6.93,7.74-6.93,7.74s-60.82,0.37-68.21-0.1c-7.39-0.46-6.56-8.55-6.56-8.55l0.09-12.49c0.04-3.28-1.97-4.57-1.97-4.57
	l-16.22-17.59c0,0,14.17-14.81,16.51-17.23c2.35-2.41,1.72-4.16,1.72-4.16l-0.07-14.92c1.61-5.84,8.4-6.97,8.4-6.97l66.27,0.3
	c6.66,1.8,6.97,7.91,6.97,7.91L182.72,153.6z M169.22,86.21l-54.8-0.02c0,0-2.03-0.39-2.01,2.16l0.07,12.71c0,0,0.39,3.34-2.86,5.5
	L98.6,118.05l11.94,12.41c0,0,2.12,2.14,1.99,5.94l-0.09,13.48h58.62l0.27-61.86C171.33,88.02,171.86,86.21,169.22,86.21z"/>
</svg>
