<?xml version="1.0" encoding="utf-8"?>
<!-- Generator: Adobe Illustrator 23.0.1, SVG Export Plug-In . SVG Version: 6.00 Build 0)  -->
<svg version="1.1" id="Layer_1" xmlns="http://www.w3.org/2000/svg" xmlns:xlink="http://www.w3.org/1999/xlink" x="0px" y="0px"
	 viewBox="0 0 902 734" style="enable-background:new 0 0 902 734;" xml:space="preserve">
<style type="text/css">
	.st0{fill:url(#SVGID_1_);}
	.st1{fill:url(#SVGID_2_);}
	.st2{fill:url(#SVGID_3_);}
	.st3{fill:url(#SVGID_4_);}
	.st4{fill:url(#SVGID_5_);}
	.st5{fill:url(#SVGID_6_);}
	.st6{fill:url(#SVGID_7_);}
	.st7{fill:url(#SVGID_8_);}
	.st8{fill:url(#SVGID_9_);}
	.st9{fill:url(#SVGID_10_);}
	.st10{fill:url(#SVGID_11_);}
	.st11{fill:url(#SVGID_12_);}
	.st12{fill:url(#SVGID_13_);}
	.st13{fill:url(#SVGID_14_);}
	.st14{fill:url(#SVGID_15_);}
	.st15{fill:url(#SVGID_16_);}
	.st16{fill:#FFFFFF;}
	.st17{fill:#0255A4;}
	.st18{fill:#BDBDBD;}
	.st19{fill:#E0E0E0;}
	.st20{fill:#64FFDA;}
</style>
<title>Posts</title>
<linearGradient id="SVGID_1_" gradientUnits="userSpaceOnUse" x1="451" y1="593.14" x2="451" y2="720" gradientTransform="matrix(1 0 0 -1 0 732)">
	<stop  offset="0" style="stop-color:#808080;stop-opacity:0.25"/>
	<stop  offset="0.54" style="stop-color:#808080;stop-opacity:0.12"/>
	<stop  offset="1" style="stop-color:#808080;stop-opacity:0.1"/>
</linearGradient>
<path class="st0" d="M29.52,12h842.96C882.71,12,891,20.29,891,30.52v89.82c0,10.23-8.29,18.52-18.52,18.52H29.52
	c-10.23,0-18.52-8.29-18.52-18.52V30.52C11,20.29,19.29,12,29.52,12z"/>
<linearGradient id="SVGID_2_" gradientUnits="userSpaceOnUse" x1="98.3" y1="610.62" x2="98.3" y2="699.94" gradientTransform="matrix(1 0 0 -1 0 732)">
	<stop  offset="0" style="stop-color:#B3B3B3;stop-opacity:0.25"/>
	<stop  offset="0.54" style="stop-color:#B3B3B3;stop-opacity:0.1"/>
	<stop  offset="1" style="stop-color:#B3B3B3;stop-opacity:0.05"/>
</linearGradient>
<path class="st1" d="M60.67,32.06h75.26c4.61,0,8.35,3.74,8.35,8.35v72.62c0,4.61-3.74,8.35-8.35,8.35H60.67
	c-4.61,0-8.35-3.74-8.35-8.35V40.41C52.32,35.8,56.06,32.06,60.67,32.06z"/>
<linearGradient id="SVGID_3_" gradientUnits="userSpaceOnUse" x1="266.505" y1="677.93" x2="266.505" y2="689.58" gradientTransform="matrix(1 0 0 -1 0 732)">
	<stop  offset="0" style="stop-color:#B3B3B3;stop-opacity:0.25"/>
	<stop  offset="0.54" style="stop-color:#B3B3B3;stop-opacity:0.1"/>
	<stop  offset="1" style="stop-color:#B3B3B3;stop-opacity:0.05"/>
</linearGradient>
<rect x="178.04" y="42.42" class="st2" width="176.93" height="11.65"/>
<linearGradient id="SVGID_4_" gradientUnits="userSpaceOnUse" x1="303.17" y1="650.75" x2="303.17" y2="662.4" gradientTransform="matrix(1 0 0 -1 0 732)">
	<stop  offset="0" style="stop-color:#B3B3B3;stop-opacity:0.25"/>
	<stop  offset="0.54" style="stop-color:#B3B3B3;stop-opacity:0.1"/>
	<stop  offset="1" style="stop-color:#B3B3B3;stop-opacity:0.05"/>
</linearGradient>
<rect x="178.04" y="69.6" class="st3" width="250.26" height="11.65"/>
<linearGradient id="SVGID_5_" gradientUnits="userSpaceOnUse" x1="451" y1="398.85" x2="451" y2="525.71" gradientTransform="matrix(1 0 0 -1 0 732)">
	<stop  offset="0" style="stop-color:#808080;stop-opacity:0.25"/>
	<stop  offset="0.54" style="stop-color:#808080;stop-opacity:0.12"/>
	<stop  offset="1" style="stop-color:#808080;stop-opacity:0.1"/>
</linearGradient>
<path class="st4" d="M29.52,206.29h842.96c10.23,0,18.52,8.29,18.52,18.52v89.82c0,10.23-8.29,18.52-18.52,18.52H29.52
	c-10.23,0-18.52-8.29-18.52-18.52v-89.82C11,214.58,19.29,206.29,29.52,206.29z"/>
<linearGradient id="SVGID_6_" gradientUnits="userSpaceOnUse" x1="98.3" y1="416.33" x2="98.3" y2="505.65" gradientTransform="matrix(1 0 0 -1 0 732)">
	<stop  offset="0" style="stop-color:#B3B3B3;stop-opacity:0.25"/>
	<stop  offset="0.54" style="stop-color:#B3B3B3;stop-opacity:0.1"/>
	<stop  offset="1" style="stop-color:#B3B3B3;stop-opacity:0.05"/>
</linearGradient>
<path class="st5" d="M60.67,226.35h75.26c4.61,0,8.35,3.74,8.35,8.35v72.62c0,4.61-3.74,8.35-8.35,8.35H60.67
	c-4.61,0-8.35-3.74-8.35-8.35V234.7C52.32,230.09,56.06,226.35,60.67,226.35z"/>
<linearGradient id="SVGID_7_" gradientUnits="userSpaceOnUse" x1="266.505" y1="483.64" x2="266.505" y2="495.29" gradientTransform="matrix(1 0 0 -1 0 732)">
	<stop  offset="0" style="stop-color:#B3B3B3;stop-opacity:0.25"/>
	<stop  offset="0.54" style="stop-color:#B3B3B3;stop-opacity:0.1"/>
	<stop  offset="1" style="stop-color:#B3B3B3;stop-opacity:0.05"/>
</linearGradient>
<rect x="178.04" y="236.71" class="st6" width="176.93" height="11.65"/>
<linearGradient id="SVGID_8_" gradientUnits="userSpaceOnUse" x1="303.17" y1="456.46" x2="303.17" y2="468.11" gradientTransform="matrix(1 0 0 -1 0 732)">
	<stop  offset="0" style="stop-color:#B3B3B3;stop-opacity:0.25"/>
	<stop  offset="0.54" style="stop-color:#B3B3B3;stop-opacity:0.1"/>
	<stop  offset="1" style="stop-color:#B3B3B3;stop-opacity:0.05"/>
</linearGradient>
<rect x="178.04" y="263.89" class="st7" width="250.26" height="11.65"/>
<linearGradient id="SVGID_9_" gradientUnits="userSpaceOnUse" x1="451" y1="205.71" x2="451" y2="332.57" gradientTransform="matrix(1 0 0 -1 0 732)">
	<stop  offset="0" style="stop-color:#808080;stop-opacity:0.25"/>
	<stop  offset="0.54" style="stop-color:#808080;stop-opacity:0.12"/>
	<stop  offset="1" style="stop-color:#808080;stop-opacity:0.1"/>
</linearGradient>
<path class="st8" d="M29.52,399.43h842.96c10.23,0,18.52,8.29,18.52,18.52v89.82c0,10.23-8.29,18.52-18.52,18.52H29.52
	C19.29,526.29,11,518,11,507.77v-89.82C11,407.72,19.29,399.43,29.52,399.43z"/>
<linearGradient id="SVGID_10_" gradientUnits="userSpaceOnUse" x1="98.3" y1="223.19" x2="98.3" y2="312.51" gradientTransform="matrix(1 0 0 -1 0 732)">
	<stop  offset="0" style="stop-color:#B3B3B3;stop-opacity:0.25"/>
	<stop  offset="0.54" style="stop-color:#B3B3B3;stop-opacity:0.1"/>
	<stop  offset="1" style="stop-color:#B3B3B3;stop-opacity:0.05"/>
</linearGradient>
<path class="st9" d="M60.67,419.49h75.26c4.61,0,8.35,3.74,8.35,8.35v72.62c0,4.61-3.74,8.35-8.35,8.35H60.67
	c-4.61,0-8.35-3.74-8.35-8.35v-72.62C52.32,423.23,56.06,419.49,60.67,419.49z"/>
<linearGradient id="SVGID_11_" gradientUnits="userSpaceOnUse" x1="266.505" y1="290.5" x2="266.505" y2="302.15" gradientTransform="matrix(1 0 0 -1 0 732)">
	<stop  offset="0" style="stop-color:#B3B3B3;stop-opacity:0.25"/>
	<stop  offset="0.54" style="stop-color:#B3B3B3;stop-opacity:0.1"/>
	<stop  offset="1" style="stop-color:#B3B3B3;stop-opacity:0.05"/>
</linearGradient>
<rect x="178.04" y="429.85" class="st10" width="176.93" height="11.65"/>
<linearGradient id="SVGID_12_" gradientUnits="userSpaceOnUse" x1="303.17" y1="263.32" x2="303.17" y2="274.97" gradientTransform="matrix(1 0 0 -1 0 732)">
	<stop  offset="0" style="stop-color:#B3B3B3;stop-opacity:0.25"/>
	<stop  offset="0.54" style="stop-color:#B3B3B3;stop-opacity:0.1"/>
	<stop  offset="1" style="stop-color:#B3B3B3;stop-opacity:0.05"/>
</linearGradient>
<rect x="178.04" y="457.03" class="st11" width="250.26" height="11.65"/>
<linearGradient id="SVGID_13_" gradientUnits="userSpaceOnUse" x1="451" y1="11.43" x2="451" y2="138.29" gradientTransform="matrix(1 0 0 -1 0 732)">
	<stop  offset="0" style="stop-color:#808080;stop-opacity:0.25"/>
	<stop  offset="0.54" style="stop-color:#808080;stop-opacity:0.12"/>
	<stop  offset="1" style="stop-color:#808080;stop-opacity:0.1"/>
</linearGradient>
<path class="st12" d="M29.52,593.71h842.96c10.23,0,18.52,8.29,18.52,18.52v89.82c0,10.23-8.29,18.52-18.52,18.52H29.52
	c-10.23,0-18.52-8.29-18.52-18.52v-89.82C11,602,19.29,593.71,29.52,593.71z"/>
<linearGradient id="SVGID_14_" gradientUnits="userSpaceOnUse" x1="98.3" y1="28.9" x2="98.3" y2="118.22" gradientTransform="matrix(1 0 0 -1 0 732)">
	<stop  offset="0" style="stop-color:#B3B3B3;stop-opacity:0.25"/>
	<stop  offset="0.54" style="stop-color:#B3B3B3;stop-opacity:0.1"/>
	<stop  offset="1" style="stop-color:#B3B3B3;stop-opacity:0.05"/>
</linearGradient>
<path class="st13" d="M60.67,613.78h75.26c4.61,0,8.35,3.74,8.35,8.35v72.62c0,4.61-3.74,8.35-8.35,8.35H60.67
	c-4.61,0-8.35-3.74-8.35-8.35v-72.62C52.32,617.52,56.06,613.78,60.67,613.78z"/>
<linearGradient id="SVGID_15_" gradientUnits="userSpaceOnUse" x1="266.505" y1="96.22" x2="266.505" y2="107.87" gradientTransform="matrix(1 0 0 -1 0 732)">
	<stop  offset="0" style="stop-color:#B3B3B3;stop-opacity:0.25"/>
	<stop  offset="0.54" style="stop-color:#B3B3B3;stop-opacity:0.1"/>
	<stop  offset="1" style="stop-color:#B3B3B3;stop-opacity:0.05"/>
</linearGradient>
<rect x="178.04" y="624.13" class="st14" width="176.93" height="11.65"/>
<linearGradient id="SVGID_16_" gradientUnits="userSpaceOnUse" x1="303.17" y1="69.03" x2="303.17" y2="80.68" gradientTransform="matrix(1 0 0 -1 0 732)">
	<stop  offset="0" style="stop-color:#B3B3B3;stop-opacity:0.25"/>
	<stop  offset="0.54" style="stop-color:#B3B3B3;stop-opacity:0.1"/>
	<stop  offset="1" style="stop-color:#B3B3B3;stop-opacity:0.05"/>
</linearGradient>
<rect x="178.04" y="651.32" class="st15" width="250.26" height="11.65"/>
<path class="st16" d="M37.52,16.57h826.96c10.23,0,18.52,8.29,18.52,18.52v74.96c0,10.23-8.29,18.52-18.52,18.52H37.52
	c-10.23,0-18.52-8.29-18.52-18.52V35.09C19,24.86,27.29,16.57,37.52,16.57z"/>
<path class="st17" d="M67.92,34.29h73.59c4.61,0,8.35,3.74,8.35,8.35v62.16c0,4.61-3.74,8.35-8.35,8.35H67.92
	c-4.61,0-8.35-3.74-8.35-8.35V42.64C59.57,38.03,63.31,34.29,67.92,34.29z"/>
<rect x="183" y="43.43" class="st18" width="173.71" height="10.29"/>
<rect x="183" y="67.43" class="st19" width="245.71" height="10.29"/>
<path class="st16" d="M37.52,210.86h826.96c10.23,0,18.52,8.29,18.52,18.52v74.96c0,10.23-8.29,18.52-18.52,18.52H37.52
	c-10.23,0-18.52-8.29-18.52-18.52v-74.96C19,219.15,27.29,210.86,37.52,210.86z"/>
<path class="st17" d="M67.92,228.57h73.59c4.61,0,8.35,3.74,8.35,8.35v62.16c0,4.61-3.74,8.35-8.35,8.35H67.92
	c-4.61,0-8.35-3.74-8.35-8.35v-62.16C59.57,232.31,63.31,228.57,67.92,228.57z"/>
<rect x="183" y="237.71" class="st18" width="173.71" height="10.29"/>
<rect x="183" y="261.71" class="st20" width="245.71" height="10.29"/>
<path class="st16" d="M37.52,405.14h826.96c10.23,0,18.52,8.29,18.52,18.52v74.96c0,10.23-8.29,18.52-18.52,18.52H37.52
	c-10.23,0-18.52-8.29-18.52-18.52v-74.96C19,413.43,27.29,405.14,37.52,405.14z"/>
<path class="st17" d="M67.92,422.86h73.59c4.61,0,8.35,3.74,8.35,8.35v62.16c0,4.61-3.74,8.35-8.35,8.35H67.92
	c-4.61,0-8.35-3.74-8.35-8.35v-62.16C59.57,426.6,63.31,422.86,67.92,422.86z"/>
<rect x="183" y="432" class="st18" width="173.71" height="10.29"/>
<rect x="183" y="456" class="st19" width="245.71" height="10.29"/>
<path class="st16" d="M37.52,599.43h826.96c10.23,0,18.52,8.29,18.52,18.52v74.96c0,10.23-8.29,18.52-18.52,18.52H37.52
	c-10.23,0-18.52-8.29-18.52-18.52v-74.96C19,607.72,27.29,599.43,37.52,599.43z"/>
<path class="st17" d="M67.92,617.14h73.59c4.61,0,8.35,3.74,8.35,8.35v62.16c0,4.61-3.74,8.35-8.35,8.35H67.92
	c-4.61,0-8.35-3.74-8.35-8.35v-62.16C59.57,620.88,63.31,617.14,67.92,617.14z"/>
<rect x="183" y="626.29" class="st18" width="173.71" height="10.29"/>
<rect x="183" y="650.29" class="st20" width="245.71" height="10.29"/>
</svg>
