<?xml version="1.0" encoding="utf-8"?>
<!-- Generator: Adobe Illustrator 23.0.1, SVG Export Plug-In . SVG Version: 6.00 Build 0)  -->
<svg version="1.1" id="Layer_1" xmlns="http://www.w3.org/2000/svg" xmlns:xlink="http://www.w3.org/1999/xlink" x="0px" y="0px"
	 viewBox="0 0 761.18 527.98" style="enable-background:new 0 0 761.18 527.98;" xml:space="preserve">
<style type="text/css">
	.st0{fill:url(#SVGID_1_);}
	.st1{fill:#FFFFFF;}
	.st2{fill:#EEEEEE;}
	.st3{fill:#FF5252;}
	.st4{fill:#FFFF00;}
	.st5{fill:#69F0AE;}
	.st6{opacity:0.5;fill:#0255A4;enable-background:new    ;}
	.st7{fill:#0255A4;}
	.st8{opacity:0.1;}
	.st9{fill:#F4F4F4;}
	.st10{fill:url(#SVGID_2_);}
	.st11{fill:#72351C;}
	.st12{fill:#333333;}
	.st13{fill:#4D8AF0;}
	.st14{fill:#F55F44;}
	.st15{opacity:0.1;enable-background:new    ;}
	.st16{fill:#FDB797;}
	.st17{fill:#F0E4E4;}
</style>
<title>website setup</title>
<linearGradient id="SVGID_1_" gradientUnits="userSpaceOnUse" x1="380.4013" y1="404.0434" x2="380.4013" y2="-91.1566" gradientTransform="matrix(1 0 0 1 0 110)">
	<stop  offset="0" style="stop-color:#808080;stop-opacity:0.25"/>
	<stop  offset="0.54" style="stop-color:#808080;stop-opacity:0.12"/>
	<stop  offset="1" style="stop-color:#808080;stop-opacity:0.1"/>
</linearGradient>
<polygon class="st0" points="16.94,18.84 16.94,43.83 16.94,514.04 743.87,514.04 743.87,43.83 743.87,18.84 "/>
<rect x="27.72" y="41.31" class="st1" width="708.45" height="463.77"/>
<rect x="27.72" y="19.25" class="st2" width="708.45" height="34.12"/>
<circle class="st3" cx="54.68" cy="35.79" r="8.27"/>
<circle class="st4" cx="77.43" cy="35.79" r="8.27"/>
<circle class="st5" cx="100.18" cy="35.79" r="8.27"/>
<rect x="54.87" y="108.02" class="st6" width="264" height="11"/>
<rect x="54.87" y="130.02" class="st6" width="264" height="11"/>
<rect x="54.87" y="152.02" class="st6" width="264" height="11"/>
<rect x="145.87" y="174.02" class="st6" width="173" height="11"/>
<rect x="54.87" y="196.02" class="st6" width="139" height="11"/>
<rect x="129.87" y="218.02" class="st6" width="107" height="11"/>
<rect x="353.87" y="185.02" class="st6" width="311" height="179"/>
<rect x="390.87" y="202.02" class="st2" width="311" height="179"/>
<path class="st7" d="M564.87,381.02h-174v-32.79C433.38,328.36,498.79,317.2,564.87,381.02z"/>
<g class="st8">
	<path d="M699.87,376.33v4.69h-217v-1C482.87,380.02,589.65,276.05,699.87,376.33z"/>
</g>
<path class="st7" d="M701.87,376.33v4.69h-217v-1C484.87,380.02,591.65,276.05,701.87,376.33z"/>
<circle class="st7" cx="426.87" cy="234.02" r="16"/>
<path class="st9" d="M563.09,221.92c-1.83,0-3.87,0-5.26,0.11c-0.62,0.03-1.23,0.16-1.82,0.37l-9.41,3.38
	c7.6,0.19,15.53,0.13,23.32,0.07l43.68-0.34c4.46,0,9.14-0.08,12.85-0.34c2.49-0.18,4.32-0.44,6.62-0.64
	c8.27-0.74,20.32-0.6,31.09-0.56s23.77-0.24,27.56-1.32H668.6c-2.49,0-5.11,0-7.31-0.12c-2.57-0.15-4.14-0.43-6.4-0.63
	c-3.74-0.32-8.9-0.36-13.7-0.38C614.84,221.41,588.82,222.03,563.09,221.92z"/>
<path class="st9" d="M588.97,241.3c-0.4,0-0.84,0-1.14,0c-0.14,0.01-0.27,0.03-0.4,0.08l-2,0.73c1.65,0,3.36,0,5.05,0l9.46-0.07
	c1,0,2,0,2.78-0.07c0.54,0,0.94-0.1,1.43-0.14c1.79-0.16,4.4-0.13,6.74-0.12c2,0.07,4.01-0.03,6-0.29h-5c-0.54,0-1.11,0-1.58,0
	s-0.9-0.09-1.39-0.14c-0.81-0.07-1.93-0.08-3-0.08C600.22,241.2,594.58,241.33,588.97,241.3z"/>
<path class="st9" d="M521.97,269.3c-0.4,0-0.84,0-1.14,0c-0.14,0.01-0.27,0.03-0.4,0.08l-2,0.73c1.65,0,3.36,0,5.05,0l9.46-0.07
	c1,0,2,0,2.78-0.07c0.54,0,0.94-0.1,1.43-0.14c1.79-0.16,4.4-0.13,6.74-0.12c2,0.07,4.01-0.03,6-0.29h-5c-0.54,0-1.11,0-1.58,0
	s-0.9-0.09-1.39-0.14c-0.81-0.07-1.93-0.08-3-0.08C533.22,269.2,527.58,269.33,521.97,269.3z"/>
<path class="st7" d="M484.38,372.15h-7.52c0,0-2.35-82.24,7.52-107.62h1.88C486.26,264.53,479.68,357.58,484.38,372.15z"/>
<path class="st7" d="M479.21,260.3c0,0-6.11,16.92-3.29,24.44c0,0,4.23-15.51,9.16-17.86s10.1,17.86,10.1,17.86s2.82-12.69-2.35-23
	c0,0,10.34,5.64,15.51,16.45c0,0,0.94-7-11.28-21.62c0,0,10.81,2.82,17.86,9.4c0,0,2.35-5.17-12.22-13.63c0,0,1.88-6.11,13.16-3.29
	c0,0,0-8-17.86-6.58c0,0,0-5.17,11.75-4.23c0,0,0-6.58-13.63-4.23c0,0,2.82-4.23,4.7-5.17c-2.35-0.22-4.7,0.45-6.58,1.88
	c0,0,0.47-8.46-6.58-11.75l-0.94,11.75c0,0-7.9-9.31-6.11-7.52c0.47,0.47,1.88,6.11,1.41,8.93c0,0-8-6.58-17.86,0.47
	c0,0,12.22,0.94,14.1,5.17c0,0-10.34-1.88-12.69-0.47c0,0,8,2.82,7.52,4.7c0,0-14.1,0-16,5.17c0,0,14.57,1.88,15.51,3.29
	c0,0-16.92,12.22-17.86,15.51c0,0,17.39-10.34,20.21-10.34s-12.69,15-11.75,18.8C463.24,274.4,475.97,259.36,479.21,260.3z"/>
<path class="st7" d="M577.13,369.07h5.74c0,0,1.8-62.83-5.74-82.22h-1.44C575.69,286.85,580.73,357.92,577.13,369.07z"/>
<path class="st7" d="M581.08,283.62c0,0,4.67,12.93,2.51,18.67c0,0-3.23-11.85-7-13.64s-7.72,13.64-7.72,13.64s-2.15-9.69,1.8-17.59
	c-5.05,2.99-9.16,7.35-11.85,12.57c0,0-0.72-5.39,8.62-16.52c0,0-8.26,2.15-13.64,7.18c0,0-1.8-3.95,9.34-10.41
	c0,0-1.44-4.67-10.05-2.51c0,0,0-6.1,13.64-5c0,0,0-3.95-9-3.23c0,0,0-5,10.41-3.23c0,0-2.15-3.23-3.59-3.95
	c1.79-0.16,3.57,0.36,5,1.44c0,0-0.36-6.46,5-9l0.72,9c0,0,6-7.11,4.67-5.74c-0.86,2.17-1.23,4.49-1.08,6.82c0,0,6.1-5,13.64,0.36
	c0,0-9.34,0.72-10.77,3.95c0,0,7.9-1.44,9.69-0.36c0,0-6.1,2.15-5.74,3.59c0,0,10.77,0,12.21,3.95c0,0-11.13,1.44-11.85,2.51
	c0,0,12.93,9.34,13.64,11.85c0,0-13.28-7.9-15.44-7.9s9.69,11.49,9,14.36C593.29,294.39,583.6,282.92,581.08,283.62z"/>
<path class="st7" d="M645.86,356.79h3.56c0,0,1.11-38.91-3.56-50.92h-0.89C644.97,305.87,648.08,349.92,645.86,356.79z"/>
<path class="st7" d="M648.31,303.87c0,0,2.89,8,1.56,11.56c0,0-2-7.34-4.34-8.45s-4.78,8.45-4.78,8.45s-1.33-6,1.11-10.9
	c-3.13,1.85-5.67,4.55-7.34,7.78c0,0-0.44-3.34,5.34-10.23c-3.1,0.86-5.98,2.38-8.45,4.45c0,0-1.11-2.45,5.78-6.45
	c0,0-0.89-2.89-6.23-1.56c0,0,0-3.78,8.45-3.11c0,0,0-2.45-5.56-2c0,0,0-3.11,6.45-2c-0.6-0.94-1.35-1.77-2.22-2.45
	c1.11-0.1,2.22,0.22,3.11,0.89c0,0-0.22-4,3.11-5.56l0.44,5.56c0,0,3.74-4.4,2.89-3.56c-0.53,1.34-0.76,2.78-0.67,4.22
	c2.54-1.85,6.01-1.76,8.45,0.22c0,0-5.78,0.44-6.67,2.45c0,0,4.89-0.89,6-0.22c0,0-3.78,1.33-3.56,2.22c0,0,6.67,0,7.56,2.45
	c0,0-6.89,0.89-7.34,1.56c0,0,8,5.78,8.45,7.34c0,0-8.23-4.89-9.56-4.89s6,7.12,5.56,8.89
	C655.87,310.54,649.86,303.42,648.31,303.87z"/>
<linearGradient id="SVGID_2_" gradientUnits="userSpaceOnUse" x1="629.7883" y1="386.3868" x2="629.7883" y2="331.0468" gradientTransform="matrix(1 0 0 1 -124.06 -34.92)">
	<stop  offset="0" style="stop-color:#808080;stop-opacity:0.25"/>
	<stop  offset="0.54" style="stop-color:#808080;stop-opacity:0.12"/>
	<stop  offset="1" style="stop-color:#808080;stop-opacity:0.1"/>
</linearGradient>
<path class="st10" d="M515.86,312.79L515.86,312.79l-0.75-4c0-0.59-0.25-1.16-0.68-1.57l-3.47-1.7l0,0c-0.26-0.3-0.46-0.64-0.62-1
	l0.06-0.09c0.19-0.24,0.33-0.51,0.4-0.81c0.01-0.08,0.01-0.15,0-0.23h0.05c0.66,0.09,1.29-0.35,1.43-1v-0.09
	c-0.13,0.55-0.6,0.96-1.17,1c0.98-0.66,1.57-1.76,1.57-2.94c0,0,0-0.1,0-0.15c0.31-0.19,0.52-0.5,0.59-0.86v-0.09
	c-0.09,0.34-0.31,0.63-0.61,0.8c-0.02-0.34-0.1-0.68-0.22-1h0.09c0.71,0,1.29-0.58,1.29-1.29c0,0,0-0.06,0-0.09
	c-0.05,0.67-0.61,1.2-1.28,1.2h-0.16v-0.06c0.78-0.24,1.36-0.9,1.48-1.71c0,0,0-0.06,0-0.09c-0.02,0.25-0.11,0.49-0.26,0.69
	c0.04-0.71-0.51-1.32-1.22-1.36c-0.62-0.03-1.17,0.38-1.32,0.98l-0.23-0.13c0.15-0.53,0.61-0.9,1.16-0.94h-0.09
	c-0.55,0-1.05,0.35-1.23,0.87c-1.6-0.74-3.5-0.2-4.46,1.28c-0.27,0.2-0.62,0.49-0.61,0.74c-0.12,0.12-0.22,0.24-0.31,0.38
	c-0.38,0.83-0.52,1.76-0.4,2.67c0.11,0.92-0.23,1.83-0.92,2.45c0.3,0.13,0.64,0.13,0.94,0s0.58-0.29,0.83-0.49
	c0.24-0.14,0.44-0.34,0.59-0.57v-0.05c0.17,0.11,0.34,0.21,0.53,0.28c0.07,0.6,0.09,1.29-0.18,1.52l0,0l0,0l0.05-0.11
	c-0.64,0.49-1.45,0.71-2.25,0.64c-0.99,0.06-1.87,0.63-2.33,1.5l-1.09,4.55l0,0V312l0,0v0.08l0,0c0.03,0.13,0.13,0.22,0.26,0.25
	l0.34,0.09c0.05,0.78-0.03,1.56-0.23,2.31c-0.23,1.12-0.36,2.26-0.39,3.4c0.08,0.57,0.22,3.54,0.29,4.95
	c-0.12,0.48-0.22,0.97-0.29,1.46l-1.61,9.66c0,0-1.2,7.73-1.14,10.07l-0.21,1.35c0,0-3.27,4.1-2.31,4.68s2.44,0.83,3.85-1.35
	c0.19-0.51,0.5-0.98,0.9-1.35c0.32-0.28,0.49-0.7,0.45-1.13l-0.1-1l0.17,0.06l0,0h0.1c0,0,1.61-5.29,1.43-9c0,0,3-10.62,5.25-12.29
	v-0.07l0.21-0.1l0.48,10.29l-0.49,11.34l-0.11,0.68c0,0-3.27,4.1-2.31,4.68s2.44,0.83,3.85-1.35c0.19-0.51,0.5-0.98,0.9-1.35
	c0.32-0.28,0.49-0.7,0.45-1.13l-0.15-1.5c0.56-1.91,2-7.41,1.41-10.6l1-6.78c1-1.13,0.87-4,0.87-4c0.79-1.65,1-8.12,1-8.12l0.2-3.2
	c0.15-0.01,0.3-0.01,0.45,0h0.1h0.06v-0.06c0.03-0.03,0.05-0.06,0.07-0.09h0.06v-0.08l0,0L515.86,312.79z M513.06,319.29
	c-0.09-0.22-0.19-0.44-0.3-0.66h-0.08v-0.08c0-0.03,0-0.05,0-0.08v-0.08c0.05-0.11,0.09-0.22,0.12-0.33
	c0.13-0.21,0.2-0.45,0.19-0.69C513.11,318,513.13,318.65,513.06,319.29z M512.76,316.55l-0.2-2.14l0.06-0.17l0.27,2.72
	L512.76,316.55z M503.28,316.84c-0.14,0.16-0.2,0.37-0.18,0.58c0,0,0,0,0,0.07c0,0.22,0.03,0.43,0.09,0.64l-0.31,1.34v-2.56
	c0.21-0.27,0.39-0.56,0.54-0.86C503.45,316.32,503.4,316.6,503.28,316.84L503.28,316.84z"/>
<path class="st11" d="M505.3,300.32c-0.37,0.8-0.5,1.69-0.39,2.57s-0.23,1.77-0.89,2.36c0.29,0.12,0.62,0.12,0.91,0
	s0.56-0.28,0.8-0.47c0.23-0.14,0.42-0.33,0.57-0.55c0.14-0.35,0.18-0.72,0.13-1.09c0-0.65,0.06-1.31,0.17-1.95
	c0.06-0.4,0.44-1.49,0-1.7S505.49,300.02,505.3,300.32z"/>
<path class="st12" d="M498.69,342.83l-0.31,2c0,0-3.15,4-2.22,4.51s2.35,0.8,3.71-1.3c0.18-0.49,0.48-0.94,0.86-1.3l0,0
	c0.31-0.27,0.47-0.68,0.43-1.09l-0.31-3.05L498.69,342.83z"/>
<path class="st12" d="M508.17,343.62l-0.31,2c0,0-3.15,4-2.22,4.51s2.35,0.8,3.71-1.3c0.18-0.49,0.48-0.94,0.86-1.3l0,0
	c0.31-0.27,0.47-0.68,0.43-1.09l-0.31-3.05L508.17,343.62z"/>
<path class="st13" d="M503.26,319.71c0,0-1.48,1.07-2,4.79l-1.55,9.31c0,0-1.31,8.44-1.07,10.06l2.62,0.9c0,0,1.55-5.1,1.38-8.65
	c0,0,3.15-11.22,5.36-12l0.47,9.91l-0.5,11.15l2.24,0.45c0,0,2.27-7.1,1.55-10.86l1.17-8c0,0,1.34-4.27-0.52-8L503.26,319.71z"/>
<g class="st8">
	<path d="M507.77,324.27v-0.17c-2.21,0.79-5.36,12-5.36,12c-0.05,2.9-0.51,5.78-1.35,8.56l0.28,0.1c0,0,1.55-5.1,1.38-8.65
		C502.71,336.12,505.59,325.92,507.77,324.27z"/>
	<path d="M512.5,318.82h-0.3c1.08,2.51,1.25,5.31,0.5,7.93l-1.17,8c0.69,3.56-1.32,10.11-1.53,10.8l0.29,0.06
		c0,0,2.27-7.1,1.55-10.86l1.17-8C513.01,326.75,514.36,322.5,512.5,318.82z"/>
</g>
<path class="st14" d="M501.25,312.42c0,0.16,0.11,0.3,0.26,0.33c0.73,0.18,1.41,0.53,2,1c1.1,0.86-1.17-1.72-1.17-1.72l-0.76,0.17
	l-0.31,0.28L501.25,312.42z"/>
<path class="st15" d="M501.25,312.42c0,0.16,0.11,0.3,0.26,0.33c0.73,0.18,1.41,0.53,2,1c1.1,0.86-1.17-1.72-1.17-1.72l-0.76,0.17
	l-0.31,0.28L501.25,312.42z"/>
<path class="st14" d="M512.07,314.7c0.92-0.66,2-1.08,3.12-1.23c0.16,0,0.29-0.13,0.29-0.29l0,0
	C515.48,313.18,512.86,312.15,512.07,314.7z"/>
<path class="st15" d="M515.48,313.17c0,0-2.62-1-3.41,1.52c0,0,1.93-1.48,3.27-1.24"/>
<circle class="st11" cx="509.03" cy="301.12" r="3.41"/>
<path class="st16" d="M506.68,303.51c0,0,0.48,2,0,2.41s-1.45,1.17-0.72,1.76s3.34,1.59,4.21,1.1s1.86-0.34,1.62-1.34
	s-2.14-0.79-2.17-5.76L506.68,303.51z"/>
<path class="st15" d="M501.85,311.82c0.07,1.08,0,2.17-0.21,3.24c-0.22,1.08-0.35,2.17-0.38,3.27c0.1,0.72,0.31,5.48,0.31,5.48
	s-0.38,4.17,1.65,3.79s-0.31-4.76-0.31-4.76l0.1-5.69c0.55-0.75,0.9-1.63,1-2.55C504.16,313.23,501.85,311.82,501.85,311.82z"/>
<path class="st16" d="M501.82,311.82c0.07,1.08,0,2.17-0.21,3.24c-0.22,1.08-0.35,2.17-0.38,3.27c0.1,0.72,0.31,5.48,0.31,5.48
	s-0.38,4.17,1.65,3.79s-0.31-4.76-0.31-4.76l0.1-5.69c0.55-0.75,0.9-1.63,1-2.55C504.12,313.23,501.82,311.82,501.82,311.82z"/>
<path class="st15" d="M514.81,312.13l-0.28,4.45c0,0-0.17,6.24-0.93,7.82c0,0,0.21,4.38-1.83,4.27s0.34-4.79,0.34-4.79
	s1.09-4.87,0.53-6.41l-0.53-5.34H514.81z"/>
<path class="st16" d="M514.84,312.13l-0.28,4.45c0,0-0.17,6.24-0.93,7.82c0,0,0.21,4.38-1.83,4.27s0.34-4.79,0.34-4.79
	s1.09-4.87,0.53-6.41l-0.53-5.34H514.84z"/>
<path class="st15" d="M508.23,307.82c0,0,1.65,0.76,2.55-1.5l3.35,1.64c0.42,0.4,0.65,0.95,0.65,1.52l0.72,3.86
	c0,0-2.45-0.83-3.21,1.45l0.21,2.17l0,0c0.16,0.54,0.12,1.11-0.11,1.62c-0.04,0.09-0.04,0.2,0,0.29c0.18,0.56-0.13,1.15-0.69,1.33
	c-0.1,0.03-0.2,0.05-0.31,0.05c-0.9,0.01-1.8,0.08-2.69,0.21c-0.72,0.21-2.9-0.41-3.62,0s-2.24-0.31-2.24-0.31l0.41-1.76
	c0,0-0.28-0.86,0.07-1.17s0.14-3-0.17-3.76c0,0-1.24-1.17-2-1l1-4.45c0.44-0.84,1.29-1.4,2.24-1.45c0.78,0.07,1.55-0.15,2.17-0.62
	C506.56,305.94,505.81,307.58,508.23,307.82z"/>
<path class="st15" d="M508.4,307.74c0.45,0.12,1.65,0.25,2.37-1.56l3.35,1.64c0.42,0.4,0.65,0.95,0.65,1.52l0.72,3.86
	c0,0-2.45-0.83-3.21,1.45l0.21,2.17l0.14,0.43c0.12,0.37,0.06,0.78-0.17,1.1c-0.1,0.11-0.12,0.26-0.07,0.4
	c0.18,0.56-0.13,1.15-0.69,1.33c-0.1,0.03-0.2,0.05-0.31,0.05c-0.9,0.01-1.8,0.08-2.69,0.21c-0.72,0.21-2.9-0.41-3.62,0
	s-2.24-0.31-2.24-0.31l0.41-1.76c0,0-0.28-0.86,0.07-1.17s0.14-3-0.17-3.76c0,0-1.24-1.17-2-1l1-4.45c0.44-0.84,1.29-1.4,2.24-1.45
	c0.78,0.07,1.55-0.15,2.17-0.62c0,0-0.81,1.48,1.32,1.8L508.4,307.74z"/>
<path class="st14" d="M508.4,307.81c0.45,0.12,1.65,0.25,2.37-1.56l3.35,1.64c0.42,0.4,0.65,0.95,0.65,1.52l0.72,3.86
	c0,0-2.45-0.83-3.21,1.45l0.21,2.17l0,0c0.16,0.54,0.12,1.11-0.11,1.62c-0.04,0.09-0.04,0.2,0,0.29c0.18,0.56-0.13,1.15-0.69,1.33
	c-0.1,0.03-0.2,0.05-0.31,0.05c-0.9,0.01-1.8,0.08-2.69,0.21c-0.72,0.21-2.9-0.41-3.62,0s-2.24-0.31-2.24-0.31l0.41-1.76
	c0,0-0.28-0.86,0.07-1.17s0.14-3-0.17-3.76c0,0-1.24-1.17-2-1l1-4.45c0.44-0.84,1.29-1.4,2.24-1.45c0.78,0.07,1.55-0.15,2.17-0.62
	c0,0-0.81,1.48,1.32,1.8L508.4,307.81z"/>
<path class="st15" d="M509.67,301.86l-2.93,1.83c0.07,0.33,0.13,0.66,0.17,1c0.33,0.13,0.69,0.2,1.05,0.2
	c0.72-0.05,1.39-0.36,1.9-0.86C509.73,303.31,509.66,302.59,509.67,301.86z"/>
<circle class="st16" cx="507.9" cy="301.84" r="2.83"/>
<circle class="st11" cx="512.07" cy="298.43" r="1.24"/>
<path class="st11" d="M512.31,299.74c-0.65,0-1.19-0.5-1.24-1.15c0,0,0,0.06,0,0.09c0,0.68,0.55,1.24,1.24,1.24
	c0.68,0,1.24-0.55,1.24-1.24v-0.01c0,0,0-0.06,0-0.09C513.5,299.24,512.96,299.74,512.31,299.74z"/>
<path class="st11" d="M511.6,300.92c-0.64-0.12-1.07-0.71-1-1.36v0.08c-0.12,0.67,0.32,1.32,0.99,1.45s1.32-0.32,1.45-0.99l0,0
	v-0.09C512.88,300.64,512.25,301.05,511.6,300.92z"/>
<path class="st11" d="M510.64,303.92c-0.64-0.12-1.07-0.71-1-1.36v0.08c-0.12,0.67,0.32,1.32,0.99,1.45s1.32-0.32,1.45-0.99v-0.09
	C511.92,303.64,511.29,304.05,510.64,303.92z"/>
<path class="st11" d="M512.31,299.08c-0.65,0-1.2-0.51-1.24-1.16c0,0,0,0.06,0,0.09c0,0.68,0.55,1.24,1.24,1.24
	c0.68,0,1.24-0.55,1.24-1.24V298c0,0,0-0.06,0-0.09C513.51,298.57,512.96,299.08,512.31,299.08z"/>
<path class="st11" d="M510.58,298.41c0-0.65,0.52-1.19,1.17-1.23h-0.09c-0.68,0-1.24,0.56-1.24,1.24s0.56,1.24,1.24,1.24l0,0h0.09
	C511.09,299.62,510.57,299.07,510.58,298.41z"/>
<path class="st15" d="M511.83,310.11c0.13,0.61,0.13,1.25,0,1.86c0,0-0.17,1.62,0.1,1.9"/>
<path class="st15" d="M503.45,310.49c0.13,0.61,0.13,1.25,0,1.86c0,0-0.17,1.62,0.1,1.9"/>
<path class="st15" d="M503.38,317.14c0.27,0.1,0.56,0.1,0.83,0c0.33-0.1,0.67-0.1,1,0"/>
<path class="st15" d="M503.8,314.7c0.97,0.05,1.95-0.11,2.86-0.45c0,0,3.52,0.86,4.52,0.24"/>
<path class="st16" d="M501.91,329.56h0.83c0.37,0,0.67,0.3,0.67,0.67l0,0c0,0.37-0.3,0.67-0.67,0.67h-0.83
	c-0.37,0-0.67-0.3-0.67-0.67l0,0C501.24,329.86,501.54,329.56,501.91,329.56z"/>
<path class="st17" d="M501.25,329.92l1.16-0.05l1,0.16h-0.35L501.25,329.92z"/>
<path class="st17" d="M509.07,324.31h1.16l1,0.1h-0.35L509.07,324.31z"/>
<path class="st17" d="M509.07,324.55h1.16l1,0.1h-0.35L509.07,324.55z"/>
<path class="st17" d="M509.07,324.8h1.16l1,0.1h-0.35L509.07,324.8z"/>
<path class="st17" d="M509.07,325.04h1.16l1,0.1h-0.35L509.07,325.04z"/>
<path class="st17" d="M501.25,330.85h1.16l1,0.12h-0.35L501.25,330.85z"/>
<path class="st17" d="M501.25,330.73h1.16l1,0.12h-0.35L501.25,330.73z"/>
<path class="st17" d="M501.25,330.61h1.16l1,0.12h-0.35L501.25,330.61z"/>
<path class="st17" d="M501.25,330.49h1.16l1,0.12h-0.35L501.25,330.49z"/>
<path class="st17" d="M501.25,329.74l1.16-0.05l1,0.16h-0.35L501.25,329.74z"/>
<path class="st17" d="M501.25,329.53l1.16-0.05l1,0.16h-0.35L501.25,329.53z"/>
<path class="st15" d="M508.38,300.03c-0.11,1.06,0.03,2.13,0.4,3.12c0.38,0.98,0.32,2.07-0.15,3c0.31,0.07,0.64-0.01,0.88-0.22
	c0.25-0.22,0.46-0.47,0.64-0.75c0.19-0.23,0.32-0.49,0.39-0.78c0.03-0.45-0.04-0.9-0.2-1.32c-0.19-0.77-0.33-1.54-0.42-2.33
	c-0.06-0.48,0-1.86-0.54-2S508.48,299.63,508.38,300.03z"/>
<path class="st11" d="M508.45,300c-0.11,1.06,0.03,2.13,0.4,3.12c0.38,0.98,0.32,2.07-0.15,3c0.31,0.07,0.64-0.01,0.88-0.22
	c0.25-0.22,0.46-0.47,0.64-0.75c0.19-0.23,0.32-0.49,0.39-0.78c0.03-0.45-0.04-0.9-0.2-1.32c-0.19-0.77-0.33-1.54-0.42-2.33
	c-0.06-0.48,0-1.86-0.54-2S508.55,299.59,508.45,300z"/>
<path class="st15" d="M507.23,300.74c0.24,0.25,0.29,0.62,0.49,0.9c0.36,0.39,0.87,0.59,1.4,0.56c0.14-0.01,0.28,0.02,0.41,0.09
	c0.22,0.14,0.23,0.46,0.37,0.68c0.3,0.32,0.81,0.34,1.13,0.04c0.01-0.01,0.03-0.03,0.04-0.04c0.29-0.35,0.45-0.78,0.45-1.23
	c0.05-0.5,0.05-0.99,0-1.49c-0.01-0.57-0.24-1.11-0.63-1.52c-0.33-0.24-0.71-0.41-1.11-0.48c-0.55-0.19-1.14-0.24-1.71-0.13
	c-0.28,0.09-0.54,0.22-0.78,0.39c-0.34,0.22-0.67,0.44-1,0.67c-0.37,0.26-1.07,0.78-0.39,1.06
	C506.33,300.44,506.87,300.35,507.23,300.74z"/>
<path class="st11" d="M507.3,300.7c0.24,0.25,0.29,0.62,0.49,0.9c0.36,0.39,0.87,0.59,1.4,0.56c0.14-0.01,0.28,0.02,0.41,0.09
	c0.22,0.14,0.23,0.46,0.37,0.68c0.3,0.32,0.81,0.34,1.13,0.04c0.01-0.01,0.03-0.03,0.04-0.04c0.29-0.35,0.45-0.78,0.45-1.23
	c0.05-0.5,0.05-0.99,0-1.49c-0.01-0.57-0.24-1.11-0.63-1.52c-0.33-0.24-0.71-0.41-1.11-0.48c-0.55-0.19-1.14-0.24-1.71-0.13
	c-0.28,0.09-0.54,0.22-0.78,0.39c-0.34,0.22-0.67,0.44-1,0.67c-0.37,0.26-1.07,0.78-0.39,1.06
	C506.4,300.4,506.97,300.32,507.3,300.7z"/>
<path class="st17" d="M509.14,324.31h1.16l1,0.1h-0.33L509.14,324.31z"/>
<path class="st17" d="M509.14,324.55h1.16l1,0.1h-0.33L509.14,324.55z"/>
<path class="st17" d="M509.14,324.8h1.16l1,0.1h-0.33L509.14,324.8z"/>
<path class="st17" d="M509.14,325.04h1.16l1,0.1h-0.33L509.14,325.04z"/>
<path class="st17" d="M508.64,338.31h1.16l1,0.1h-0.35L508.64,338.31z"/>
<path class="st17" d="M508.64,338.56h1.16l1,0.1h-0.35L508.64,338.56z"/>
<path class="st17" d="M508.64,338.8h1.16l1,0.1h-0.35L508.64,338.8z"/>
<path class="st17" d="M508.64,339.04h1.16l1,0.1h-0.35L508.64,339.04z"/>
</svg>
