<?xml version="1.0" encoding="utf-8"?>
<!-- Generator: Adobe Illustrator 23.0.1, SVG Export Plug-In . SVG Version: 6.00 Build 0)  -->
<svg version="1.1" id="Layer_1" xmlns="http://www.w3.org/2000/svg" xmlns:xlink="http://www.w3.org/1999/xlink" x="0px" y="0px"
	 viewBox="0 0 298.95 506.97" style="enable-background:new 0 0 298.95 506.97;" xml:space="preserve">
<style type="text/css">
	.st0{fill:#C18CAA;}
	.st1{fill:#702A77;}
	.st2{fill:#29316F;}
	.st3{fill:#2F52A4;}
	.st4{fill:#B7CAE9;}
	.st5{fill:#6B8FC9;}
	.st6{fill:#B3C6E6;}
	.st7{fill:#698BC7;}
	.st8{fill:#262C6A;}
	.st9{fill:#B2C6E6;}
	.st10{fill:#B2C7E7;}
	.st11{fill:#B0C4E5;}
	.st12{fill:#6389C6;}
	.st13{fill:#1F2458;}
	.st14{fill:#1D2054;}
	.st15{fill:#1F2258;}
	.st16{fill:#22265F;}
	.st17{fill:#631B41;}
	.st18{fill:#9F4A7A;}
	.st19{fill:#A04C7B;}
	.st20{fill:#E1C2D5;}
	.st21{fill:#DFBED2;}
	.st22{fill:#DEBCD1;}
	.st23{fill:#B9759C;}
	.st24{fill:#DEBDD1;}
	.st25{fill:#A2507E;}
	.st26{fill:#E0BFD4;}
	.st27{fill:#A35380;}
	.st28{fill:#B7719A;}
	.st29{fill:#E0C0D4;}
	.st30{fill:#C38BAB;}
	.st31{fill:#CB99B6;}
	.st32{fill:#BA9BAB;}
	.st33{fill:#EFD8E5;}
	.st34{fill:#BC7FA2;}
	.st35{fill:#CB9AB6;}
	.st36{fill:#F598AF;}
	.st37{fill:#7B2731;}
	.st38{fill:#AC2330;}
	.st39{fill:#F05A77;}
	.st40{fill:#F8B9C8;}
	.st41{fill:#F7BBCA;}
	.st42{fill:#F492A6;}
	.st43{fill:#F8B9C9;}
	.st44{fill:#EA2531;}
	.st45{fill:#F5B9C8;}
	.st46{fill:#EB2D36;}
	.st47{fill:#F8B8C2;}
	.st48{fill:#F4888A;}
	.st49{fill:#F6A6B5;}
	.st50{fill:#F15E74;}
	.st51{fill:#F16B87;}
	.st52{fill:#EF5E57;}
	.st53{fill:#F1686E;}
	.st54{fill:#EF475A;}
	.st55{fill:#E12F3B;}
	.st56{fill:#EF4663;}
	.st57{fill:#EE3451;}
	.st58{fill:#EC2E45;}
	.st59{fill:#F04E64;}
	.st60{fill:#EC233A;}
	.st61{fill:#41171B;}
	.st62{fill:#C9A1CB;}
	.st63{fill:#904A9A;}
	.st64{fill:#F7F3F8;}
	.st65{fill:#96539F;}
	.st66{fill:#9A59A3;}
	.st67{fill:#924C9C;}
	.st68{fill:none;stroke:#924C9C;stroke-width:2;stroke-linecap:round;stroke-miterlimit:10;}
</style>
<g>
	<g>
		<g>
			<path class="st2" d="M149.97,495.45c-6.29-5-7.09-11.44-4.86-18.66c6.22-1.83,12.44-3.66,19.13-5.63
				c-0.62-3.74-1.4-8.49-2.13-12.88c-6.31,0-11.73,0-17.15,0c-0.58-1.15-1.15-2.31-1.73-3.46c4.75-5.7,11.44-3.57,17.28-4.29
				c0.15-3.32,0.3-6.62,0.45-9.92c3.97-0.64,7.94-1.27,11.91-1.91c0.3,0.56,0.6,1.13,0.9,1.69c-2.43,0.89-4.87,1.77-7.5,2.73
				c0.61,2.29,1.06,4.73,1.91,7.02c3.5,9.37,12.01,13.65,20.04,10.2c2.14,0.72,4.27,1.47,6.42,2.15c3.79,1.2,7.72,2.07,11.34,3.65
				c2.78,1.22,7.26,3.23,7.33,5.03c0.17,4.05-3.05,7.46-7.46,8.03c-6.71,0.87-13.5,1.4-20.27,1.58c-5.19,0.14-10.4-0.47-16.57-0.8
				c3.26,9.8-2.67,12.8-9.07,15.48C156.63,495.45,153.3,495.45,149.97,495.45z"/>
			<path class="st3" d="M127.08,235.4c-1.38,2.73-2.75,5.48-4.11,8.22c1.36-2.74,2.72-5.49,4.1-8.22H127.08z"/>
			<path class="st3" d="M132.03,320.39v0.06l-0.04-0.07C132,320.38,132.02,320.38,132.03,320.39z"/>
			<path class="st4" d="M166.15,362.47c-1.2,10.8-0.9,21.75-1.62,32.62c-1.01,15.18-2.35,30.34-3.55,45.52
				c-0.15,3.3-0.3,6.59-0.45,9.91c-5.85,0.73-12.54-1.41-17.29,4.3c-1.38-11.65-3.39-23.27-3.92-34.96
				c-0.39-8.68,1.49-17.45,1.73-26.2c0.23-8.71-0.32-17.44-0.57-26.15c-0.06-1.98-0.34-3.95-0.51-5.92
				c-2.36-12.71-4.71-25.42-7.06-38.14c7.89,7.25,14.72,16.68,23.96,21.13C166.15,349.05,167.09,353.92,166.15,362.47z"/>
			<path class="st5" d="M190.01,322.39c-1.16,5.94-2.33,11.89-3.48,17.83c-1.52,7.79-3.03,15.58-4.54,23.37
				c-1.92,12.28-4.19,24.52-5.68,36.85c-1.54,12.71-2.31,25.5-3.42,38.26c-3.97,0.63-7.94,1.27-11.91,1.91
				c1.2-15.18,2.54-30.34,3.55-45.52c0.72-10.87,0.42-21.82,1.62-32.62c0.94-8.55,0-13.42-9.28-17.89
				c-9.24-4.45-16.07-13.88-23.96-21.13c-0.31-1.02-0.61-2.05-0.92-3.07c0.01,0,0.03,0,0.04,0.01c0.62,0.1,1.32,0.06,1.81,0.36
				c18.49,11.37,36.94,11.24,55.37-0.12C189.48,321.22,189.75,321.8,190.01,322.39z"/>
			<path class="st6" d="M144.97,458.28c5.42,0,10.84,0,17.15,0c0.73,4.39,1.51,9.14,2.13,12.88c-6.69,1.97-12.91,3.8-19.13,5.63
				C145.06,470.62,145.01,464.45,144.97,458.28z"/>
			<path class="st7" d="M188.24,460.34c-8.03,3.45-16.54-0.83-20.04-10.2c-0.85-2.29-1.3-4.72-1.91-7.02
				c2.63-0.96,5.07-1.85,7.5-2.73c3.98,5.88,7.94,11.77,11.98,17.61C186.39,458.91,187.4,459.56,188.24,460.34z"/>
			<path class="st8" d="M131.99,320.38l0.04,0.07v-0.06C132.02,320.38,132,320.38,131.99,320.38z M225.31,299.05
				c-5.21-9.2-10.09-18.62-15.83-27.49c-7.79-12.04-16.24-23.66-24.4-35.46c-3.92-6.75-7.9-13.48-7.08-21.77
				c-2.33,6.12-2.16,5.87-7.85,2.04c-3.32-2.23-7.27-3.54-10.6-5.1c6.85-4.53,13.57-8.97,20.18-13.33c-0.01-0.04,0.05,0.71,0.1,1.48
				c0.13-0.64,0.26-1.28,0.4-1.91c0-0.01,0-0.02,0-0.02c0.42-1.93,0.88-3.86,1.34-5.78c-0.01-0.01-0.01-0.01,0-0.01
				c0.24-1.03,0.48-2.05,0.7-3.08c0.11-0.51,0.22-1.03,0.32-1.55c0.19-0.91,0.36-1.83,0.5-2.75c0.68-4.2,0.91-8.44,0.07-12.79
				c-0.09-0.49-0.2-0.99-0.33-1.48c-0.19-0.75-0.4-1.49-0.66-2.25c-0.25-0.75-0.54-1.5-0.87-2.26c-2.58-5.96-2.15-13.22-3.08-19.9
				c-0.58-7.5-0.58-7.5-6.05-6.89v22.21h-35.28v-18.44c-2.96-3.62-5.17-2.57-6.98,1.1c-0.62,8.87-1.64,17.75-1.73,26.63
				c-0.07,7.48,0.96,14.98,1.5,22.47c1.31,1.04,2.81,1.91,3.9,3.14c3.39,3.8,6.36,8.02,10.03,11.51c2.09,1.99,5.23,2.9,8.83,4.78
				c-5.43,3.2-10.81,5.63-16.61,7.19c-2.92,5.35-5.84,10.69-8.76,16.05v0.01c-1.38,2.73-2.74,5.48-4.1,8.22
				c-0.46,0.91-0.91,1.83-1.36,2.74c-0.9,1.83-1.82,3.65-2.74,5.47c-1.84,3.64-3.72,7.26-5.69,10.83c-0.5,0.9-0.99,1.79-1.5,2.67
				c-1.01,1.78-2.05,3.54-3.12,5.29c-1.61,2.61-3.29,5.19-5.07,7.73c-3.3,4.68-4.86,12.18-3.95,17.87
				c1.53,9.53,6.74,17.68,17.4,20.23h10.82c-3.78-5.26-6.9-9.59-10.01-13.92c0.43-0.29,0.87-0.57,1.3-0.86
				c4.99,4.24,8.22,9.83,10.96,15.78c0.69,0.66,1.38,1.32,2.07,1.98c-0.01,0.32-0.03,0.64-0.05,0.96c0.62,0.1,1.32,0.06,1.81,0.36
				c18.49,11.37,36.94,11.24,55.37-0.12c2.16-2.04,4.64-3.84,6.41-6.18c7.36-9.78,17.29-13.96,29.25-14.02
				C225.03,299.97,225.47,299.34,225.31,299.05z M125.4,286.33c-0.5-0.24-0.99-0.48-1.48-0.72c5.14-16,12.91-30.76,21.26-45.24
				c0.36,0.24,0.73,0.48,1.09,0.72C139.31,256.17,132.35,271.25,125.4,286.33z M168.02,231.03c9.32,15.38,14.6,32.29,18.07,49.89
				C180.07,264.29,174.05,247.66,168.02,231.03z"/>
			<path class="st6" d="M177.23,103.83c-4.46,7.49-9.03,14.91-13.56,22.37c-2.01,0.91-5.65,2.25-10.37,2.25
				c-4.2,0-7.52-1.05-9.48-1.85c-6.3-4.17-12.12-8.71-14.99-16.17c-1.23-3.21-5.2-6.57-4.57-9c0.73-2.84,5.36-4.51,7.87-7.1
				c8.43-8.71,16.67-17.61,25.04-26.5c5.24,4.36,9.59,7.46,13.24,11.23c1.83,1.89,2.43,5,3.54,7.58c0.49,1.13,0.55,2.67,1.37,3.41
				C179.87,94.17,180.58,98.22,177.23,103.83z"/>
			<path class="st9" d="M192.57,211.56c-2.27,8.24-4.98,16.36-7.49,24.54c-3.92-6.75-7.9-13.48-7.08-21.77
				c0.01-0.45,0.02-0.9,0.03-1.35c0.3-1.86,0.6-3.72,0.91-5.57v-0.01c0.29-2.64,0.59-5.29,0.88-7.94c0-0.01,0-0.01,0.01-0.02
				c0-0.01,0-0.01,0-0.02c0.13-0.64,0.26-1.28,0.4-1.91c0-0.01,0-0.02,0-0.02c0.42-1.93,0.88-3.86,1.34-5.78
				c-0.01-0.01-0.01-0.01,0-0.01c0.24-1.03,0.48-2.05,0.7-3.08c0.11-0.51,0.22-1.03,0.32-1.55c0.19-0.91,0.36-1.83,0.5-2.75
				c0.68-4.2,0.91-8.44,0.07-12.79c-0.09-0.49-0.2-0.99-0.33-1.48c-0.19-0.75-0.4-1.49-0.66-2.25c-0.25-0.75-0.54-1.5-0.87-2.26
				c-2.58-5.96-2.15-13.22-3.08-19.9c0.4-1.56,0.8-3.12,1.25-4.89c8.14,1.4,12.18,6.97,13.67,14.08
				C197.1,173.73,197.76,192.73,192.57,211.56z"/>
			<path class="st10" d="M135.83,219.34c-2.92,5.35-5.84,10.69-8.76,16.05c-0.22-0.34-0.48-0.67-0.73-1
				c-0.43-0.56-0.83-1.12-0.96-1.75c-3.98-19.82-8.19-39.6-11.69-59.51c-2.1-11.92,6.15-26.02,16.22-29.51
				c-0.62,8.87-1.64,17.75-1.73,26.63c-0.07,7.48,0.96,14.98,1.5,22.47C131.73,201.59,133.78,210.46,135.83,219.34z"/>
			<path class="st6" d="M172.17,138.75v22.21h-35.28v-18.44c0.58-1.08,0.93-2.84,1.77-3.11c0.25-0.08,0.49-0.17,0.72-0.26
				c0.38-0.16,0.73-0.32,1.05-0.51c0.15-0.07,0.3-0.16,0.43-0.25c0.3-0.19,0.57-0.39,0.82-0.6c0.16-0.14,0.31-0.27,0.44-0.42
				c0.69-0.7,1.17-1.53,1.47-2.45c0.08-0.23,0.15-0.47,0.2-0.72c0.06-0.25,0.1-0.49,0.14-0.75c0.04-0.27,0.07-0.54,0.08-0.82
				c0.05-0.69,0.03-1.41-0.03-2.16c2.34,0.56,4.73,0.99,7.04,1.69c6.67,2.04,13.32,4.18,19.97,6.28
				C171.39,138.54,171.78,138.64,172.17,138.75z"/>
			<path class="st11" d="M226.42,304.94c-3.58,9.05-11.74,11.49-20.01,13.63c-5.43,1.41-10.93,2.56-16.4,3.82
				c-0.26-0.59-0.53-1.17-0.8-1.76c2.16-2.04,4.64-3.84,6.41-6.18c7.36-9.78,17.29-13.96,29.25-14.02
				C228.17,300.97,227.15,303.07,226.42,304.94z"/>
			<path class="st12" d="M170.99,138.44c-6.65-2.1-13.3-4.24-19.97-6.28c-2.31-0.7-4.7-1.13-7.04-1.69
				c-0.06-1.29-0.11-2.58-0.16-3.87c1.96,0.8,5.28,1.85,9.48,1.85c4.72,0,8.36-1.34,10.37-2.25
				C163.59,131.78,165.19,136.37,170.99,138.44z"/>
			<path class="st3" d="M262.94,320.19c-2.32,3.33-4.96,6.43-7.95,9.24c-1.17-14.9-1.46-29.59-8.81-42.75
				c-0.93-1.67-3.49-2.42-5.63-3.81c9.5,6.21,1.26,28.11-1.32,35.9c-3.89,11.75-9.01,23.6-19.74,30.6
				c-5.99,3.91-36.26,7.96-37.44,14.13c1.01-5.26,2.01-10.51,3.02-15.77c1.35-7.08,2.71-14.16,4.07-21.24
				c0.11-0.58,0.23-1.17,0.41-1.73c0.23-0.76,0.57-1.46,1.13-2.01c0.33-0.33,0.71-0.57,1.13-0.77l0.01-0.01
				c0.69-0.32,1.47-0.5,2.22-0.67c2.11-0.46,4.38-0.88,6.71-1.34c0.03-0.01,0.06-0.01,0.09-0.02c5.44-1.07,11.18-2.37,15.98-4.88
				c0.16-0.08,0.33-0.17,0.49-0.26c3.67-2.01,6.73-4.76,8.61-8.72c0.18-0.37,0.35-0.75,0.5-1.14c0.73-1.87,1.75-3.97-1.55-4.51
				c0.16-0.46,0.6-1.09,0.44-1.38c-5.21-9.2-10.09-18.62-15.83-27.49c-7.79-12.04-16.24-23.66-24.4-35.46
				c2.51-8.18,5.22-16.3,7.49-24.54c5.19-18.83,4.53-37.83,0.57-56.73c-1.49-7.11-5.53-12.68-13.67-14.08
				c-0.45,1.77-0.85,3.33-1.25,4.89c-0.58-7.5-0.58-7.5-6.05-6.89c-0.39-0.11-0.78-0.21-1.18-0.31c-5.8-2.07-7.4-6.66-7.32-12.24
				c4.53-7.46,9.1-14.88,13.56-22.37c3.35-5.61,2.64-9.66-1.91-13.78c-0.82-0.74-0.88-2.28-1.37-3.41
				c-1.11-2.58-1.71-5.69-3.54-7.58c-3.65-3.77-8-6.87-13.24-11.23c-8.37,8.89-16.61,17.79-25.04,26.5
				c-2.51,2.59-7.14,4.26-7.87,7.1c-0.63,2.43,3.34,5.79,4.57,9c2.87,7.46,8.69,12,14.99,16.17c0.05,1.29,0.1,2.58,0.15,3.87
				c0.06,0.75,0.08,1.48,0.04,2.16c-0.01,0.28-0.04,0.55-0.08,0.82c-0.04,0.26-0.08,0.5-0.14,0.75c-0.05,0.25-0.12,0.49-0.2,0.72
				c-0.3,0.92-0.78,1.75-1.47,2.45c-0.13,0.15-0.28,0.28-0.44,0.42c-0.25,0.21-0.52,0.41-0.82,0.6c-0.13,0.09-0.28,0.18-0.43,0.25
				c-0.32,0.19-0.67,0.35-1.05,0.51c-0.23,0.09-0.47,0.18-0.72,0.26c-0.84,0.27-1.19,2.03-1.77,3.11c-2.96-3.62-5.17-2.57-6.98,1.1
				c-10.07,3.49-18.32,17.59-16.22,29.51c3.5,19.91,7.71,39.69,11.69,59.51c0.13,0.63,0.53,1.19,0.96,1.75
				c0.25,0.33,0.5,0.65,0.73,1v0.01c-1.38,2.73-2.74,5.48-4.1,8.22c-0.46,0.91-0.91,1.83-1.36,2.74c-0.91,1.83-1.82,3.65-2.74,5.47
				c-1.84,3.64-3.72,7.26-5.69,10.83c-0.5,0.9-0.99,1.79-1.5,2.67c-1.01,1.78-2.05,3.54-3.12,5.29c-1.61,2.61-3.29,5.19-5.07,7.73
				c-3.3,4.68-4.86,12.18-3.95,17.87c1.53,9.53,6.74,17.68,17.4,20.23h10.82c-3.78-5.26-6.9-9.59-10.01-13.92
				c0.43-0.29,0.87-0.57,1.3-0.86c4.99,4.24,8.22,9.83,10.96,15.78c0.69,0.66,1.38,1.32,2.07,1.98c-0.01,0.32-0.03,0.64-0.05,0.96
				c-0.01-0.01-0.03-0.01-0.04-0.01c0.31,1.02,0.61,2.05,0.92,3.07c0.58,3.17,1.18,6.33,1.76,9.5c0.88,4.76,1.75,9.51,2.64,14.26
				c0.03,0.15,0.06,0.3,0.08,0.46c0.84,4.6,1.66,9.2,2.45,13.81c-26.58-4.79-65.09-11.64-85.35-31.03
				c-17.32-16.59-19.34-43.89-15.3-66.2c2.39-13.2,5.13-26.34,7.67-39.52c0.14-0.7-0.14-1.49-0.33-3.27
				c-12.39,19.31-20.52,38.86-19.46,61.82c-16.04-28.07,1.21-70.25,16.52-94.54c23.39-37.12,42.98-70.84,54.38-113.77
				c5.28-19.88,20.65-38.48,41.85-41.69c28.07-4.24,47.77,20.51,59.25,42.72c11.5,22.26,16.77,46.93,27.51,69.43
				c14.02,29.38,36.71,52.91,45.39,84.96C279.86,259.49,280.82,294.41,262.94,320.19z"/>
			<path class="st13" d="M135.82,219.34c-2.05-8.87-4.1-17.75-6.15-26.62c1.31,1.04,2.81,1.91,3.91,3.14
				c3.39,3.8,6.36,8.02,10.02,11.51c2.1,2,5.23,2.9,8.83,4.78C147.01,215.35,141.63,217.78,135.82,219.34z"/>
			<path class="st14" d="M178.02,212.98c-0.01,0.45-0.02,0.9-0.03,1.35c-2.32,6.12-2.16,5.88-7.85,2.05
				c-3.32-2.23-7.26-3.54-10.6-5.11c6.85-4.52,13.57-8.96,20.18-13.33c0-0.03,0.05,0.75,0.1,1.53c-0.3,2.65-0.59,5.29-0.89,7.94
				C178.63,209.27,178.33,211.12,178.02,212.98z"/>
			<path class="st15" d="M146.27,241.09c-6.96,15.08-13.92,30.16-20.87,45.25c-0.49-0.24-0.99-0.48-1.48-0.72
				c5.15-16,12.91-30.76,21.26-45.24C145.54,240.61,145.9,240.85,146.27,241.09z"/>
			<path class="st16" d="M186.09,280.92c-6.02-16.63-12.05-33.26-18.07-49.88C177.34,246.42,182.62,263.33,186.09,280.92z"/>
			<path class="st8" d="M178.02,212.98c0.3-1.86,0.61-3.71,0.91-5.57C178.63,209.27,178.33,211.12,178.02,212.98z"/>
		</g>
	</g>
	<path class="st3" d="M168.69,87.53l-5.85-0.87l-0.7-0.1c-0.82-0.29-1.28-1.09-1.04-1.77c0.25-0.68,1.11-1,1.93-0.7
		C163.03,84.08,166.64,84.94,168.69,87.53z"/>
	<path class="st3" d="M134.1,88.53l5.88-0.65l0.7-0.08c0.83-0.26,1.32-1.04,1.1-1.73c-0.22-0.69-1.08-1.04-1.9-0.77
		C139.88,85.29,136.24,86.01,134.1,88.53z"/>
	<path class="st3" d="M159.15,97.06c0,0,4.56,1.75,8.94-0.31c0,0,1.69,1.57,2.56,1.01c0,0-0.94,0.98-2.69,0.58
		C167.97,98.33,163.47,100.56,159.15,97.06z"/>
	<path class="st3" d="M143.99,97.61c0,0-4.52,1.84-8.94-0.13c0,0-1.65,1.61-2.54,1.06c0,0,0.96,0.96,2.7,0.52
		C135.2,99.07,139.75,101.2,143.99,97.61z"/>
	<path class="st3" d="M134.28,105.69c0,0,0.84,1.62,1.66,1.25s0.57-2.05,1.38-1.08s2.02,0.86,2.19-0.38c0,0-0.06-0.3-0.39-0.12
		c-0.33,0.17-0.05,0.92-0.66,0.56c-0.61-0.36-0.86-1.06-1.31-1c-0.45,0.06-0.87,0.38-1.12,1.03s-1.23-0.42-1.23-0.42
		c-0.08-0.2-0.3-0.26-0.42-0.19C134.28,105.41,134.23,105.55,134.28,105.69z"/>
	<path class="st3" d="M162.3,105.69c0,0,0.84,1.62,1.66,1.25s0.57-2.05,1.38-1.08s2.02,0.86,2.19-0.38c0,0-0.06-0.3-0.39-0.12
		c-0.33,0.17-0.05,0.92-0.66,0.56c-0.61-0.36-0.86-1.06-1.31-1c-0.45,0.06-0.87,0.38-1.12,1.03s-1.23-0.42-1.23-0.42
		c-0.08-0.2-0.3-0.26-0.42-0.19C162.3,105.41,162.25,105.55,162.3,105.69z"/>
	<path class="st3" d="M150.56,105.72c0.03,0.13,0.15,0.21,0.26,0.19c0.09-0.01,0.17-0.09,0.19-0.19c0.04-0.07,0.35-0.71,0.98-0.77
		c1.09-0.1,1.08,0.77,1.08,0.77c0.02,0.14,0.14,0.25,0.28,0.24c0.13-0.01,0.24-0.11,0.26-0.24c-0.02-0.04-0.16-1.23-1.5-1.23
		C150.85,104.5,150.61,105.2,150.56,105.72z"/>
	<path class="st3" d="M152.26,113.82c-0.07,0-0.13,0-0.2,0c-1.37-0.03-2.71-0.37-3.99-1c-0.12-0.06-0.17-0.21-0.11-0.33
		c0.06-0.12,0.21-0.17,0.33-0.11c1.21,0.6,2.49,0.92,3.78,0.95c1.4,0.03,2.82-0.29,4.15-0.95c0.12-0.06,0.27-0.01,0.33,0.11
		c0.06,0.12,0.01,0.27-0.11,0.33C155.1,113.48,153.69,113.82,152.26,113.82z"/>
</g>
</svg>
